<?xml version="1.0" encoding="UTF-8" standalone="no"?><svg xmlns="http://www.w3.org/2000/svg" xmlns:xlink="http://www.w3.org/1999/xlink" contentStyleType="text/css" height="578px" preserveAspectRatio="none" style="width:1225px;height:578px;background:#FFFFFF;" version="1.1" viewBox="0 0 1225 578" width="1225px" zoomAndPan="magnify"><defs/><g><!--MD5=[f2eb7d5497efdc0fbc0e36060879ff38]
class ProgramFile--><g id="elem_ProgramFile"><rect codeLine="2" fill="#F1F1F1" height="80.5938" id="ProgramFile" rx="2.5" ry="2.5" style="stroke:#181818;stroke-width:0.5;" width="142" x="281" y="61.5"/><ellipse cx="306.8" cy="77.5" fill="#ADD1B2" rx="11" ry="11" style="stroke:#181818;stroke-width:1.0;"/><path d="M309.1438,73.1719 C308.2063,72.7344 307.6125,72.5938 306.7375,72.5938 C304.1125,72.5938 302.1125,74.6719 302.1125,77.3906 L302.1125,78.5156 C302.1125,81.0938 304.2219,82.9844 307.1125,82.9844 C308.3313,82.9844 309.4875,82.6875 310.2375,82.1406 C310.8156,81.7344 311.1438,81.2813 311.1438,80.8906 C311.1438,80.4375 310.7531,80.0469 310.2844,80.0469 C310.0656,80.0469 309.8625,80.125 309.675,80.3125 C309.2219,80.7969 309.2219,80.7969 309.0344,80.8906 C308.6125,81.1563 307.925,81.2813 307.1594,81.2813 C305.1125,81.2813 303.8156,80.1875 303.8156,78.4844 L303.8156,77.3906 C303.8156,75.6094 305.0656,74.2969 306.8,74.2969 C307.3781,74.2969 307.9875,74.4531 308.4563,74.7031 C308.9406,74.9844 309.1125,75.2031 309.2063,75.6094 C309.2688,76.0156 309.3,76.1406 309.4406,76.2656 C309.5813,76.4063 309.8156,76.5156 310.0344,76.5156 C310.3,76.5156 310.5656,76.375 310.7375,76.1563 C310.8469,76 310.8781,75.8125 310.8781,75.3906 L310.8781,73.9688 C310.8781,73.5313 310.8625,73.4063 310.7688,73.25 C310.6125,72.9844 310.3313,72.8438 310.0344,72.8438 C309.7375,72.8438 309.5344,72.9375 309.3156,73.25 L309.1438,73.1719 Z " fill="#000000"/><text fill="#000000" font-family="sans-serif" font-size="14" lengthAdjust="spacing" textLength="86" x="323.2" y="82.3467">ProgramFile</text><line style="stroke:#181818;stroke-width:0.5;" x1="282" x2="422" y1="93.5" y2="93.5"/><ellipse cx="292" cy="104.5" fill="none" rx="3" ry="3" style="stroke:#038048;stroke-width:1.0;"/><text fill="#000000" font-family="sans-serif" font-size="14" lengthAdjust="spacing" textLength="116" x="301" y="110.4951">filename: String</text><ellipse cx="292" cy="120.7969" fill="none" rx="3" ry="3" style="stroke:#038048;stroke-width:1.0;"/><text fill="#000000" font-family="sans-serif" font-size="14" lengthAdjust="spacing" textLength="105" x="301" y="126.792">version: String</text><line style="stroke:#181818;stroke-width:0.5;" x1="282" x2="422" y1="134.0938" y2="134.0938"/></g><!--MD5=[b9c8175a1639d891692ad432da001017]
class ProgramUnit--><g id="elem_ProgramUnit"><rect codeLine="7" fill="#F1F1F1" height="96.8906" id="ProgramUnit" rx="2.5" ry="2.5" style="stroke:#181818;stroke-width:0.5;" width="149" x="277.5" y="258"/><ellipse cx="305.1" cy="274" fill="#A9DCDF" rx="11" ry="11" style="stroke:#181818;stroke-width:1.0;"/><path d="M307.1781,275.8125 L307.5688,276.7969 L307.1781,276.7969 C306.725,276.7969 306.6156,276.8125 306.4594,276.9219 C306.2094,277.0781 306.0531,277.3594 306.0531,277.6563 C306.0531,277.9219 306.1938,278.1719 306.4125,278.3281 C306.5531,278.4531 306.7563,278.5 307.1781,278.5 L309.5375,278.5 C309.8969,278.5 310.1156,278.4688 310.2563,278.375 C310.5063,278.2344 310.6625,277.9375 310.6625,277.6563 C310.6625,277.375 310.5219,277.125 310.3031,276.9688 C310.1313,276.8281 309.975,276.7969 309.5063,276.7969 L306.1156,268.5938 L302.4438,268.5938 C301.9906,268.5938 301.8656,268.6094 301.7094,268.7031 C301.4594,268.875 301.3031,269.1563 301.3031,269.4375 C301.3031,269.7188 301.4438,269.9688 301.6625,270.1406 C301.8344,270.25 302.0063,270.2813 302.4438,270.2813 L303.5219,270.2813 L300.8813,276.7969 C300.4594,276.7969 300.3031,276.8125 300.1469,276.9219 C299.8969,277.0781 299.7406,277.3594 299.7406,277.6563 C299.7406,278.2188 300.1156,278.5 300.8656,278.5 L303.1313,278.5 C303.4906,278.5 303.7094,278.4688 303.8344,278.375 C304.1,278.2344 304.2406,277.9375 304.2406,277.6563 C304.2406,277.375 304.1156,277.125 303.8969,276.9531 C303.725,276.8281 303.5844,276.7969 303.1313,276.7969 L302.7406,276.7969 L303.1313,275.8125 L307.1781,275.8125 Z M306.475,274.1094 L303.8031,274.1094 L305.1469,270.8438 L306.475,274.1094 Z " fill="#000000"/><text fill="#000000" font-family="sans-serif" font-size="14" font-style="italic" lengthAdjust="spacing" textLength="89" x="321.9" y="278.8467">ProgramUnit</text><line style="stroke:#181818;stroke-width:0.5;" x1="278.5" x2="425.5" y1="290" y2="290"/><ellipse cx="288.5" cy="301" fill="none" rx="3" ry="3" style="stroke:#038048;stroke-width:1.0;"/><text fill="#000000" font-family="sans-serif" font-size="14" lengthAdjust="spacing" textLength="93" x="297.5" y="306.9951">name: String</text><ellipse cx="288.5" cy="317.2969" fill="none" rx="3" ry="3" style="stroke:#038048;stroke-width:1.0;"/><text fill="#000000" font-family="sans-serif" font-size="14" lengthAdjust="spacing" textLength="110" x="297.5" y="323.292">srcSpan: String</text><ellipse cx="288.5" cy="333.5938" fill="none" rx="3" ry="3" style="stroke:#038048;stroke-width:1.0;"/><text fill="#000000" font-family="sans-serif" font-size="14" lengthAdjust="spacing" textLength="123" x="297.5" y="339.5889">comment: String</text><line style="stroke:#181818;stroke-width:0.5;" x1="278.5" x2="425.5" y1="346.8906" y2="346.8906"/></g><!--MD5=[3005aed9f497994e92e750d9a1cd63b4]
class ExternalProcedure--><g id="elem_ExternalProcedure"><rect codeLine="14" fill="#F1F1F1" height="48" id="ExternalProcedure" rx="2.5" ry="2.5" style="stroke:#181818;stroke-width:0.5;" width="164" x="93" y="415"/><ellipse cx="108" cy="431" fill="#A9DCDF" rx="11" ry="11" style="stroke:#181818;stroke-width:1.0;"/><path d="M110.0781,432.8125 L110.4688,433.7969 L110.0781,433.7969 C109.625,433.7969 109.5156,433.8125 109.3594,433.9219 C109.1094,434.0781 108.9531,434.3594 108.9531,434.6563 C108.9531,434.9219 109.0938,435.1719 109.3125,435.3281 C109.4531,435.4531 109.6563,435.5 110.0781,435.5 L112.4375,435.5 C112.7969,435.5 113.0156,435.4688 113.1563,435.375 C113.4063,435.2344 113.5625,434.9375 113.5625,434.6563 C113.5625,434.375 113.4219,434.125 113.2031,433.9688 C113.0313,433.8281 112.875,433.7969 112.4063,433.7969 L109.0156,425.5938 L105.3438,425.5938 C104.8906,425.5938 104.7656,425.6094 104.6094,425.7031 C104.3594,425.875 104.2031,426.1563 104.2031,426.4375 C104.2031,426.7188 104.3438,426.9688 104.5625,427.1406 C104.7344,427.25 104.9063,427.2813 105.3438,427.2813 L106.4219,427.2813 L103.7813,433.7969 C103.3594,433.7969 103.2031,433.8125 103.0469,433.9219 C102.7969,434.0781 102.6406,434.3594 102.6406,434.6563 C102.6406,435.2188 103.0156,435.5 103.7656,435.5 L106.0313,435.5 C106.3906,435.5 106.6094,435.4688 106.7344,435.375 C107,435.2344 107.1406,434.9375 107.1406,434.6563 C107.1406,434.375 107.0156,434.125 106.7969,433.9531 C106.625,433.8281 106.4844,433.7969 106.0313,433.7969 L105.6406,433.7969 L106.0313,432.8125 L110.0781,432.8125 Z M109.375,431.1094 L106.7031,431.1094 L108.0469,427.8438 L109.375,431.1094 Z " fill="#000000"/><text fill="#000000" font-family="sans-serif" font-size="14" font-style="italic" lengthAdjust="spacing" textLength="132" x="122" y="435.8467">ExternalProcedure</text><line style="stroke:#181818;stroke-width:0.5;" x1="94" x2="256" y1="447" y2="447"/><line style="stroke:#181818;stroke-width:0.5;" x1="94" x2="256" y1="455" y2="455"/></g><!--MD5=[635c813f4adb48ebf0146574f615d17a]
class SubProgram--><g id="elem_SubProgram"><rect codeLine="17" fill="#F1F1F1" height="48" id="SubProgram" rx="2.5" ry="2.5" style="stroke:#181818;stroke-width:0.5;" width="120" x="292" y="415"/><ellipse cx="307" cy="431" fill="#A9DCDF" rx="11" ry="11" style="stroke:#181818;stroke-width:1.0;"/><path d="M309.0781,432.8125 L309.4688,433.7969 L309.0781,433.7969 C308.625,433.7969 308.5156,433.8125 308.3594,433.9219 C308.1094,434.0781 307.9531,434.3594 307.9531,434.6563 C307.9531,434.9219 308.0938,435.1719 308.3125,435.3281 C308.4531,435.4531 308.6563,435.5 309.0781,435.5 L311.4375,435.5 C311.7969,435.5 312.0156,435.4688 312.1563,435.375 C312.4063,435.2344 312.5625,434.9375 312.5625,434.6563 C312.5625,434.375 312.4219,434.125 312.2031,433.9688 C312.0313,433.8281 311.875,433.7969 311.4063,433.7969 L308.0156,425.5938 L304.3438,425.5938 C303.8906,425.5938 303.7656,425.6094 303.6094,425.7031 C303.3594,425.875 303.2031,426.1563 303.2031,426.4375 C303.2031,426.7188 303.3438,426.9688 303.5625,427.1406 C303.7344,427.25 303.9063,427.2813 304.3438,427.2813 L305.4219,427.2813 L302.7813,433.7969 C302.3594,433.7969 302.2031,433.8125 302.0469,433.9219 C301.7969,434.0781 301.6406,434.3594 301.6406,434.6563 C301.6406,435.2188 302.0156,435.5 302.7656,435.5 L305.0313,435.5 C305.3906,435.5 305.6094,435.4688 305.7344,435.375 C306,435.2344 306.1406,434.9375 306.1406,434.6563 C306.1406,434.375 306.0156,434.125 305.7969,433.9531 C305.625,433.8281 305.4844,433.7969 305.0313,433.7969 L304.6406,433.7969 L305.0313,432.8125 L309.0781,432.8125 Z M308.375,431.1094 L305.7031,431.1094 L307.0469,427.8438 L308.375,431.1094 Z " fill="#000000"/><text fill="#000000" font-family="sans-serif" font-size="14" font-style="italic" lengthAdjust="spacing" textLength="88" x="321" y="435.8467">SubProgram</text><line style="stroke:#181818;stroke-width:0.5;" x1="293" x2="411" y1="447" y2="447"/><line style="stroke:#181818;stroke-width:0.5;" x1="293" x2="411" y1="455" y2="455"/></g><!--MD5=[175f95e045c1a44aed0b30df3abe0e5c]
class Program--><g id="elem_Program"><rect codeLine="20" fill="#F1F1F1" height="48" id="Program" rx="2.5" ry="2.5" style="stroke:#181818;stroke-width:0.5;" width="93" x="447.5" y="415"/><ellipse cx="462.5" cy="431" fill="#ADD1B2" rx="11" ry="11" style="stroke:#181818;stroke-width:1.0;"/><path d="M464.8438,426.6719 C463.9063,426.2344 463.3125,426.0938 462.4375,426.0938 C459.8125,426.0938 457.8125,428.1719 457.8125,430.8906 L457.8125,432.0156 C457.8125,434.5938 459.9219,436.4844 462.8125,436.4844 C464.0313,436.4844 465.1875,436.1875 465.9375,435.6406 C466.5156,435.2344 466.8438,434.7813 466.8438,434.3906 C466.8438,433.9375 466.4531,433.5469 465.9844,433.5469 C465.7656,433.5469 465.5625,433.625 465.375,433.8125 C464.9219,434.2969 464.9219,434.2969 464.7344,434.3906 C464.3125,434.6563 463.625,434.7813 462.8594,434.7813 C460.8125,434.7813 459.5156,433.6875 459.5156,431.9844 L459.5156,430.8906 C459.5156,429.1094 460.7656,427.7969 462.5,427.7969 C463.0781,427.7969 463.6875,427.9531 464.1563,428.2031 C464.6406,428.4844 464.8125,428.7031 464.9063,429.1094 C464.9688,429.5156 465,429.6406 465.1406,429.7656 C465.2813,429.9063 465.5156,430.0156 465.7344,430.0156 C466,430.0156 466.2656,429.875 466.4375,429.6563 C466.5469,429.5 466.5781,429.3125 466.5781,428.8906 L466.5781,427.4688 C466.5781,427.0313 466.5625,426.9063 466.4688,426.75 C466.3125,426.4844 466.0313,426.3438 465.7344,426.3438 C465.4375,426.3438 465.2344,426.4375 465.0156,426.75 L464.8438,426.6719 Z " fill="#000000"/><text fill="#000000" font-family="sans-serif" font-size="14" lengthAdjust="spacing" textLength="61" x="476.5" y="435.8467">Program</text><line style="stroke:#181818;stroke-width:0.5;" x1="448.5" x2="539.5" y1="447" y2="447"/><line style="stroke:#181818;stroke-width:0.5;" x1="448.5" x2="539.5" y1="455" y2="455"/></g><!--MD5=[4899ead58b536ff968fbcbdca857d192]
class Function--><g id="elem_Function"><rect codeLine="23" fill="#F1F1F1" height="48" id="Function" rx="2.5" ry="2.5" style="stroke:#181818;stroke-width:0.5;" width="94" x="7" y="523"/><ellipse cx="22" cy="539" fill="#ADD1B2" rx="11" ry="11" style="stroke:#181818;stroke-width:1.0;"/><path d="M24.3438,534.6719 C23.4063,534.2344 22.8125,534.0938 21.9375,534.0938 C19.3125,534.0938 17.3125,536.1719 17.3125,538.8906 L17.3125,540.0156 C17.3125,542.5938 19.4219,544.4844 22.3125,544.4844 C23.5313,544.4844 24.6875,544.1875 25.4375,543.6406 C26.0156,543.2344 26.3438,542.7813 26.3438,542.3906 C26.3438,541.9375 25.9531,541.5469 25.4844,541.5469 C25.2656,541.5469 25.0625,541.625 24.875,541.8125 C24.4219,542.2969 24.4219,542.2969 24.2344,542.3906 C23.8125,542.6563 23.125,542.7813 22.3594,542.7813 C20.3125,542.7813 19.0156,541.6875 19.0156,539.9844 L19.0156,538.8906 C19.0156,537.1094 20.2656,535.7969 22,535.7969 C22.5781,535.7969 23.1875,535.9531 23.6563,536.2031 C24.1406,536.4844 24.3125,536.7031 24.4063,537.1094 C24.4688,537.5156 24.5,537.6406 24.6406,537.7656 C24.7813,537.9063 25.0156,538.0156 25.2344,538.0156 C25.5,538.0156 25.7656,537.875 25.9375,537.6563 C26.0469,537.5 26.0781,537.3125 26.0781,536.8906 L26.0781,535.4688 C26.0781,535.0313 26.0625,534.9063 25.9688,534.75 C25.8125,534.4844 25.5313,534.3438 25.2344,534.3438 C24.9375,534.3438 24.7344,534.4375 24.5156,534.75 L24.3438,534.6719 Z " fill="#000000"/><text fill="#000000" font-family="sans-serif" font-size="14" lengthAdjust="spacing" textLength="62" x="36" y="543.8467">Function</text><line style="stroke:#181818;stroke-width:0.5;" x1="8" x2="100" y1="555" y2="555"/><line style="stroke:#181818;stroke-width:0.5;" x1="8" x2="100" y1="563" y2="563"/></g><!--MD5=[41551846f6188bda91d8f13198577e1a]
class Subroutine--><g id="elem_Subroutine"><rect codeLine="26" fill="#F1F1F1" height="48" id="Subroutine" rx="2.5" ry="2.5" style="stroke:#181818;stroke-width:0.5;" width="111" x="136.5" y="523"/><ellipse cx="151.5" cy="539" fill="#ADD1B2" rx="11" ry="11" style="stroke:#181818;stroke-width:1.0;"/><path d="M153.8438,534.6719 C152.9063,534.2344 152.3125,534.0938 151.4375,534.0938 C148.8125,534.0938 146.8125,536.1719 146.8125,538.8906 L146.8125,540.0156 C146.8125,542.5938 148.9219,544.4844 151.8125,544.4844 C153.0313,544.4844 154.1875,544.1875 154.9375,543.6406 C155.5156,543.2344 155.8438,542.7813 155.8438,542.3906 C155.8438,541.9375 155.4531,541.5469 154.9844,541.5469 C154.7656,541.5469 154.5625,541.625 154.375,541.8125 C153.9219,542.2969 153.9219,542.2969 153.7344,542.3906 C153.3125,542.6563 152.625,542.7813 151.8594,542.7813 C149.8125,542.7813 148.5156,541.6875 148.5156,539.9844 L148.5156,538.8906 C148.5156,537.1094 149.7656,535.7969 151.5,535.7969 C152.0781,535.7969 152.6875,535.9531 153.1563,536.2031 C153.6406,536.4844 153.8125,536.7031 153.9063,537.1094 C153.9688,537.5156 154,537.6406 154.1406,537.7656 C154.2813,537.9063 154.5156,538.0156 154.7344,538.0156 C155,538.0156 155.2656,537.875 155.4375,537.6563 C155.5469,537.5 155.5781,537.3125 155.5781,536.8906 L155.5781,535.4688 C155.5781,535.0313 155.5625,534.9063 155.4688,534.75 C155.3125,534.4844 155.0313,534.3438 154.7344,534.3438 C154.4375,534.3438 154.2344,534.4375 154.0156,534.75 L153.8438,534.6719 Z " fill="#000000"/><text fill="#000000" font-family="sans-serif" font-size="14" lengthAdjust="spacing" textLength="79" x="165.5" y="543.8467">Subroutine</text><line style="stroke:#181818;stroke-width:0.5;" x1="137.5" x2="246.5" y1="555" y2="555"/><line style="stroke:#181818;stroke-width:0.5;" x1="137.5" x2="246.5" y1="563" y2="563"/></g><!--MD5=[c4abeb57a02df4256efc2a1795ff21a0]
class BlockData--><g id="elem_BlockData"><rect codeLine="29" fill="#F1F1F1" height="48" id="BlockData" rx="2.5" ry="2.5" style="stroke:#181818;stroke-width:0.5;" width="106" x="299" y="523"/><ellipse cx="314" cy="539" fill="#ADD1B2" rx="11" ry="11" style="stroke:#181818;stroke-width:1.0;"/><path d="M316.3438,534.6719 C315.4063,534.2344 314.8125,534.0938 313.9375,534.0938 C311.3125,534.0938 309.3125,536.1719 309.3125,538.8906 L309.3125,540.0156 C309.3125,542.5938 311.4219,544.4844 314.3125,544.4844 C315.5313,544.4844 316.6875,544.1875 317.4375,543.6406 C318.0156,543.2344 318.3438,542.7813 318.3438,542.3906 C318.3438,541.9375 317.9531,541.5469 317.4844,541.5469 C317.2656,541.5469 317.0625,541.625 316.875,541.8125 C316.4219,542.2969 316.4219,542.2969 316.2344,542.3906 C315.8125,542.6563 315.125,542.7813 314.3594,542.7813 C312.3125,542.7813 311.0156,541.6875 311.0156,539.9844 L311.0156,538.8906 C311.0156,537.1094 312.2656,535.7969 314,535.7969 C314.5781,535.7969 315.1875,535.9531 315.6563,536.2031 C316.1406,536.4844 316.3125,536.7031 316.4063,537.1094 C316.4688,537.5156 316.5,537.6406 316.6406,537.7656 C316.7813,537.9063 317.0156,538.0156 317.2344,538.0156 C317.5,538.0156 317.7656,537.875 317.9375,537.6563 C318.0469,537.5 318.0781,537.3125 318.0781,536.8906 L318.0781,535.4688 C318.0781,535.0313 318.0625,534.9063 317.9688,534.75 C317.8125,534.4844 317.5313,534.3438 317.2344,534.3438 C316.9375,534.3438 316.7344,534.4375 316.5156,534.75 L316.3438,534.6719 Z " fill="#000000"/><text fill="#000000" font-family="sans-serif" font-size="14" lengthAdjust="spacing" textLength="74" x="328" y="543.8467">BlockData</text><line style="stroke:#181818;stroke-width:0.5;" x1="300" x2="404" y1="555" y2="555"/><line style="stroke:#181818;stroke-width:0.5;" x1="300" x2="404" y1="563" y2="563"/></g><g id="elem_GMN1993413"><path d="M458,6 L458,98 L423.191,102 L458,106 L458,197.5938 A0,0 0 0 0 458,197.5938 L1218,197.5938 A0,0 0 0 0 1218,197.5938 L1218,16 L1208,6 L458,6 A0,0 0 0 0 458,6 " fill="#FEFFDD" style="stroke:#181818;stroke-width:0.5;"/><path d="M1208,6 L1208,16 L1218,16 L1208,6 " fill="#FEFFDD" style="stroke:#181818;stroke-width:0.5;"/><text fill="#000000" font-family="sans-serif" font-size="13" lengthAdjust="spacing" textLength="476" x="464" y="23.0669">A complete program (ProgramFile) consists of one or more program units.</text><text fill="#000000" font-family="sans-serif" font-size="13" lengthAdjust="spacing" textLength="495" x="464" y="38.1997">There is exactly one main program which begins with a PROGRAM statement</text><text fill="#000000" font-family="sans-serif" font-size="13" lengthAdjust="spacing" textLength="4" x="464" y="53.3325"> </text><text fill="#000000" font-family="sans-serif" font-size="13" lengthAdjust="spacing" textLength="143" x="464" y="68.4653">PROGRAM main-name</text><text fill="#000000" font-family="sans-serif" font-size="13" lengthAdjust="spacing" textLength="4" x="464" y="83.5981"> </text><text fill="#000000" font-family="sans-serif" font-size="13" lengthAdjust="spacing" textLength="543" x="464" y="98.731">This statement appears only at the beginning of the main program and the symbolic</text><text fill="#000000" font-family="sans-serif" font-size="13" lengthAdjust="spacing" textLength="542" x="464" y="113.8638">name main-name must be unique (not used elsewhere in any of the program units).</text><text fill="#000000" font-family="sans-serif" font-size="13" lengthAdjust="spacing" textLength="4" x="464" y="128.9966"> </text><text fill="#000000" font-family="sans-serif" font-size="13" lengthAdjust="spacing" textLength="739" x="464" y="144.1294">There may also be any number of external procedures (functions and subroutines) and BLOCK DATA subprograms.</text><text fill="#000000" font-family="sans-serif" font-size="13" lengthAdjust="spacing" textLength="346" x="464" y="159.2622">Every program unit must end with an END statement.</text><text fill="#000000" font-family="sans-serif" font-size="13" lengthAdjust="spacing" textLength="4" x="464" y="174.395"> </text><text fill="#000000" font-family="sans-serif" font-size="13" lengthAdjust="spacing" textLength="27" x="464" y="189.5278">END</text></g><!--MD5=[0676711550a397fc77012bfb524fd6b2]
reverse link ProgramFile to ProgramUnit--><g id="link_ProgramFile_ProgramUnit"><path codeLine="33" d="M352,155.526 C352,187.172 352,227.156 352,257.88 " fill="none" id="ProgramFile-backto-ProgramUnit" style="stroke:#181818;stroke-width:1.0;"/><polygon fill="#181818" points="352,142.525,348,148.525,352,154.525,356,148.525,352,142.525" style="stroke:#181818;stroke-width:1.0;"/><text fill="#000000" font-family="sans-serif" font-size="13" lengthAdjust="spacing" textLength="8" x="343.3625" y="162.2888">1</text><text fill="#000000" font-family="sans-serif" font-size="13" lengthAdjust="spacing" textLength="23" x="327.3828" y="247.072">1..*</text></g><!--MD5=[29f81dd539f246bed4a2c24ef1be00e0]
reverse link ProgramUnit to Program--><g id="link_ProgramUnit_Program"><path codeLine="35" d="M419.054,369.124 C436.706,385.346 454.684,401.868 468.606,414.662 " fill="none" id="ProgramUnit-backto-Program" style="stroke:#181818;stroke-width:1.0;"/><polygon fill="none" points="414.058,374.04,404.069,355.352,423.532,363.732,414.058,374.04" style="stroke:#181818;stroke-width:1.0;"/></g><!--MD5=[c2e4bc6164f777ffcab641b15792ac44]
reverse link ProgramUnit to SubProgram--><g id="link_ProgramUnit_SubProgram"><path codeLine="36" d="M352,375.733 C352,389.76 352,403.604 352,414.662 " fill="none" id="ProgramUnit-backto-SubProgram" style="stroke:#181818;stroke-width:1.0;"/><polygon fill="none" points="345,375.352,352,355.352,359,375.352,345,375.352" style="stroke:#181818;stroke-width:1.0;"/></g><!--MD5=[d447c8460a23ba7a3b73a77d528d5bed]
reverse link ProgramUnit to ExternalProcedure--><g id="link_ProgramUnit_ExternalProcedure"><path codeLine="37" d="M271.185,367.084 C248.141,384.074 224.397,401.581 206.265,414.949 " fill="none" id="ProgramUnit-backto-ExternalProcedure" style="stroke:#181818;stroke-width:1.0;"/><polygon fill="none" points="267.096,361.402,287.348,355.167,275.404,372.67,267.096,361.402" style="stroke:#181818;stroke-width:1.0;"/></g><!--MD5=[55d15bf54f244cd1fe09b4c76a59e5d1]
reverse link ExternalProcedure to Function--><g id="link_ExternalProcedure_Function"><path codeLine="38" d="M133.519,476.3383 C116.005,491.6813 96.1239,509.098 80.6218,522.6784 " fill="none" id="ExternalProcedure-backto-Function" style="stroke:#181818;stroke-width:1.0;"/><polygon fill="none" points="129.088,470.914,148.745,463,138.314,481.4447,129.088,470.914" style="stroke:#181818;stroke-width:1.0;"/></g><!--MD5=[81705ca10af9e66d20b90faa26a08fca]
reverse link ExternalProcedure to Subroutine--><g id="link_ExternalProcedure_Subroutine"><path codeLine="39" d="M181.9,483.0236 C184.074,496.5792 186.393,511.0381 188.26,522.6784 " fill="none" id="ExternalProcedure-backto-Subroutine" style="stroke:#181818;stroke-width:1.0;"/><polygon fill="none" points="174.944,483.8566,178.689,463,188.768,481.6396,174.944,483.8566" style="stroke:#181818;stroke-width:1.0;"/></g><!--MD5=[49875c3c0b38f6192ebf7ac9ad1bd60a]
reverse link SubProgram to BlockData--><g id="link_SubProgram_BlockData"><path codeLine="40" d="M352,483.0236 C352,496.5792 352,511.0381 352,522.6784 " fill="none" id="SubProgram-backto-BlockData" style="stroke:#181818;stroke-width:1.0;"/><polygon fill="none" points="345,483.0005,352,463,359,483.0004,345,483.0005" style="stroke:#181818;stroke-width:1.0;"/></g><!--MD5=[40b7c23f8ded2fa73432531ce4e840fd]
@startuml
' defineClass
class ProgramFile{
    + filename: String
    + version: String
}

abstract class ProgramUnit{
    + name: String
    + srcSpan: String
    + comment: String
}


abstract class ExternalProcedure{
}

abstract class SubProgram{
}

class Program{
}

class Function{
}

class Subroutine{
}

class BlockData{
}

' defineHierarchy
ProgramFile "1" *- - "1..*" ProgramUnit

ProgramUnit <|- - Program
ProgramUnit <|- - SubProgram
ProgramUnit <|- - ExternalProcedure
ExternalProcedure <|- - Function
ExternalProcedure <|- - Subroutine
SubProgram <|- - BlockData

' defineComment
note right of ProgramFile: A complete program (ProgramFile) consists of one or more program units.\nThere is exactly one main program which begins with a PROGRAM statement\n\nPROGRAM main-name\n\nThis statement appears only at the beginning of the main program and the symbolic\nname main-name must be unique (not used elsewhere in any of the program units).\n\nThere may also be any number of external procedures (functions and subroutines) and BLOCK DATA subprograms.\nEvery program unit must end with an END statement.\n\nEND
@enduml

@startuml
class ProgramFile{
    + filename: String
    + version: String
}

abstract class ProgramUnit{
    + name: String
    + srcSpan: String
    + comment: String
}


abstract class ExternalProcedure{
}

abstract class SubProgram{
}

class Program{
}

class Function{
}

class Subroutine{
}

class BlockData{
}

ProgramFile "1" *- - "1..*" ProgramUnit

ProgramUnit <|- - Program
ProgramUnit <|- - SubProgram
ProgramUnit <|- - ExternalProcedure
ExternalProcedure <|- - Function
ExternalProcedure <|- - Subroutine
SubProgram <|- - BlockData

note right of ProgramFile: A complete program (ProgramFile) consists of one or more program units.\nThere is exactly one main program which begins with a PROGRAM statement\n\nPROGRAM main-name\n\nThis statement appears only at the beginning of the main program and the symbolic\nname main-name must be unique (not used elsewhere in any of the program units).\n\nThere may also be any number of external procedures (functions and subroutines) and BLOCK DATA subprograms.\nEvery program unit must end with an END statement.\n\nEND
@enduml

PlantUML version 1.2022.5(Sat Apr 30 10:55:52 UTC 2022)
(GPL source distribution)
Java Runtime: Java(TM) SE Runtime Environment
JVM: Java HotSpot(TM) 64-Bit Server VM
Default Encoding: UTF-8
Language: en
Country: US
--></g></svg>