<?xml version="1.0" encoding="UTF-8" standalone="no"?>
<svg xmlns="http://www.w3.org/2000/svg" xmlns:xlink="http://www.w3.org/1999/xlink" contentStyleType="text/css" height="230px" preserveAspectRatio="none" style="width:1084px;height:230px;background:#FFFFFF;" version="1.1" viewBox="0 0 1084 230" width="1084px" zoomAndPan="magnify"><defs/><g><!--MD5=[1e667c6ad6db7468aaf1f24fbbf1ec5d]
class Variable--><g id="elem_Variable"><rect codeLine="11" fill="#FFFFFF" height="32" id="Variable" rx="2.5" ry="2.5" style="stroke:#A9A9A9;stroke-width:0.5;" width="91" x="164.5" y="99"/><ellipse cx="179.5" cy="115" fill="#FFFFFF" rx="11" ry="11" style="stroke:#A9A9A9;stroke-width:1.0;"/><path d="M181.8438,110.6719 C180.9063,110.2344 180.3125,110.0938 179.4375,110.0938 C176.8125,110.0938 174.8125,112.1719 174.8125,114.8906 L174.8125,116.0156 C174.8125,118.5938 176.9219,120.4844 179.8125,120.4844 C181.0313,120.4844 182.1875,120.1875 182.9375,119.6406 C183.5156,119.2344 183.8438,118.7813 183.8438,118.3906 C183.8438,117.9375 183.4531,117.5469 182.9844,117.5469 C182.7656,117.5469 182.5625,117.625 182.375,117.8125 C181.9219,118.2969 181.9219,118.2969 181.7344,118.3906 C181.3125,118.6563 180.625,118.7813 179.8594,118.7813 C177.8125,118.7813 176.5156,117.6875 176.5156,115.9844 L176.5156,114.8906 C176.5156,113.1094 177.7656,111.7969 179.5,111.7969 C180.0781,111.7969 180.6875,111.9531 181.1563,112.2031 C181.6406,112.4844 181.8125,112.7031 181.9063,113.1094 C181.9688,113.5156 182,113.6406 182.1406,113.7656 C182.2813,113.9063 182.5156,114.0156 182.7344,114.0156 C183,114.0156 183.2656,113.875 183.4375,113.6563 C183.5469,113.5 183.5781,113.3125 183.5781,112.8906 L183.5781,111.4688 C183.5781,111.0313 183.5625,110.9063 183.4688,110.75 C183.3125,110.4844 183.0313,110.3438 182.7344,110.3438 C182.4375,110.3438 182.2344,110.4375 182.0156,110.75 L181.8438,110.6719 Z " fill="#000000"/><text fill="#000000" font-family="sans-serif" font-size="14" lengthAdjust="spacing" textLength="59" x="193.5" y="119.8467">Variable</text></g><!--MD5=[1f6362a5c8f21d8d6a0fce68f3a92a4e]
class Parameter--><g id="elem_Parameter"><rect codeLine="13" fill="#FFFFFF" height="32" id="Parameter" rx="2.5" ry="2.5" style="stroke:#A9A9A9;stroke-width:0.5;" width="108" x="156" y="191"/><ellipse cx="171" cy="207" fill="#FFFFFF" rx="11" ry="11" style="stroke:#A9A9A9;stroke-width:1.0;"/><path d="M173.3438,202.6719 C172.4063,202.2344 171.8125,202.0938 170.9375,202.0938 C168.3125,202.0938 166.3125,204.1719 166.3125,206.8906 L166.3125,208.0156 C166.3125,210.5938 168.4219,212.4844 171.3125,212.4844 C172.5313,212.4844 173.6875,212.1875 174.4375,211.6406 C175.0156,211.2344 175.3438,210.7813 175.3438,210.3906 C175.3438,209.9375 174.9531,209.5469 174.4844,209.5469 C174.2656,209.5469 174.0625,209.625 173.875,209.8125 C173.4219,210.2969 173.4219,210.2969 173.2344,210.3906 C172.8125,210.6563 172.125,210.7813 171.3594,210.7813 C169.3125,210.7813 168.0156,209.6875 168.0156,207.9844 L168.0156,206.8906 C168.0156,205.1094 169.2656,203.7969 171,203.7969 C171.5781,203.7969 172.1875,203.9531 172.6563,204.2031 C173.1406,204.4844 173.3125,204.7031 173.4063,205.1094 C173.4688,205.5156 173.5,205.6406 173.6406,205.7656 C173.7813,205.9063 174.0156,206.0156 174.2344,206.0156 C174.5,206.0156 174.7656,205.875 174.9375,205.6563 C175.0469,205.5 175.0781,205.3125 175.0781,204.8906 L175.0781,203.4688 C175.0781,203.0313 175.0625,202.9063 174.9688,202.75 C174.8125,202.4844 174.5313,202.3438 174.2344,202.3438 C173.9375,202.3438 173.7344,202.4375 173.5156,202.75 L173.3438,202.6719 Z " fill="#000000"/><text fill="#000000" font-family="sans-serif" font-size="14" lengthAdjust="spacing" textLength="76" x="185" y="211.8467">Parameter</text></g><!--MD5=[ba0b076db93d138edbc03591820c5240]
class PUBlockData--><g id="elem_PUBlockData"><rect codeLine="15" fill="#FFFFFF" height="32" id="PUBlockData" rx="2.5" ry="2.5" style="stroke:#A9A9A9;stroke-width:0.5;" width="124" x="409" y="99"/><ellipse cx="424" cy="115" fill="#FFFFFF" rx="11" ry="11" style="stroke:#A9A9A9;stroke-width:1.0;"/><path d="M426.3438,110.6719 C425.4063,110.2344 424.8125,110.0938 423.9375,110.0938 C421.3125,110.0938 419.3125,112.1719 419.3125,114.8906 L419.3125,116.0156 C419.3125,118.5938 421.4219,120.4844 424.3125,120.4844 C425.5313,120.4844 426.6875,120.1875 427.4375,119.6406 C428.0156,119.2344 428.3438,118.7813 428.3438,118.3906 C428.3438,117.9375 427.9531,117.5469 427.4844,117.5469 C427.2656,117.5469 427.0625,117.625 426.875,117.8125 C426.4219,118.2969 426.4219,118.2969 426.2344,118.3906 C425.8125,118.6563 425.125,118.7813 424.3594,118.7813 C422.3125,118.7813 421.0156,117.6875 421.0156,115.9844 L421.0156,114.8906 C421.0156,113.1094 422.2656,111.7969 424,111.7969 C424.5781,111.7969 425.1875,111.9531 425.6563,112.2031 C426.1406,112.4844 426.3125,112.7031 426.4063,113.1094 C426.4688,113.5156 426.5,113.6406 426.6406,113.7656 C426.7813,113.9063 427.0156,114.0156 427.2344,114.0156 C427.5,114.0156 427.7656,113.875 427.9375,113.6563 C428.0469,113.5 428.0781,113.3125 428.0781,112.8906 L428.0781,111.4688 C428.0781,111.0313 428.0625,110.9063 427.9688,110.75 C427.8125,110.4844 427.5313,110.3438 427.2344,110.3438 C426.9375,110.3438 426.7344,110.4375 426.5156,110.75 L426.3438,110.6719 Z " fill="#000000"/><text fill="#000000" font-family="sans-serif" font-size="14" lengthAdjust="spacing" textLength="92" x="438" y="119.8467">PUBlockData</text></g><!--MD5=[d55811ece5c0a284edf5c7ed1a809bc5]
class PUComment--><g id="elem_PUComment"><rect codeLine="17" fill="#FFFFFF" height="32" id="PUComment" rx="2.5" ry="2.5" style="stroke:#A9A9A9;stroke-width:0.5;" width="122" x="7" y="99"/><ellipse cx="22" cy="115" fill="#FFFFFF" rx="11" ry="11" style="stroke:#A9A9A9;stroke-width:1.0;"/><path d="M24.3438,110.6719 C23.4063,110.2344 22.8125,110.0938 21.9375,110.0938 C19.3125,110.0938 17.3125,112.1719 17.3125,114.8906 L17.3125,116.0156 C17.3125,118.5938 19.4219,120.4844 22.3125,120.4844 C23.5313,120.4844 24.6875,120.1875 25.4375,119.6406 C26.0156,119.2344 26.3438,118.7813 26.3438,118.3906 C26.3438,117.9375 25.9531,117.5469 25.4844,117.5469 C25.2656,117.5469 25.0625,117.625 24.875,117.8125 C24.4219,118.2969 24.4219,118.2969 24.2344,118.3906 C23.8125,118.6563 23.125,118.7813 22.3594,118.7813 C20.3125,118.7813 19.0156,117.6875 19.0156,115.9844 L19.0156,114.8906 C19.0156,113.1094 20.2656,111.7969 22,111.7969 C22.5781,111.7969 23.1875,111.9531 23.6563,112.2031 C24.1406,112.4844 24.3125,112.7031 24.4063,113.1094 C24.4688,113.5156 24.5,113.6406 24.6406,113.7656 C24.7813,113.9063 25.0156,114.0156 25.2344,114.0156 C25.5,114.0156 25.7656,113.875 25.9375,113.6563 C26.0469,113.5 26.0781,113.3125 26.0781,112.8906 L26.0781,111.4688 C26.0781,111.0313 26.0625,110.9063 25.9688,110.75 C25.8125,110.4844 25.5313,110.3438 25.2344,110.3438 C24.9375,110.3438 24.7344,110.4375 24.5156,110.75 L24.3438,110.6719 Z " fill="#000000"/><text fill="#000000" font-family="sans-serif" font-size="14" lengthAdjust="spacing" textLength="90" x="36" y="119.8467">PUComment</text></g><!--MD5=[2437d3a34fb3dbe68496b3ed46b1c3cf]
class PUModule--><g id="elem_PUModule"><rect codeLine="19" fill="#FFFFFF" height="32" id="PUModule" rx="2.5" ry="2.5" style="stroke:#A9A9A9;stroke-width:0.5;" width="101" x="568.5" y="99"/><ellipse cx="583.5" cy="115" fill="#FFFFFF" rx="11" ry="11" style="stroke:#A9A9A9;stroke-width:1.0;"/><path d="M585.8438,110.6719 C584.9063,110.2344 584.3125,110.0938 583.4375,110.0938 C580.8125,110.0938 578.8125,112.1719 578.8125,114.8906 L578.8125,116.0156 C578.8125,118.5938 580.9219,120.4844 583.8125,120.4844 C585.0313,120.4844 586.1875,120.1875 586.9375,119.6406 C587.5156,119.2344 587.8438,118.7813 587.8438,118.3906 C587.8438,117.9375 587.4531,117.5469 586.9844,117.5469 C586.7656,117.5469 586.5625,117.625 586.375,117.8125 C585.9219,118.2969 585.9219,118.2969 585.7344,118.3906 C585.3125,118.6563 584.625,118.7813 583.8594,118.7813 C581.8125,118.7813 580.5156,117.6875 580.5156,115.9844 L580.5156,114.8906 C580.5156,113.1094 581.7656,111.7969 583.5,111.7969 C584.0781,111.7969 584.6875,111.9531 585.1563,112.2031 C585.6406,112.4844 585.8125,112.7031 585.9063,113.1094 C585.9688,113.5156 586,113.6406 586.1406,113.7656 C586.2813,113.9063 586.5156,114.0156 586.7344,114.0156 C587,114.0156 587.2656,113.875 587.4375,113.6563 C587.5469,113.5 587.5781,113.3125 587.5781,112.8906 L587.5781,111.4688 C587.5781,111.0313 587.5625,110.9063 587.4688,110.75 C587.3125,110.4844 587.0313,110.3438 586.7344,110.3438 C586.4375,110.3438 586.2344,110.4375 586.0156,110.75 L585.8438,110.6719 Z " fill="#000000"/><text fill="#000000" font-family="sans-serif" font-size="14" lengthAdjust="spacing" textLength="69" x="597.5" y="119.8467">PUModule</text></g><!--MD5=[3005aed9f497994e92e750d9a1cd63b4]
class ExternalProcedure--><g id="elem_ExternalProcedure"><rect codeLine="21" fill="#FFFFFF" height="32" id="ExternalProcedure" rx="2.5" ry="2.5" style="stroke:#A9A9A9;stroke-width:0.5;" width="165" x="704.5" y="99"/><ellipse cx="719.5" cy="115" fill="#FFFFFF" rx="11" ry="11" style="stroke:#A9A9A9;stroke-width:1.0;"/><path d="M721.8438,110.6719 C720.9063,110.2344 720.3125,110.0938 719.4375,110.0938 C716.8125,110.0938 714.8125,112.1719 714.8125,114.8906 L714.8125,116.0156 C714.8125,118.5938 716.9219,120.4844 719.8125,120.4844 C721.0313,120.4844 722.1875,120.1875 722.9375,119.6406 C723.5156,119.2344 723.8438,118.7813 723.8438,118.3906 C723.8438,117.9375 723.4531,117.5469 722.9844,117.5469 C722.7656,117.5469 722.5625,117.625 722.375,117.8125 C721.9219,118.2969 721.9219,118.2969 721.7344,118.3906 C721.3125,118.6563 720.625,118.7813 719.8594,118.7813 C717.8125,118.7813 716.5156,117.6875 716.5156,115.9844 L716.5156,114.8906 C716.5156,113.1094 717.7656,111.7969 719.5,111.7969 C720.0781,111.7969 720.6875,111.9531 721.1563,112.2031 C721.6406,112.4844 721.8125,112.7031 721.9063,113.1094 C721.9688,113.5156 722,113.6406 722.1406,113.7656 C722.2813,113.9063 722.5156,114.0156 722.7344,114.0156 C723,114.0156 723.2656,113.875 723.4375,113.6563 C723.5469,113.5 723.5781,113.3125 723.5781,112.8906 L723.5781,111.4688 C723.5781,111.0313 723.5625,110.9063 723.4688,110.75 C723.3125,110.4844 723.0313,110.3438 722.7344,110.3438 C722.4375,110.3438 722.2344,110.4375 722.0156,110.75 L721.8438,110.6719 Z " fill="#000000"/><text fill="#000000" font-family="sans-serif" font-size="14" lengthAdjust="spacing" textLength="133" x="733.5" y="119.8467">ExternalProcedure</text></g><!--MD5=[64f93aa6192b8fc80f735f8517c11651]
class TWithProgramUnits--><g id="elem_TWithProgramUnits"><rect codeLine="23" fill="#FFFFFF" height="32" id="TWithProgramUnits" rx="2.5" ry="2.5" style="stroke:#A9A9A9;stroke-width:0.5;" width="172" x="905" y="99"/><ellipse cx="920" cy="115" fill="#D3D3D3" rx="11" ry="11" style="stroke:#A9A9A9;stroke-width:1.0;"/><path d="M920.4375,112.5313 L922.2813,112.5313 L922.2813,114.125 C922.2813,114.5156 922.3125,114.6875 922.4063,114.8281 C922.5625,115.0781 922.8438,115.2344 923.1406,115.2344 C923.4063,115.2344 923.6563,115.1094 923.8281,114.8906 C923.9688,114.7188 923.9844,114.5938 923.9844,114.125 L923.9844,110.8438 L915.2188,110.8438 L915.2188,114.125 C915.2188,114.5156 915.25,114.6875 915.3281,114.8281 C915.4844,115.0938 915.7813,115.2344 916.0625,115.2344 C916.3438,115.2344 916.5938,115.1094 916.7656,114.8906 C916.875,114.7188 916.9063,114.5781 916.9063,114.125 L916.9063,112.5313 L918.7344,112.5313 L918.7344,119.0469 L917.625,119.0469 C917.1875,119.0469 917.0625,119.0625 916.9063,119.1719 C916.6563,119.3281 916.5,119.6094 916.5,119.9063 C916.5,120.1563 916.6406,120.4219 916.8594,120.5781 C917.0156,120.7031 917.2344,120.75 917.625,120.75 L921.5625,120.75 C921.8906,120.75 922.1563,120.7031 922.2656,120.625 C922.5313,120.4844 922.6719,120.1875 922.6719,119.9063 C922.6719,119.625 922.5469,119.375 922.3125,119.2031 C922.1563,119.0781 922.0156,119.0469 921.5625,119.0469 L920.4375,119.0469 L920.4375,112.5313 Z " fill="#000000"/><text fill="#000000" font-family="sans-serif" font-size="14" lengthAdjust="spacing" textLength="140" x="934" y="119.8467">TWithProgramUnits</text></g><!--MD5=[be996cdb8e6bf2fc7cb89c555f2cd144]
class Entity--><g id="elem_Entity"><rect codeLine="25" fill="#FFFFFF" height="32" id="Entity" rx="2.5" ry="2.5" style="stroke:#A9A9A9;stroke-width:0.5;" width="76" x="363" y="7"/><ellipse cx="378" cy="23" fill="#FFFFFF" rx="11" ry="11" style="stroke:#A9A9A9;stroke-width:1.0;"/><path d="M380.3438,18.6719 C379.4063,18.2344 378.8125,18.0938 377.9375,18.0938 C375.3125,18.0938 373.3125,20.1719 373.3125,22.8906 L373.3125,24.0156 C373.3125,26.5938 375.4219,28.4844 378.3125,28.4844 C379.5313,28.4844 380.6875,28.1875 381.4375,27.6406 C382.0156,27.2344 382.3438,26.7813 382.3438,26.3906 C382.3438,25.9375 381.9531,25.5469 381.4844,25.5469 C381.2656,25.5469 381.0625,25.625 380.875,25.8125 C380.4219,26.2969 380.4219,26.2969 380.2344,26.3906 C379.8125,26.6563 379.125,26.7813 378.3594,26.7813 C376.3125,26.7813 375.0156,25.6875 375.0156,23.9844 L375.0156,22.8906 C375.0156,21.1094 376.2656,19.7969 378,19.7969 C378.5781,19.7969 379.1875,19.9531 379.6563,20.2031 C380.1406,20.4844 380.3125,20.7031 380.4063,21.1094 C380.4688,21.5156 380.5,21.6406 380.6406,21.7656 C380.7813,21.9063 381.0156,22.0156 381.2344,22.0156 C381.5,22.0156 381.7656,21.875 381.9375,21.6563 C382.0469,21.5 382.0781,21.3125 382.0781,20.8906 L382.0781,19.4688 C382.0781,19.0313 382.0625,18.9063 381.9688,18.75 C381.8125,18.4844 381.5313,18.3438 381.2344,18.3438 C380.9375,18.3438 380.7344,18.4375 380.5156,18.75 L380.3438,18.6719 Z " fill="#000000"/><text fill="#000000" font-family="sans-serif" font-size="14" lengthAdjust="spacing" textLength="44" x="392" y="27.8467">Entity</text></g><!--MD5=[e557ae1927c86856899f5f7efbfa5cdb]
class PUMain--><g id="elem_PUMain"><rect codeLine="27" fill="#FFFFFF" height="32" id="PUMain" rx="2.5" ry="2.5" style="stroke:#A9A9A9;stroke-width:0.5;" width="83" x="290.5" y="99"/><ellipse cx="305.5" cy="115" fill="#FFFFFF" rx="11" ry="11" style="stroke:#A9A9A9;stroke-width:1.0;"/><path d="M307.8438,110.6719 C306.9063,110.2344 306.3125,110.0938 305.4375,110.0938 C302.8125,110.0938 300.8125,112.1719 300.8125,114.8906 L300.8125,116.0156 C300.8125,118.5938 302.9219,120.4844 305.8125,120.4844 C307.0313,120.4844 308.1875,120.1875 308.9375,119.6406 C309.5156,119.2344 309.8438,118.7813 309.8438,118.3906 C309.8438,117.9375 309.4531,117.5469 308.9844,117.5469 C308.7656,117.5469 308.5625,117.625 308.375,117.8125 C307.9219,118.2969 307.9219,118.2969 307.7344,118.3906 C307.3125,118.6563 306.625,118.7813 305.8594,118.7813 C303.8125,118.7813 302.5156,117.6875 302.5156,115.9844 L302.5156,114.8906 C302.5156,113.1094 303.7656,111.7969 305.5,111.7969 C306.0781,111.7969 306.6875,111.9531 307.1563,112.2031 C307.6406,112.4844 307.8125,112.7031 307.9063,113.1094 C307.9688,113.5156 308,113.6406 308.1406,113.7656 C308.2813,113.9063 308.5156,114.0156 308.7344,114.0156 C309,114.0156 309.2656,113.875 309.4375,113.6563 C309.5469,113.5 309.5781,113.3125 309.5781,112.8906 L309.5781,111.4688 C309.5781,111.0313 309.5625,110.9063 309.4688,110.75 C309.3125,110.4844 309.0313,110.3438 308.7344,110.3438 C308.4375,110.3438 308.2344,110.4375 308.0156,110.75 L307.8438,110.6719 Z " fill="#000000"/><text fill="#000000" font-family="sans-serif" font-size="14" lengthAdjust="spacing" textLength="51" x="319.5" y="119.8467">PUMain</text></g><!--MD5=[62e1fdd4039d2da13d8ca499fe0f8c10]
class PUFunction--><g id="elem_PUFunction"><rect codeLine="29" fill="#FFFFFF" height="32" id="PUFunction" rx="2.5" ry="2.5" style="stroke:#A9A9A9;stroke-width:0.5;" width="112" x="804" y="191"/><ellipse cx="819" cy="207" fill="#FFFFFF" rx="11" ry="11" style="stroke:#A9A9A9;stroke-width:1.0;"/><path d="M821.3438,202.6719 C820.4063,202.2344 819.8125,202.0938 818.9375,202.0938 C816.3125,202.0938 814.3125,204.1719 814.3125,206.8906 L814.3125,208.0156 C814.3125,210.5938 816.4219,212.4844 819.3125,212.4844 C820.5313,212.4844 821.6875,212.1875 822.4375,211.6406 C823.0156,211.2344 823.3438,210.7813 823.3438,210.3906 C823.3438,209.9375 822.9531,209.5469 822.4844,209.5469 C822.2656,209.5469 822.0625,209.625 821.875,209.8125 C821.4219,210.2969 821.4219,210.2969 821.2344,210.3906 C820.8125,210.6563 820.125,210.7813 819.3594,210.7813 C817.3125,210.7813 816.0156,209.6875 816.0156,207.9844 L816.0156,206.8906 C816.0156,205.1094 817.2656,203.7969 819,203.7969 C819.5781,203.7969 820.1875,203.9531 820.6563,204.2031 C821.1406,204.4844 821.3125,204.7031 821.4063,205.1094 C821.4688,205.5156 821.5,205.6406 821.6406,205.7656 C821.7813,205.9063 822.0156,206.0156 822.2344,206.0156 C822.5,206.0156 822.7656,205.875 822.9375,205.6563 C823.0469,205.5 823.0781,205.3125 823.0781,204.8906 L823.0781,203.4688 C823.0781,203.0313 823.0625,202.9063 822.9688,202.75 C822.8125,202.4844 822.5313,202.3438 822.2344,202.3438 C821.9375,202.3438 821.7344,202.4375 821.5156,202.75 L821.3438,202.6719 Z " fill="#000000"/><text fill="#000000" font-family="sans-serif" font-size="14" lengthAdjust="spacing" textLength="80" x="833" y="211.8467">PUFunction</text></g><!--MD5=[41551846f6188bda91d8f13198577e1a]
class Subroutine--><g id="elem_Subroutine"><rect codeLine="31" fill="#FFFFFF" height="32" id="Subroutine" rx="2.5" ry="2.5" style="stroke:#A9A9A9;stroke-width:0.5;" width="111" x="657.5" y="191"/><ellipse cx="672.5" cy="207" fill="#FFFFFF" rx="11" ry="11" style="stroke:#A9A9A9;stroke-width:1.0;"/><path d="M674.8438,202.6719 C673.9063,202.2344 673.3125,202.0938 672.4375,202.0938 C669.8125,202.0938 667.8125,204.1719 667.8125,206.8906 L667.8125,208.0156 C667.8125,210.5938 669.9219,212.4844 672.8125,212.4844 C674.0313,212.4844 675.1875,212.1875 675.9375,211.6406 C676.5156,211.2344 676.8438,210.7813 676.8438,210.3906 C676.8438,209.9375 676.4531,209.5469 675.9844,209.5469 C675.7656,209.5469 675.5625,209.625 675.375,209.8125 C674.9219,210.2969 674.9219,210.2969 674.7344,210.3906 C674.3125,210.6563 673.625,210.7813 672.8594,210.7813 C670.8125,210.7813 669.5156,209.6875 669.5156,207.9844 L669.5156,206.8906 C669.5156,205.1094 670.7656,203.7969 672.5,203.7969 C673.0781,203.7969 673.6875,203.9531 674.1563,204.2031 C674.6406,204.4844 674.8125,204.7031 674.9063,205.1094 C674.9688,205.5156 675,205.6406 675.1406,205.7656 C675.2813,205.9063 675.5156,206.0156 675.7344,206.0156 C676,206.0156 676.2656,205.875 676.4375,205.6563 C676.5469,205.5 676.5781,205.3125 676.5781,204.8906 L676.5781,203.4688 C676.5781,203.0313 676.5625,202.9063 676.4688,202.75 C676.3125,202.4844 676.0313,202.3438 675.7344,202.3438 C675.4375,202.3438 675.2344,202.4375 675.0156,202.75 L674.8438,202.6719 Z " fill="#000000"/><text fill="#000000" font-family="sans-serif" font-size="14" lengthAdjust="spacing" textLength="79" x="686.5" y="211.8467">Subroutine</text></g><!--MD5=[c797393b219d76159f484d3cb9debb30]
class FamixFortranModel--><g id="elem_FamixFortranModel"><rect codeLine="33" fill="#FFFFFF" height="32" id="FamixFortranModel" rx="2.5" ry="2.5" style="stroke:#A9A9A9;stroke-width:0.5;" width="170" x="720" y="7"/><ellipse cx="735" cy="23" fill="#FFFFFF" rx="11" ry="11" style="stroke:#A9A9A9;stroke-width:1.0;"/><path d="M737.3438,18.6719 C736.4063,18.2344 735.8125,18.0938 734.9375,18.0938 C732.3125,18.0938 730.3125,20.1719 730.3125,22.8906 L730.3125,24.0156 C730.3125,26.5938 732.4219,28.4844 735.3125,28.4844 C736.5313,28.4844 737.6875,28.1875 738.4375,27.6406 C739.0156,27.2344 739.3438,26.7813 739.3438,26.3906 C739.3438,25.9375 738.9531,25.5469 738.4844,25.5469 C738.2656,25.5469 738.0625,25.625 737.875,25.8125 C737.4219,26.2969 737.4219,26.2969 737.2344,26.3906 C736.8125,26.6563 736.125,26.7813 735.3594,26.7813 C733.3125,26.7813 732.0156,25.6875 732.0156,23.9844 L732.0156,22.8906 C732.0156,21.1094 733.2656,19.7969 735,19.7969 C735.5781,19.7969 736.1875,19.9531 736.6563,20.2031 C737.1406,20.4844 737.3125,20.7031 737.4063,21.1094 C737.4688,21.5156 737.5,21.6406 737.6406,21.7656 C737.7813,21.9063 738.0156,22.0156 738.2344,22.0156 C738.5,22.0156 738.7656,21.875 738.9375,21.6563 C739.0469,21.5 739.0781,21.3125 739.0781,20.8906 L739.0781,19.4688 C739.0781,19.0313 739.0625,18.9063 738.9688,18.75 C738.8125,18.4844 738.5313,18.3438 738.2344,18.3438 C737.9375,18.3438 737.7344,18.4375 737.5156,18.75 L737.3438,18.6719 Z " fill="#000000"/><text fill="#000000" font-family="sans-serif" font-size="14" lengthAdjust="spacing" textLength="138" x="749" y="27.8467">FamixFortranModel</text></g><!--MD5=[578a1097caabeea152e8061bdd841823]
class TProgramUnit--><g id="elem_TProgramUnit"><rect codeLine="35" fill="#FFFFFF" height="32" id="TProgramUnit" rx="2.5" ry="2.5" style="stroke:#A9A9A9;stroke-width:0.5;" width="131" x="553.5" y="7"/><ellipse cx="568.5" cy="23" fill="#D3D3D3" rx="11" ry="11" style="stroke:#A9A9A9;stroke-width:1.0;"/><path d="M568.9375,20.5313 L570.7813,20.5313 L570.7813,22.125 C570.7813,22.5156 570.8125,22.6875 570.9063,22.8281 C571.0625,23.0781 571.3438,23.2344 571.6406,23.2344 C571.9063,23.2344 572.1563,23.1094 572.3281,22.8906 C572.4688,22.7188 572.4844,22.5938 572.4844,22.125 L572.4844,18.8438 L563.7188,18.8438 L563.7188,22.125 C563.7188,22.5156 563.75,22.6875 563.8281,22.8281 C563.9844,23.0938 564.2813,23.2344 564.5625,23.2344 C564.8438,23.2344 565.0938,23.1094 565.2656,22.8906 C565.375,22.7188 565.4063,22.5781 565.4063,22.125 L565.4063,20.5313 L567.2344,20.5313 L567.2344,27.0469 L566.125,27.0469 C565.6875,27.0469 565.5625,27.0625 565.4063,27.1719 C565.1563,27.3281 565,27.6094 565,27.9063 C565,28.1563 565.1406,28.4219 565.3594,28.5781 C565.5156,28.7031 565.7344,28.75 566.125,28.75 L570.0625,28.75 C570.3906,28.75 570.6563,28.7031 570.7656,28.625 C571.0313,28.4844 571.1719,28.1875 571.1719,27.9063 C571.1719,27.625 571.0469,27.375 570.8125,27.2031 C570.6563,27.0781 570.5156,27.0469 570.0625,27.0469 L568.9375,27.0469 L568.9375,20.5313 Z " fill="#000000"/><text fill="#000000" font-family="sans-serif" font-size="14" lengthAdjust="spacing" textLength="99" x="582.5" y="27.8467">TProgramUnit</text></g><!--MD5=[32604e4b2596c50a3da98bd5e21903f3]
reverse link Entity to Variable--><g id="link_Entity_Variable"><path codeLine="38" d="M350.637,47.731 C316.249,63.935 271.719,84.918 242.073,98.887 " fill="none" id="Entity-backto-Variable" style="stroke:#000000;stroke-width:1.0;"/><polygon fill="none" points="347.955,41.257,369.031,39.064,353.923,53.921,347.955,41.257" style="stroke:#000000;stroke-width:1.0;"/></g><!--MD5=[c5f5da0011b7061d068a26cb6bc8cbaa]
reverse link Variable to Parameter--><g id="link_Variable_Parameter"><path codeLine="39" d="M210,151.6147 C210,165.3102 210,180.2196 210,190.9582 " fill="none" id="Variable-backto-Parameter" style="stroke:#000000;stroke-width:1.0;"/><polygon fill="none" points="203,151.2673,210,131.2673,217,151.2672,203,151.2673" style="stroke:#000000;stroke-width:1.0;"/></g><!--MD5=[1040389d63fb7e7d75aabd07f254458e]
reverse link Entity to PUBlockData--><g id="link_Entity_PUBlockData"><path codeLine="40" d="M425.274,55.209 C436.799,70.028 450.043,87.055 459.301,98.958 " fill="none" id="Entity-backto-PUBlockData" style="stroke:#000000;stroke-width:1.0;"/><polygon fill="none" points="419.628,59.352,412.875,39.267,430.679,50.757,419.628,59.352" style="stroke:#000000;stroke-width:1.0;"/></g><!--MD5=[668482ce755269149243fdbeb00c618d]
reverse link TProgramUnit to PUBlockData--><g id="link_TProgramUnit_PUBlockData"><path codeLine="41" d="M576.969,49.559 C550.777,65.487 517.97,85.437 495.853,98.887 " fill="none" id="TProgramUnit-backto-PUBlockData" style="stroke:#000000;stroke-width:1.0;stroke-dasharray:7.0,7.0;"/><polygon fill="none" points="573.503,43.475,594.228,39.064,580.777,55.437,573.503,43.475" style="stroke:#000000;stroke-width:1.0;"/></g><!--MD5=[ec30fefaf08f9e0703aa0b4b159a8053]
reverse link Entity to PUComment--><g id="link_Entity_PUComment"><path codeLine="42" d="M343.355,39.58 C281.702,56.243 184.601,82.486 123.704,98.945 " fill="none" id="Entity-backto-PUComment" style="stroke:#000000;stroke-width:1.0;"/><polygon fill="none" points="341.667,32.785,362.801,34.324,345.32,46.3,341.667,32.785" style="stroke:#000000;stroke-width:1.0;"/></g><!--MD5=[2c2b466890fbfb7d0e250be2b1cdaa02]
reverse link Entity to PUModule--><g id="link_Entity_PUModule"><path codeLine="43" d="M456.033,46.72 C495.597,63.054 547.848,84.625 582.393,98.887 " fill="none" id="Entity-backto-PUModule" style="stroke:#000000;stroke-width:1.0;"/><polygon fill="none" points="453.304,53.166,437.488,39.064,458.646,40.226,453.304,53.166" style="stroke:#000000;stroke-width:1.0;"/></g><!--MD5=[b1fbfdded338ee232a9c1e8cdbd5c8b6]
reverse link TProgramUnit to PUModule--><g id="link_TProgramUnit_PUModule"><path codeLine="44" d="M619,59.615 C619,73.31 619,88.22 619,98.958 " fill="none" id="TProgramUnit-backto-PUModule" style="stroke:#000000;stroke-width:1.0;stroke-dasharray:7.0,7.0;"/><polygon fill="none" points="612,59.267,619,39.267,626,59.267,612,59.267" style="stroke:#000000;stroke-width:1.0;"/></g><!--MD5=[4b9c8d9cf48f6d9986ac556982cf1136]
reverse link Entity to ExternalProcedure--><g id="link_Entity_ExternalProcedure"><path codeLine="45" d="M458.924,37.506 C529.634,53.992 648.858,81.791 722.449,98.949 " fill="none" id="Entity-backto-ExternalProcedure" style="stroke:#000000;stroke-width:1.0;"/><polygon fill="none" points="456.956,44.234,439.068,32.876,460.135,30.6,456.956,44.234" style="stroke:#000000;stroke-width:1.0;"/></g><!--MD5=[e80e6e55267df9a493f14baaea3ff5ca]
reverse link TProgramUnit to ExternalProcedure--><g id="link_TProgramUnit_ExternalProcedure"><path codeLine="46" d="M664.995,48.64 C694.998,64.713 733.198,85.178 758.789,98.887 " fill="none" id="TProgramUnit-backto-ExternalProcedure" style="stroke:#000000;stroke-width:1.0;stroke-dasharray:7.0,7.0;"/><polygon fill="none" points="661.443,54.679,647.119,39.064,668.055,42.338,661.443,54.679" style="stroke:#000000;stroke-width:1.0;"/></g><!--MD5=[b02b907958ca1ff4a130bb83ce04b3cd]
reverse link Entity to PUMain--><g id="link_Entity_PUMain"><path codeLine="47" d="M377.073,55.209 C365.712,70.028 352.658,87.055 343.532,98.958 " fill="none" id="Entity-backto-PUMain" style="stroke:#000000;stroke-width:1.0;"/><polygon fill="none" points="371.571,50.88,389.295,39.267,382.682,59.398,371.571,50.88" style="stroke:#000000;stroke-width:1.0;"/></g><!--MD5=[dbd4aa3a9586a8a3de76355b88217163]
reverse link TProgramUnit to PUMain--><g id="link_TProgramUnit_PUMain"><path codeLine="48" d="M551.702,45.104 C496.571,62.392 420.303,86.309 373.658,100.937 " fill="none" id="TProgramUnit-backto-PUMain" style="stroke:#000000;stroke-width:1.0;stroke-dasharray:7.0,7.0;"/><polygon fill="none" points="549.784,38.369,570.963,39.064,553.974,51.728,549.784,38.369" style="stroke:#000000;stroke-width:1.0;"/></g><!--MD5=[c4caefa71cc518a704db4c48b2f1c8b3]
reverse link ExternalProcedure to PUFunction--><g id="link_ExternalProcedure_PUFunction"><path codeLine="49" d="M812.314,147.2092 C824.334,162.0278 838.145,179.0551 847.799,190.9582 " fill="none" id="ExternalProcedure-backto-PUFunction" style="stroke:#000000;stroke-width:1.0;"/><polygon fill="none" points="806.546,151.2097,799.383,131.2673,817.419,142.3905,806.546,151.2097" style="stroke:#000000;stroke-width:1.0;"/></g><!--MD5=[81705ca10af9e66d20b90faa26a08fca]
reverse link ExternalProcedure to Subroutine--><g id="link_ExternalProcedure_Subroutine"><path codeLine="50" d="M761.736,146.7267 C749.46,161.657 735.261,178.9257 725.368,190.9582 " fill="none" id="ExternalProcedure-backto-Subroutine" style="stroke:#000000;stroke-width:1.0;"/><polygon fill="none" points="756.338,142.2701,774.447,131.2673,767.152,151.1616,756.338,142.2701" style="stroke:#000000;stroke-width:1.0;"/></g><!--MD5=[5ef90a7b98cbc7a62ddc482edca25e30]
link TProgramUnit to TWithProgramUnits--><g id="link_TProgramUnit_TWithProgramUnits"><path codeLine="52" d="M681.264,39.064 C745.873,54.695 846.935,79.146 915.922,95.836 " fill="none" id="TProgramUnit-to-TWithProgramUnits" style="stroke:#000000;stroke-width:1.0;"/><polygon fill="none" points="928.843,98.962,923.952,93.6631,917.1796,96.1398,922.0706,101.4387,928.843,98.962" style="stroke:#000000;stroke-width:1.0;"/><text fill="#000000" font-family="sans-serif" font-size="13" lengthAdjust="spacing" textLength="94" x="591.6577" y="58.9585">*programUnits</text><text fill="#000000" font-family="sans-serif" font-size="13" lengthAdjust="spacing" textLength="60" x="857.0299" y="88.0726">container</text></g><!--MD5=[10e0034369251bfbaa3f377de32fa44e]
@startuml
hide empty members

skinparam class {
  BackgroundColor white
  ArrowColor black
  BorderColor darkGray
  BackgroundColor<<External>> LightYellow
  BorderColor<<External>> LightGray
}

class Variable << (C,white) >> #FFFFFF {
}
class Parameter << (C,white) >> #FFFFFF {
}
class PUBlockData << (C,white) >> #FFFFFF {
}
class PUComment << (C,white) >> #FFFFFF {
}
class PUModule << (C,white) >> #FFFFFF {
}
class ExternalProcedure << (C,white) >> #FFFFFF {
}
class TWithProgramUnits << (T,lightGrey) >> #FFFFFF {
}
class Entity << (C,white) >> #FFFFFF {
}
class PUMain << (C,white) >> #FFFFFF {
}
class PUFunction << (C,white) >> #FFFFFF {
}
class Subroutine << (C,white) >> #FFFFFF {
}
class FamixFortranModel << (C,white) >> #FFFFFF {
}
class TProgramUnit << (T,lightGrey) >> #FFFFFF {
}

Entity <|- - Variable
Variable <|- - Parameter
Entity <|- - PUBlockData
TProgramUnit <|.. PUBlockData
Entity <|- - PUComment
Entity <|- - PUModule
TProgramUnit <|.. PUModule
Entity <|- - ExternalProcedure
TProgramUnit <|.. ExternalProcedure
Entity <|- - PUMain
TProgramUnit <|.. PUMain
ExternalProcedure <|- - PUFunction
ExternalProcedure <|- - Subroutine

TProgramUnit " *programUnits" - -o "container" TWithProgramUnits
@enduml

PlantUML version 1.2022.5(Sat Apr 30 10:55:52 UTC 2022)
(GPL source distribution)
Java Runtime: Java(TM) SE Runtime Environment
JVM: Java HotSpot(TM) 64-Bit Server VM
Default Encoding: UTF-8
Language: en
Country: US
--></g><script xmlns=""/></svg>