<?xml version="1.0" encoding="UTF-8" standalone="no"?><svg xmlns="http://www.w3.org/2000/svg" xmlns:xlink="http://www.w3.org/1999/xlink" contentStyleType="text/css" height="294px" preserveAspectRatio="none" style="width:2147px;height:294px;background:#FFFFFF;" version="1.1" viewBox="0 0 2147 294" width="2147px" zoomAndPan="magnify"><defs/><g><!--MD5=[5be90d4f9395f84e21f1be6d65f296df]
class NamedEntity--><g id="elem_NamedEntity"><rect codeLine="10" fill="#FFFFFF" height="32" id="NamedEntity" rx="2.5" ry="2.5" style="stroke:#A9A9A9;stroke-width:0.5;" width="126" x="1278.5" y="111"/><ellipse cx="1293.5" cy="127" fill="#FFFFFF" rx="11" ry="11" style="stroke:#181818;stroke-width:1.0;"/><path d="M1295.8438,122.6719 C1294.9063,122.2344 1294.3125,122.0938 1293.4375,122.0938 C1290.8125,122.0938 1288.8125,124.1719 1288.8125,126.8906 L1288.8125,128.0156 C1288.8125,130.5938 1290.9219,132.4844 1293.8125,132.4844 C1295.0313,132.4844 1296.1875,132.1875 1296.9375,131.6406 C1297.5156,131.2344 1297.8438,130.7813 1297.8438,130.3906 C1297.8438,129.9375 1297.4531,129.5469 1296.9844,129.5469 C1296.7656,129.5469 1296.5625,129.625 1296.375,129.8125 C1295.9219,130.2969 1295.9219,130.2969 1295.7344,130.3906 C1295.3125,130.6563 1294.625,130.7813 1293.8594,130.7813 C1291.8125,130.7813 1290.5156,129.6875 1290.5156,127.9844 L1290.5156,126.8906 C1290.5156,125.1094 1291.7656,123.7969 1293.5,123.7969 C1294.0781,123.7969 1294.6875,123.9531 1295.1563,124.2031 C1295.6406,124.4844 1295.8125,124.7031 1295.9063,125.1094 C1295.9688,125.5156 1296,125.6406 1296.1406,125.7656 C1296.2813,125.9063 1296.5156,126.0156 1296.7344,126.0156 C1297,126.0156 1297.2656,125.875 1297.4375,125.6563 C1297.5469,125.5 1297.5781,125.3125 1297.5781,124.8906 L1297.5781,123.4688 C1297.5781,123.0313 1297.5625,122.9063 1297.4688,122.75 C1297.3125,122.4844 1297.0313,122.3438 1296.7344,122.3438 C1296.4375,122.3438 1296.2344,122.4375 1296.0156,122.75 L1295.8438,122.6719 Z " fill="#000000"/><text fill="#000000" font-family="sans-serif" font-size="14" lengthAdjust="spacing" textLength="94" x="1307.5" y="131.8467">NamedEntity</text></g><!--MD5=[1181f0a6408256c5fa7891f849ae1980]
class SourceAnchor--><g id="elem_SourceAnchor"><rect codeLine="12" fill="#FFFFFF" height="32" id="SourceAnchor" rx="2.5" ry="2.5" style="stroke:#A9A9A9;stroke-width:0.5;" width="132" x="1582.5" y="111"/><ellipse cx="1597.5" cy="127" fill="#FFFFFF" rx="11" ry="11" style="stroke:#181818;stroke-width:1.0;"/><path d="M1599.8438,122.6719 C1598.9063,122.2344 1598.3125,122.0938 1597.4375,122.0938 C1594.8125,122.0938 1592.8125,124.1719 1592.8125,126.8906 L1592.8125,128.0156 C1592.8125,130.5938 1594.9219,132.4844 1597.8125,132.4844 C1599.0313,132.4844 1600.1875,132.1875 1600.9375,131.6406 C1601.5156,131.2344 1601.8438,130.7813 1601.8438,130.3906 C1601.8438,129.9375 1601.4531,129.5469 1600.9844,129.5469 C1600.7656,129.5469 1600.5625,129.625 1600.375,129.8125 C1599.9219,130.2969 1599.9219,130.2969 1599.7344,130.3906 C1599.3125,130.6563 1598.625,130.7813 1597.8594,130.7813 C1595.8125,130.7813 1594.5156,129.6875 1594.5156,127.9844 L1594.5156,126.8906 C1594.5156,125.1094 1595.7656,123.7969 1597.5,123.7969 C1598.0781,123.7969 1598.6875,123.9531 1599.1563,124.2031 C1599.6406,124.4844 1599.8125,124.7031 1599.9063,125.1094 C1599.9688,125.5156 1600,125.6406 1600.1406,125.7656 C1600.2813,125.9063 1600.5156,126.0156 1600.7344,126.0156 C1601,126.0156 1601.2656,125.875 1601.4375,125.6563 C1601.5469,125.5 1601.5781,125.3125 1601.5781,124.8906 L1601.5781,123.4688 C1601.5781,123.0313 1601.5625,122.9063 1601.4688,122.75 C1601.3125,122.4844 1601.0313,122.3438 1600.7344,122.3438 C1600.4375,122.3438 1600.2344,122.4375 1600.0156,122.75 L1599.8438,122.6719 Z " fill="#000000"/><text fill="#000000" font-family="sans-serif" font-size="14" lengthAdjust="spacing" textLength="100" x="1611.5" y="131.8467">SourceAnchor</text></g><!--MD5=[3005aed9f497994e92e750d9a1cd63b4]
class ExternalProcedure--><g id="elem_ExternalProcedure"><rect codeLine="14" fill="#FFFFFF" height="56.2969" id="ExternalProcedure" rx="2.5" ry="2.5" style="stroke:#A9A9A9;stroke-width:0.5;" width="165" x="142" y="99"/><ellipse cx="157" cy="115" fill="#FFFFFF" rx="11" ry="11" style="stroke:#181818;stroke-width:1.0;"/><path d="M159.3438,110.6719 C158.4063,110.2344 157.8125,110.0938 156.9375,110.0938 C154.3125,110.0938 152.3125,112.1719 152.3125,114.8906 L152.3125,116.0156 C152.3125,118.5938 154.4219,120.4844 157.3125,120.4844 C158.5313,120.4844 159.6875,120.1875 160.4375,119.6406 C161.0156,119.2344 161.3438,118.7813 161.3438,118.3906 C161.3438,117.9375 160.9531,117.5469 160.4844,117.5469 C160.2656,117.5469 160.0625,117.625 159.875,117.8125 C159.4219,118.2969 159.4219,118.2969 159.2344,118.3906 C158.8125,118.6563 158.125,118.7813 157.3594,118.7813 C155.3125,118.7813 154.0156,117.6875 154.0156,115.9844 L154.0156,114.8906 C154.0156,113.1094 155.2656,111.7969 157,111.7969 C157.5781,111.7969 158.1875,111.9531 158.6563,112.2031 C159.1406,112.4844 159.3125,112.7031 159.4063,113.1094 C159.4688,113.5156 159.5,113.6406 159.6406,113.7656 C159.7813,113.9063 160.0156,114.0156 160.2344,114.0156 C160.5,114.0156 160.7656,113.875 160.9375,113.6563 C161.0469,113.5 161.0781,113.3125 161.0781,112.8906 L161.0781,111.4688 C161.0781,111.0313 161.0625,110.9063 160.9688,110.75 C160.8125,110.4844 160.5313,110.3438 160.2344,110.3438 C159.9375,110.3438 159.7344,110.4375 159.5156,110.75 L159.3438,110.6719 Z " fill="#000000"/><text fill="#000000" font-family="sans-serif" font-size="14" lengthAdjust="spacing" textLength="133" x="171" y="119.8467">ExternalProcedure</text><line style="stroke:#A9A9A9;stroke-width:0.5;" x1="143" x2="306" y1="131" y2="131"/><text fill="#000000" font-family="sans-serif" font-size="14" lengthAdjust="spacing" textLength="117" x="148" y="147.9951">Boolean isEsope</text></g><!--MD5=[47ec50b211b666ba6bfe161eedd27c35]
class UnknownSourceLanguage--><g id="elem_UnknownSourceLanguage"><rect codeLine="17" fill="#FFFFFF" height="32" id="UnknownSourceLanguage" rx="2.5" ry="2.5" style="stroke:#A9A9A9;stroke-width:0.5;" width="214" x="1926.5" y="235.5"/><ellipse cx="1941.5" cy="251.5" fill="#FFFFFF" rx="11" ry="11" style="stroke:#181818;stroke-width:1.0;"/><path d="M1943.8438,247.1719 C1942.9063,246.7344 1942.3125,246.5938 1941.4375,246.5938 C1938.8125,246.5938 1936.8125,248.6719 1936.8125,251.3906 L1936.8125,252.5156 C1936.8125,255.0938 1938.9219,256.9844 1941.8125,256.9844 C1943.0313,256.9844 1944.1875,256.6875 1944.9375,256.1406 C1945.5156,255.7344 1945.8438,255.2813 1945.8438,254.8906 C1945.8438,254.4375 1945.4531,254.0469 1944.9844,254.0469 C1944.7656,254.0469 1944.5625,254.125 1944.375,254.3125 C1943.9219,254.7969 1943.9219,254.7969 1943.7344,254.8906 C1943.3125,255.1563 1942.625,255.2813 1941.8594,255.2813 C1939.8125,255.2813 1938.5156,254.1875 1938.5156,252.4844 L1938.5156,251.3906 C1938.5156,249.6094 1939.7656,248.2969 1941.5,248.2969 C1942.0781,248.2969 1942.6875,248.4531 1943.1563,248.7031 C1943.6406,248.9844 1943.8125,249.2031 1943.9063,249.6094 C1943.9688,250.0156 1944,250.1406 1944.1406,250.2656 C1944.2813,250.4063 1944.5156,250.5156 1944.7344,250.5156 C1945,250.5156 1945.2656,250.375 1945.4375,250.1563 C1945.5469,250 1945.5781,249.8125 1945.5781,249.3906 L1945.5781,247.9688 C1945.5781,247.5313 1945.5625,247.4063 1945.4688,247.25 C1945.3125,246.9844 1945.0313,246.8438 1944.7344,246.8438 C1944.4375,246.8438 1944.2344,246.9375 1944.0156,247.25 L1943.8438,247.1719 Z " fill="#000000"/><text fill="#000000" font-family="sans-serif" font-size="14" lengthAdjust="spacing" textLength="182" x="1955.5" y="256.3467">UnknownSourceLanguage</text></g><!--MD5=[6f6ce3678c8ec35773613c45c4058feb]
class IndexedFileAnchor--><g id="elem_IndexedFileAnchor"><rect codeLine="19" fill="#FFFFFF" height="32" id="IndexedFileAnchor" rx="2.5" ry="2.5" style="stroke:#A9A9A9;stroke-width:0.5;" width="165" x="1562" y="235.5"/><ellipse cx="1577" cy="251.5" fill="#FFFFFF" rx="11" ry="11" style="stroke:#181818;stroke-width:1.0;"/><path d="M1579.3438,247.1719 C1578.4063,246.7344 1577.8125,246.5938 1576.9375,246.5938 C1574.3125,246.5938 1572.3125,248.6719 1572.3125,251.3906 L1572.3125,252.5156 C1572.3125,255.0938 1574.4219,256.9844 1577.3125,256.9844 C1578.5313,256.9844 1579.6875,256.6875 1580.4375,256.1406 C1581.0156,255.7344 1581.3438,255.2813 1581.3438,254.8906 C1581.3438,254.4375 1580.9531,254.0469 1580.4844,254.0469 C1580.2656,254.0469 1580.0625,254.125 1579.875,254.3125 C1579.4219,254.7969 1579.4219,254.7969 1579.2344,254.8906 C1578.8125,255.1563 1578.125,255.2813 1577.3594,255.2813 C1575.3125,255.2813 1574.0156,254.1875 1574.0156,252.4844 L1574.0156,251.3906 C1574.0156,249.6094 1575.2656,248.2969 1577,248.2969 C1577.5781,248.2969 1578.1875,248.4531 1578.6563,248.7031 C1579.1406,248.9844 1579.3125,249.2031 1579.4063,249.6094 C1579.4688,250.0156 1579.5,250.1406 1579.6406,250.2656 C1579.7813,250.4063 1580.0156,250.5156 1580.2344,250.5156 C1580.5,250.5156 1580.7656,250.375 1580.9375,250.1563 C1581.0469,250 1581.0781,249.8125 1581.0781,249.3906 L1581.0781,247.9688 C1581.0781,247.5313 1581.0625,247.4063 1580.9688,247.25 C1580.8125,246.9844 1580.5313,246.8438 1580.2344,246.8438 C1579.9375,246.8438 1579.7344,246.9375 1579.5156,247.25 L1579.3438,247.1719 Z " fill="#000000"/><text fill="#000000" font-family="sans-serif" font-size="14" lengthAdjust="spacing" textLength="133" x="1591" y="256.3467">IndexedFileAnchor</text></g><!--MD5=[175f95e045c1a44aed0b30df3abe0e5c]
class Program--><g id="elem_Program"><rect codeLine="21" fill="#FFFFFF" height="32" id="Program" rx="2.5" ry="2.5" style="stroke:#A9A9A9;stroke-width:0.5;" width="93" x="691" y="111"/><ellipse cx="706" cy="127" fill="#FFFFFF" rx="11" ry="11" style="stroke:#181818;stroke-width:1.0;"/><path d="M708.3438,122.6719 C707.4063,122.2344 706.8125,122.0938 705.9375,122.0938 C703.3125,122.0938 701.3125,124.1719 701.3125,126.8906 L701.3125,128.0156 C701.3125,130.5938 703.4219,132.4844 706.3125,132.4844 C707.5313,132.4844 708.6875,132.1875 709.4375,131.6406 C710.0156,131.2344 710.3438,130.7813 710.3438,130.3906 C710.3438,129.9375 709.9531,129.5469 709.4844,129.5469 C709.2656,129.5469 709.0625,129.625 708.875,129.8125 C708.4219,130.2969 708.4219,130.2969 708.2344,130.3906 C707.8125,130.6563 707.125,130.7813 706.3594,130.7813 C704.3125,130.7813 703.0156,129.6875 703.0156,127.9844 L703.0156,126.8906 C703.0156,125.1094 704.2656,123.7969 706,123.7969 C706.5781,123.7969 707.1875,123.9531 707.6563,124.2031 C708.1406,124.4844 708.3125,124.7031 708.4063,125.1094 C708.4688,125.5156 708.5,125.6406 708.6406,125.7656 C708.7813,125.9063 709.0156,126.0156 709.2344,126.0156 C709.5,126.0156 709.7656,125.875 709.9375,125.6563 C710.0469,125.5 710.0781,125.3125 710.0781,124.8906 L710.0781,123.4688 C710.0781,123.0313 710.0625,122.9063 709.9688,122.75 C709.8125,122.4844 709.5313,122.3438 709.2344,122.3438 C708.9375,122.3438 708.7344,122.4375 708.5156,122.75 L708.3438,122.6719 Z " fill="#000000"/><text fill="#000000" font-family="sans-serif" font-size="14" lengthAdjust="spacing" textLength="61" x="720" y="131.8467">Program</text></g><!--MD5=[042fa140da40c49659127f611bcff931]
class Comment--><g id="elem_Comment"><rect codeLine="23" fill="#FFFFFF" height="56.2969" id="Comment" rx="2.5" ry="2.5" style="stroke:#A9A9A9;stroke-width:0.5;" width="129" x="1762" y="223.5"/><ellipse cx="1788.25" cy="239.5" fill="#FFFFFF" rx="11" ry="11" style="stroke:#181818;stroke-width:1.0;"/><path d="M1790.5938,235.1719 C1789.6563,234.7344 1789.0625,234.5938 1788.1875,234.5938 C1785.5625,234.5938 1783.5625,236.6719 1783.5625,239.3906 L1783.5625,240.5156 C1783.5625,243.0938 1785.6719,244.9844 1788.5625,244.9844 C1789.7813,244.9844 1790.9375,244.6875 1791.6875,244.1406 C1792.2656,243.7344 1792.5938,243.2813 1792.5938,242.8906 C1792.5938,242.4375 1792.2031,242.0469 1791.7344,242.0469 C1791.5156,242.0469 1791.3125,242.125 1791.125,242.3125 C1790.6719,242.7969 1790.6719,242.7969 1790.4844,242.8906 C1790.0625,243.1563 1789.375,243.2813 1788.6094,243.2813 C1786.5625,243.2813 1785.2656,242.1875 1785.2656,240.4844 L1785.2656,239.3906 C1785.2656,237.6094 1786.5156,236.2969 1788.25,236.2969 C1788.8281,236.2969 1789.4375,236.4531 1789.9063,236.7031 C1790.3906,236.9844 1790.5625,237.2031 1790.6563,237.6094 C1790.7188,238.0156 1790.75,238.1406 1790.8906,238.2656 C1791.0313,238.4063 1791.2656,238.5156 1791.4844,238.5156 C1791.75,238.5156 1792.0156,238.375 1792.1875,238.1563 C1792.2969,238 1792.3281,237.8125 1792.3281,237.3906 L1792.3281,235.9688 C1792.3281,235.5313 1792.3125,235.4063 1792.2188,235.25 C1792.0625,234.9844 1791.7813,234.8438 1791.4844,234.8438 C1791.1875,234.8438 1790.9844,234.9375 1790.7656,235.25 L1790.5938,235.1719 Z " fill="#000000"/><text fill="#000000" font-family="sans-serif" font-size="14" lengthAdjust="spacing" textLength="72" x="1804.75" y="244.3467">Comment</text><line style="stroke:#A9A9A9;stroke-width:0.5;" x1="1763" x2="1890" y1="255.5" y2="255.5"/><text fill="#000000" font-family="sans-serif" font-size="14" lengthAdjust="spacing" textLength="117" x="1768" y="272.4951">Boolean isEsope</text></g><!--MD5=[41551846f6188bda91d8f13198577e1a]
class Subroutine--><g id="elem_Subroutine"><rect codeLine="26" fill="#FFFFFF" height="32" id="Subroutine" rx="2.5" ry="2.5" style="stroke:#A9A9A9;stroke-width:0.5;" width="111" x="7" y="235.5"/><ellipse cx="22" cy="251.5" fill="#FFFFFF" rx="11" ry="11" style="stroke:#181818;stroke-width:1.0;"/><path d="M24.3438,247.1719 C23.4063,246.7344 22.8125,246.5938 21.9375,246.5938 C19.3125,246.5938 17.3125,248.6719 17.3125,251.3906 L17.3125,252.5156 C17.3125,255.0938 19.4219,256.9844 22.3125,256.9844 C23.5313,256.9844 24.6875,256.6875 25.4375,256.1406 C26.0156,255.7344 26.3438,255.2813 26.3438,254.8906 C26.3438,254.4375 25.9531,254.0469 25.4844,254.0469 C25.2656,254.0469 25.0625,254.125 24.875,254.3125 C24.4219,254.7969 24.4219,254.7969 24.2344,254.8906 C23.8125,255.1563 23.125,255.2813 22.3594,255.2813 C20.3125,255.2813 19.0156,254.1875 19.0156,252.4844 L19.0156,251.3906 C19.0156,249.6094 20.2656,248.2969 22,248.2969 C22.5781,248.2969 23.1875,248.4531 23.6563,248.7031 C24.1406,248.9844 24.3125,249.2031 24.4063,249.6094 C24.4688,250.0156 24.5,250.1406 24.6406,250.2656 C24.7813,250.4063 25.0156,250.5156 25.2344,250.5156 C25.5,250.5156 25.7656,250.375 25.9375,250.1563 C26.0469,250 26.0781,249.8125 26.0781,249.3906 L26.0781,247.9688 C26.0781,247.5313 26.0625,247.4063 25.9688,247.25 C25.8125,246.9844 25.5313,246.8438 25.2344,246.8438 C24.9375,246.8438 24.7344,246.9375 24.5156,247.25 L24.3438,247.1719 Z " fill="#000000"/><text fill="#000000" font-family="sans-serif" font-size="14" lengthAdjust="spacing" textLength="79" x="36" y="256.3467">Subroutine</text></g><!--MD5=[578a1097caabeea152e8061bdd841823]
class TProgramUnit--><g id="elem_TProgramUnit"><rect codeLine="28" fill="#FFFFFF" height="32" id="TProgramUnit" rx="2.5" ry="2.5" style="stroke:#A9A9A9;stroke-width:0.5;" width="131" x="450" y="7"/><ellipse cx="465" cy="23" fill="#D3D3D3" rx="11" ry="11" style="stroke:#181818;stroke-width:1.0;"/><path d="M465.4375,20.5313 L467.2813,20.5313 L467.2813,22.125 C467.2813,22.5156 467.3125,22.6875 467.4063,22.8281 C467.5625,23.0781 467.8438,23.2344 468.1406,23.2344 C468.4063,23.2344 468.6563,23.1094 468.8281,22.8906 C468.9688,22.7188 468.9844,22.5938 468.9844,22.125 L468.9844,18.8438 L460.2188,18.8438 L460.2188,22.125 C460.2188,22.5156 460.25,22.6875 460.3281,22.8281 C460.4844,23.0938 460.7813,23.2344 461.0625,23.2344 C461.3438,23.2344 461.5938,23.1094 461.7656,22.8906 C461.875,22.7188 461.9063,22.5781 461.9063,22.125 L461.9063,20.5313 L463.7344,20.5313 L463.7344,27.0469 L462.625,27.0469 C462.1875,27.0469 462.0625,27.0625 461.9063,27.1719 C461.6563,27.3281 461.5,27.6094 461.5,27.9063 C461.5,28.1563 461.6406,28.4219 461.8594,28.5781 C462.0156,28.7031 462.2344,28.75 462.625,28.75 L466.5625,28.75 C466.8906,28.75 467.1563,28.7031 467.2656,28.625 C467.5313,28.4844 467.6719,28.1875 467.6719,27.9063 C467.6719,27.625 467.5469,27.375 467.3125,27.2031 C467.1563,27.0781 467.0156,27.0469 466.5625,27.0469 L465.4375,27.0469 L465.4375,20.5313 Z " fill="#000000"/><text fill="#000000" font-family="sans-serif" font-size="14" lengthAdjust="spacing" textLength="99" x="479" y="27.8467">TProgramUnit</text></g><!--MD5=[4397798ffee2fc24b8912d5839554624]
class Invocation--><g id="elem_Invocation"><rect codeLine="30" fill="#FFFFFF" height="32" id="Invocation" rx="2.5" ry="2.5" style="stroke:#A9A9A9;stroke-width:0.5;" width="107" x="1440" y="111"/><ellipse cx="1455" cy="127" fill="#FFFFFF" rx="11" ry="11" style="stroke:#181818;stroke-width:1.0;"/><path d="M1457.3438,122.6719 C1456.4063,122.2344 1455.8125,122.0938 1454.9375,122.0938 C1452.3125,122.0938 1450.3125,124.1719 1450.3125,126.8906 L1450.3125,128.0156 C1450.3125,130.5938 1452.4219,132.4844 1455.3125,132.4844 C1456.5313,132.4844 1457.6875,132.1875 1458.4375,131.6406 C1459.0156,131.2344 1459.3438,130.7813 1459.3438,130.3906 C1459.3438,129.9375 1458.9531,129.5469 1458.4844,129.5469 C1458.2656,129.5469 1458.0625,129.625 1457.875,129.8125 C1457.4219,130.2969 1457.4219,130.2969 1457.2344,130.3906 C1456.8125,130.6563 1456.125,130.7813 1455.3594,130.7813 C1453.3125,130.7813 1452.0156,129.6875 1452.0156,127.9844 L1452.0156,126.8906 C1452.0156,125.1094 1453.2656,123.7969 1455,123.7969 C1455.5781,123.7969 1456.1875,123.9531 1456.6563,124.2031 C1457.1406,124.4844 1457.3125,124.7031 1457.4063,125.1094 C1457.4688,125.5156 1457.5,125.6406 1457.6406,125.7656 C1457.7813,125.9063 1458.0156,126.0156 1458.2344,126.0156 C1458.5,126.0156 1458.7656,125.875 1458.9375,125.6563 C1459.0469,125.5 1459.0781,125.3125 1459.0781,124.8906 L1459.0781,123.4688 C1459.0781,123.0313 1459.0625,122.9063 1458.9688,122.75 C1458.8125,122.4844 1458.5313,122.3438 1458.2344,122.3438 C1457.9375,122.3438 1457.7344,122.4375 1457.5156,122.75 L1457.3438,122.6719 Z " fill="#000000"/><text fill="#000000" font-family="sans-serif" font-size="14" lengthAdjust="spacing" textLength="75" x="1469" y="131.8467">Invocation</text></g><!--MD5=[c797393b219d76159f484d3cb9debb30]
class FamixFortranModel--><g id="elem_FamixFortranModel"><rect codeLine="32" fill="#FFFFFF" height="32" id="FamixFortranModel" rx="2.5" ry="2.5" style="stroke:#A9A9A9;stroke-width:0.5;" width="170" x="1194.5" y="7"/><ellipse cx="1209.5" cy="23" fill="#FFFFFF" rx="11" ry="11" style="stroke:#181818;stroke-width:1.0;"/><path d="M1211.8438,18.6719 C1210.9063,18.2344 1210.3125,18.0938 1209.4375,18.0938 C1206.8125,18.0938 1204.8125,20.1719 1204.8125,22.8906 L1204.8125,24.0156 C1204.8125,26.5938 1206.9219,28.4844 1209.8125,28.4844 C1211.0313,28.4844 1212.1875,28.1875 1212.9375,27.6406 C1213.5156,27.2344 1213.8438,26.7813 1213.8438,26.3906 C1213.8438,25.9375 1213.4531,25.5469 1212.9844,25.5469 C1212.7656,25.5469 1212.5625,25.625 1212.375,25.8125 C1211.9219,26.2969 1211.9219,26.2969 1211.7344,26.3906 C1211.3125,26.6563 1210.625,26.7813 1209.8594,26.7813 C1207.8125,26.7813 1206.5156,25.6875 1206.5156,23.9844 L1206.5156,22.8906 C1206.5156,21.1094 1207.7656,19.7969 1209.5,19.7969 C1210.0781,19.7969 1210.6875,19.9531 1211.1563,20.2031 C1211.6406,20.4844 1211.8125,20.7031 1211.9063,21.1094 C1211.9688,21.5156 1212,21.6406 1212.1406,21.7656 C1212.2813,21.9063 1212.5156,22.0156 1212.7344,22.0156 C1213,22.0156 1213.2656,21.875 1213.4375,21.6563 C1213.5469,21.5 1213.5781,21.3125 1213.5781,20.8906 L1213.5781,19.4688 C1213.5781,19.0313 1213.5625,18.9063 1213.4688,18.75 C1213.3125,18.4844 1213.0313,18.3438 1212.7344,18.3438 C1212.4375,18.3438 1212.2344,18.4375 1212.0156,18.75 L1211.8438,18.6719 Z " fill="#000000"/><text fill="#000000" font-family="sans-serif" font-size="14" lengthAdjust="spacing" textLength="138" x="1223.5" y="27.8467">FamixFortranModel</text></g><!--MD5=[e70f690af63d918c972dfa078c311cd0]
class SourcedEntity--><g id="elem_SourcedEntity"><rect codeLine="34" fill="#FFFFFF" height="32" id="SourcedEntity" rx="2.5" ry="2.5" style="stroke:#A9A9A9;stroke-width:0.5;" width="134" x="1756.5" y="111"/><ellipse cx="1771.5" cy="127" fill="#FFFFFF" rx="11" ry="11" style="stroke:#181818;stroke-width:1.0;"/><path d="M1773.8438,122.6719 C1772.9063,122.2344 1772.3125,122.0938 1771.4375,122.0938 C1768.8125,122.0938 1766.8125,124.1719 1766.8125,126.8906 L1766.8125,128.0156 C1766.8125,130.5938 1768.9219,132.4844 1771.8125,132.4844 C1773.0313,132.4844 1774.1875,132.1875 1774.9375,131.6406 C1775.5156,131.2344 1775.8438,130.7813 1775.8438,130.3906 C1775.8438,129.9375 1775.4531,129.5469 1774.9844,129.5469 C1774.7656,129.5469 1774.5625,129.625 1774.375,129.8125 C1773.9219,130.2969 1773.9219,130.2969 1773.7344,130.3906 C1773.3125,130.6563 1772.625,130.7813 1771.8594,130.7813 C1769.8125,130.7813 1768.5156,129.6875 1768.5156,127.9844 L1768.5156,126.8906 C1768.5156,125.1094 1769.7656,123.7969 1771.5,123.7969 C1772.0781,123.7969 1772.6875,123.9531 1773.1563,124.2031 C1773.6406,124.4844 1773.8125,124.7031 1773.9063,125.1094 C1773.9688,125.5156 1774,125.6406 1774.1406,125.7656 C1774.2813,125.9063 1774.5156,126.0156 1774.7344,126.0156 C1775,126.0156 1775.2656,125.875 1775.4375,125.6563 C1775.5469,125.5 1775.5781,125.3125 1775.5781,124.8906 L1775.5781,123.4688 C1775.5781,123.0313 1775.5625,122.9063 1775.4688,122.75 C1775.3125,122.4844 1775.0313,122.3438 1774.7344,122.3438 C1774.4375,122.3438 1774.2344,122.4375 1774.0156,122.75 L1773.8438,122.6719 Z " fill="#000000"/><text fill="#000000" font-family="sans-serif" font-size="14" lengthAdjust="spacing" textLength="102" x="1785.5" y="131.8467">SourcedEntity</text></g><!--MD5=[f2eb7d5497efdc0fbc0e36060879ff38]
class ProgramFile--><g id="elem_ProgramFile"><rect codeLine="36" fill="#FFFFFF" height="72.5938" id="ProgramFile" rx="2.5" ry="2.5" style="stroke:#A9A9A9;stroke-width:0.5;" width="123" x="723" y="215"/><ellipse cx="740.25" cy="231" fill="#FFFFFF" rx="11" ry="11" style="stroke:#181818;stroke-width:1.0;"/><path d="M742.5938,226.6719 C741.6563,226.2344 741.0625,226.0938 740.1875,226.0938 C737.5625,226.0938 735.5625,228.1719 735.5625,230.8906 L735.5625,232.0156 C735.5625,234.5938 737.6719,236.4844 740.5625,236.4844 C741.7813,236.4844 742.9375,236.1875 743.6875,235.6406 C744.2656,235.2344 744.5938,234.7813 744.5938,234.3906 C744.5938,233.9375 744.2031,233.5469 743.7344,233.5469 C743.5156,233.5469 743.3125,233.625 743.125,233.8125 C742.6719,234.2969 742.6719,234.2969 742.4844,234.3906 C742.0625,234.6563 741.375,234.7813 740.6094,234.7813 C738.5625,234.7813 737.2656,233.6875 737.2656,231.9844 L737.2656,230.8906 C737.2656,229.1094 738.5156,227.7969 740.25,227.7969 C740.8281,227.7969 741.4375,227.9531 741.9063,228.2031 C742.3906,228.4844 742.5625,228.7031 742.6563,229.1094 C742.7188,229.5156 742.75,229.6406 742.8906,229.7656 C743.0313,229.9063 743.2656,230.0156 743.4844,230.0156 C743.75,230.0156 744.0156,229.875 744.1875,229.6563 C744.2969,229.5 744.3281,229.3125 744.3281,228.8906 L744.3281,227.4688 C744.3281,227.0313 744.3125,226.9063 744.2188,226.75 C744.0625,226.4844 743.7813,226.3438 743.4844,226.3438 C743.1875,226.3438 742.9844,226.4375 742.7656,226.75 L742.5938,226.6719 Z " fill="#000000"/><text fill="#000000" font-family="sans-serif" font-size="14" lengthAdjust="spacing" textLength="86" x="754.75" y="235.8467">ProgramFile</text><line style="stroke:#A9A9A9;stroke-width:0.5;" x1="724" x2="845" y1="247" y2="247"/><text fill="#000000" font-family="sans-serif" font-size="14" lengthAdjust="spacing" textLength="100" x="729" y="263.9951">String version</text><text fill="#000000" font-family="sans-serif" font-size="14" lengthAdjust="spacing" textLength="111" x="729" y="280.292">String filename</text></g><!--MD5=[64f93aa6192b8fc80f735f8517c11651]
class TWithProgramUnits--><g id="elem_TWithProgramUnits"><rect codeLine="40" fill="#FFFFFF" height="32" id="TWithProgramUnits" rx="2.5" ry="2.5" style="stroke:#A9A9A9;stroke-width:0.5;" width="172" x="342.5" y="111"/><ellipse cx="357.5" cy="127" fill="#D3D3D3" rx="11" ry="11" style="stroke:#181818;stroke-width:1.0;"/><path d="M357.9375,124.5313 L359.7813,124.5313 L359.7813,126.125 C359.7813,126.5156 359.8125,126.6875 359.9063,126.8281 C360.0625,127.0781 360.3438,127.2344 360.6406,127.2344 C360.9063,127.2344 361.1563,127.1094 361.3281,126.8906 C361.4688,126.7188 361.4844,126.5938 361.4844,126.125 L361.4844,122.8438 L352.7188,122.8438 L352.7188,126.125 C352.7188,126.5156 352.75,126.6875 352.8281,126.8281 C352.9844,127.0938 353.2813,127.2344 353.5625,127.2344 C353.8438,127.2344 354.0938,127.1094 354.2656,126.8906 C354.375,126.7188 354.4063,126.5781 354.4063,126.125 L354.4063,124.5313 L356.2344,124.5313 L356.2344,131.0469 L355.125,131.0469 C354.6875,131.0469 354.5625,131.0625 354.4063,131.1719 C354.1563,131.3281 354,131.6094 354,131.9063 C354,132.1563 354.1406,132.4219 354.3594,132.5781 C354.5156,132.7031 354.7344,132.75 355.125,132.75 L359.0625,132.75 C359.3906,132.75 359.6563,132.7031 359.7656,132.625 C360.0313,132.4844 360.1719,132.1875 360.1719,131.9063 C360.1719,131.625 360.0469,131.375 359.8125,131.2031 C359.6563,131.0781 359.5156,131.0469 359.0625,131.0469 L357.9375,131.0469 L357.9375,124.5313 Z " fill="#000000"/><text fill="#000000" font-family="sans-serif" font-size="14" lengthAdjust="spacing" textLength="140" x="371.5" y="131.8467">TWithProgramUnits</text></g><!--MD5=[be996cdb8e6bf2fc7cb89c555f2cd144]
class Entity--><g id="elem_Entity"><rect codeLine="42" fill="#FFFFFF" height="32" id="Entity" rx="2.5" ry="2.5" style="stroke:#A9A9A9;stroke-width:0.5;" width="76" x="1083.5" y="7"/><ellipse cx="1098.5" cy="23" fill="#FFFFFF" rx="11" ry="11" style="stroke:#181818;stroke-width:1.0;"/><path d="M1100.8438,18.6719 C1099.9063,18.2344 1099.3125,18.0938 1098.4375,18.0938 C1095.8125,18.0938 1093.8125,20.1719 1093.8125,22.8906 L1093.8125,24.0156 C1093.8125,26.5938 1095.9219,28.4844 1098.8125,28.4844 C1100.0313,28.4844 1101.1875,28.1875 1101.9375,27.6406 C1102.5156,27.2344 1102.8438,26.7813 1102.8438,26.3906 C1102.8438,25.9375 1102.4531,25.5469 1101.9844,25.5469 C1101.7656,25.5469 1101.5625,25.625 1101.375,25.8125 C1100.9219,26.2969 1100.9219,26.2969 1100.7344,26.3906 C1100.3125,26.6563 1099.625,26.7813 1098.8594,26.7813 C1096.8125,26.7813 1095.5156,25.6875 1095.5156,23.9844 L1095.5156,22.8906 C1095.5156,21.1094 1096.7656,19.7969 1098.5,19.7969 C1099.0781,19.7969 1099.6875,19.9531 1100.1563,20.2031 C1100.6406,20.4844 1100.8125,20.7031 1100.9063,21.1094 C1100.9688,21.5156 1101,21.6406 1101.1406,21.7656 C1101.2813,21.9063 1101.5156,22.0156 1101.7344,22.0156 C1102,22.0156 1102.2656,21.875 1102.4375,21.6563 C1102.5469,21.5 1102.5781,21.3125 1102.5781,20.8906 L1102.5781,19.4688 C1102.5781,19.0313 1102.5625,18.9063 1102.4688,18.75 C1102.3125,18.4844 1102.0313,18.3438 1101.7344,18.3438 C1101.4375,18.3438 1101.2344,18.4375 1101.0156,18.75 L1100.8438,18.6719 Z " fill="#000000"/><text fill="#000000" font-family="sans-serif" font-size="14" lengthAdjust="spacing" textLength="44" x="1112.5" y="27.8467">Entity</text></g><!--MD5=[bc0d98783e068ca382c0a3845b6ed918]
class SourceLanguage--><g id="elem_SourceLanguage"><rect codeLine="44" fill="#FFFFFF" height="32" id="SourceLanguage" rx="2.5" ry="2.5" style="stroke:#A9A9A9;stroke-width:0.5;" width="149" x="1941" y="111"/><ellipse cx="1956" cy="127" fill="#FFFFFF" rx="11" ry="11" style="stroke:#181818;stroke-width:1.0;"/><path d="M1958.3438,122.6719 C1957.4063,122.2344 1956.8125,122.0938 1955.9375,122.0938 C1953.3125,122.0938 1951.3125,124.1719 1951.3125,126.8906 L1951.3125,128.0156 C1951.3125,130.5938 1953.4219,132.4844 1956.3125,132.4844 C1957.5313,132.4844 1958.6875,132.1875 1959.4375,131.6406 C1960.0156,131.2344 1960.3438,130.7813 1960.3438,130.3906 C1960.3438,129.9375 1959.9531,129.5469 1959.4844,129.5469 C1959.2656,129.5469 1959.0625,129.625 1958.875,129.8125 C1958.4219,130.2969 1958.4219,130.2969 1958.2344,130.3906 C1957.8125,130.6563 1957.125,130.7813 1956.3594,130.7813 C1954.3125,130.7813 1953.0156,129.6875 1953.0156,127.9844 L1953.0156,126.8906 C1953.0156,125.1094 1954.2656,123.7969 1956,123.7969 C1956.5781,123.7969 1957.1875,123.9531 1957.6563,124.2031 C1958.1406,124.4844 1958.3125,124.7031 1958.4063,125.1094 C1958.4688,125.5156 1958.5,125.6406 1958.6406,125.7656 C1958.7813,125.9063 1959.0156,126.0156 1959.2344,126.0156 C1959.5,126.0156 1959.7656,125.875 1959.9375,125.6563 C1960.0469,125.5 1960.0781,125.3125 1960.0781,124.8906 L1960.0781,123.4688 C1960.0781,123.0313 1960.0625,122.9063 1959.9688,122.75 C1959.8125,122.4844 1959.5313,122.3438 1959.2344,122.3438 C1958.9375,122.3438 1958.7344,122.4375 1958.5156,122.75 L1958.3438,122.6719 Z " fill="#000000"/><text fill="#000000" font-family="sans-serif" font-size="14" lengthAdjust="spacing" textLength="117" x="1970" y="131.8467">SourceLanguage</text></g><!--MD5=[2b7409a316d9d2e410653e6983353aed]
class Module--><g id="elem_Module"><rect codeLine="46" fill="#FFFFFF" height="32" id="Module" rx="2.5" ry="2.5" style="stroke:#A9A9A9;stroke-width:0.5;" width="83" x="819" y="111"/><ellipse cx="834" cy="127" fill="#FFFFFF" rx="11" ry="11" style="stroke:#181818;stroke-width:1.0;"/><path d="M836.3438,122.6719 C835.4063,122.2344 834.8125,122.0938 833.9375,122.0938 C831.3125,122.0938 829.3125,124.1719 829.3125,126.8906 L829.3125,128.0156 C829.3125,130.5938 831.4219,132.4844 834.3125,132.4844 C835.5313,132.4844 836.6875,132.1875 837.4375,131.6406 C838.0156,131.2344 838.3438,130.7813 838.3438,130.3906 C838.3438,129.9375 837.9531,129.5469 837.4844,129.5469 C837.2656,129.5469 837.0625,129.625 836.875,129.8125 C836.4219,130.2969 836.4219,130.2969 836.2344,130.3906 C835.8125,130.6563 835.125,130.7813 834.3594,130.7813 C832.3125,130.7813 831.0156,129.6875 831.0156,127.9844 L831.0156,126.8906 C831.0156,125.1094 832.2656,123.7969 834,123.7969 C834.5781,123.7969 835.1875,123.9531 835.6563,124.2031 C836.1406,124.4844 836.3125,124.7031 836.4063,125.1094 C836.4688,125.5156 836.5,125.6406 836.6406,125.7656 C836.7813,125.9063 837.0156,126.0156 837.2344,126.0156 C837.5,126.0156 837.7656,125.875 837.9375,125.6563 C838.0469,125.5 838.0781,125.3125 838.0781,124.8906 L838.0781,123.4688 C838.0781,123.0313 838.0625,122.9063 837.9688,122.75 C837.8125,122.4844 837.5313,122.3438 837.2344,122.3438 C836.9375,122.3438 836.7344,122.4375 836.5156,122.75 L836.3438,122.6719 Z " fill="#000000"/><text fill="#000000" font-family="sans-serif" font-size="14" lengthAdjust="spacing" textLength="51" x="848" y="131.8467">Module</text></g><!--MD5=[5196bd4850b08227d6a94d1deeb28ab8]
class SourceTextAnchor--><g id="elem_SourceTextAnchor"><rect codeLine="48" fill="#FFFFFF" height="32" id="SourceTextAnchor" rx="2.5" ry="2.5" style="stroke:#A9A9A9;stroke-width:0.5;" width="165" x="1362" y="235.5"/><ellipse cx="1377" cy="251.5" fill="#FFFFFF" rx="11" ry="11" style="stroke:#181818;stroke-width:1.0;"/><path d="M1379.3438,247.1719 C1378.4063,246.7344 1377.8125,246.5938 1376.9375,246.5938 C1374.3125,246.5938 1372.3125,248.6719 1372.3125,251.3906 L1372.3125,252.5156 C1372.3125,255.0938 1374.4219,256.9844 1377.3125,256.9844 C1378.5313,256.9844 1379.6875,256.6875 1380.4375,256.1406 C1381.0156,255.7344 1381.3438,255.2813 1381.3438,254.8906 C1381.3438,254.4375 1380.9531,254.0469 1380.4844,254.0469 C1380.2656,254.0469 1380.0625,254.125 1379.875,254.3125 C1379.4219,254.7969 1379.4219,254.7969 1379.2344,254.8906 C1378.8125,255.1563 1378.125,255.2813 1377.3594,255.2813 C1375.3125,255.2813 1374.0156,254.1875 1374.0156,252.4844 L1374.0156,251.3906 C1374.0156,249.6094 1375.2656,248.2969 1377,248.2969 C1377.5781,248.2969 1378.1875,248.4531 1378.6563,248.7031 C1379.1406,248.9844 1379.3125,249.2031 1379.4063,249.6094 C1379.4688,250.0156 1379.5,250.1406 1379.6406,250.2656 C1379.7813,250.4063 1380.0156,250.5156 1380.2344,250.5156 C1380.5,250.5156 1380.7656,250.375 1380.9375,250.1563 C1381.0469,250 1381.0781,249.8125 1381.0781,249.3906 L1381.0781,247.9688 C1381.0781,247.5313 1381.0625,247.4063 1380.9688,247.25 C1380.8125,246.9844 1380.5313,246.8438 1380.2344,246.8438 C1379.9375,246.8438 1379.7344,246.9375 1379.5156,247.25 L1379.3438,247.1719 Z " fill="#000000"/><text fill="#000000" font-family="sans-serif" font-size="14" lengthAdjust="spacing" textLength="133" x="1391" y="256.3467">SourceTextAnchor</text></g><!--MD5=[4899ead58b536ff968fbcbdca857d192]
class Function--><g id="elem_Function"><rect codeLine="50" fill="#FFFFFF" height="56.2969" id="Function" rx="2.5" ry="2.5" style="stroke:#A9A9A9;stroke-width:0.5;" width="143" x="153" y="223.5"/><ellipse cx="190.05" cy="239.5" fill="#FFFFFF" rx="11" ry="11" style="stroke:#181818;stroke-width:1.0;"/><path d="M192.3938,235.1719 C191.4563,234.7344 190.8625,234.5938 189.9875,234.5938 C187.3625,234.5938 185.3625,236.6719 185.3625,239.3906 L185.3625,240.5156 C185.3625,243.0938 187.4719,244.9844 190.3625,244.9844 C191.5813,244.9844 192.7375,244.6875 193.4875,244.1406 C194.0656,243.7344 194.3938,243.2813 194.3938,242.8906 C194.3938,242.4375 194.0031,242.0469 193.5344,242.0469 C193.3156,242.0469 193.1125,242.125 192.925,242.3125 C192.4719,242.7969 192.4719,242.7969 192.2844,242.8906 C191.8625,243.1563 191.175,243.2813 190.4094,243.2813 C188.3625,243.2813 187.0656,242.1875 187.0656,240.4844 L187.0656,239.3906 C187.0656,237.6094 188.3156,236.2969 190.05,236.2969 C190.6281,236.2969 191.2375,236.4531 191.7063,236.7031 C192.1906,236.9844 192.3625,237.2031 192.4563,237.6094 C192.5188,238.0156 192.55,238.1406 192.6906,238.2656 C192.8313,238.4063 193.0656,238.5156 193.2844,238.5156 C193.55,238.5156 193.8156,238.375 193.9875,238.1563 C194.0969,238 194.1281,237.8125 194.1281,237.3906 L194.1281,235.9688 C194.1281,235.5313 194.1125,235.4063 194.0188,235.25 C193.8625,234.9844 193.5813,234.8438 193.2844,234.8438 C192.9875,234.8438 192.7844,234.9375 192.5656,235.25 L192.3938,235.1719 Z " fill="#000000"/><text fill="#000000" font-family="sans-serif" font-size="14" lengthAdjust="spacing" textLength="62" x="208.95" y="244.3467">Function</text><line style="stroke:#A9A9A9;stroke-width:0.5;" x1="154" x2="295" y1="255.5" y2="255.5"/><text fill="#000000" font-family="sans-serif" font-size="14" lengthAdjust="spacing" textLength="131" x="159" y="272.4951">Boolean isIntrinsic</text></g><!--MD5=[1e667c6ad6db7468aaf1f24fbbf1ec5d]
class Variable--><g id="elem_Variable"><rect codeLine="53" fill="#FFFFFF" height="32" id="Variable" rx="2.5" ry="2.5" style="stroke:#A9A9A9;stroke-width:0.5;" width="91" x="1009" y="111"/><ellipse cx="1024" cy="127" fill="#FFFFFF" rx="11" ry="11" style="stroke:#181818;stroke-width:1.0;"/><path d="M1026.3438,122.6719 C1025.4063,122.2344 1024.8125,122.0938 1023.9375,122.0938 C1021.3125,122.0938 1019.3125,124.1719 1019.3125,126.8906 L1019.3125,128.0156 C1019.3125,130.5938 1021.4219,132.4844 1024.3125,132.4844 C1025.5313,132.4844 1026.6875,132.1875 1027.4375,131.6406 C1028.0156,131.2344 1028.3438,130.7813 1028.3438,130.3906 C1028.3438,129.9375 1027.9531,129.5469 1027.4844,129.5469 C1027.2656,129.5469 1027.0625,129.625 1026.875,129.8125 C1026.4219,130.2969 1026.4219,130.2969 1026.2344,130.3906 C1025.8125,130.6563 1025.125,130.7813 1024.3594,130.7813 C1022.3125,130.7813 1021.0156,129.6875 1021.0156,127.9844 L1021.0156,126.8906 C1021.0156,125.1094 1022.2656,123.7969 1024,123.7969 C1024.5781,123.7969 1025.1875,123.9531 1025.6563,124.2031 C1026.1406,124.4844 1026.3125,124.7031 1026.4063,125.1094 C1026.4688,125.5156 1026.5,125.6406 1026.6406,125.7656 C1026.7813,125.9063 1027.0156,126.0156 1027.2344,126.0156 C1027.5,126.0156 1027.7656,125.875 1027.9375,125.6563 C1028.0469,125.5 1028.0781,125.3125 1028.0781,124.8906 L1028.0781,123.4688 C1028.0781,123.0313 1028.0625,122.9063 1027.9688,122.75 C1027.8125,122.4844 1027.5313,122.3438 1027.2344,122.3438 C1026.9375,122.3438 1026.7344,122.4375 1026.5156,122.75 L1026.3438,122.6719 Z " fill="#000000"/><text fill="#000000" font-family="sans-serif" font-size="14" lengthAdjust="spacing" textLength="59" x="1038" y="131.8467">Variable</text></g><!--MD5=[c4abeb57a02df4256efc2a1795ff21a0]
class BlockData--><g id="elem_BlockData"><rect codeLine="55" fill="#FFFFFF" height="32" id="BlockData" rx="2.5" ry="2.5" style="stroke:#A9A9A9;stroke-width:0.5;" width="106" x="549.5" y="111"/><ellipse cx="564.5" cy="127" fill="#FFFFFF" rx="11" ry="11" style="stroke:#181818;stroke-width:1.0;"/><path d="M566.8438,122.6719 C565.9063,122.2344 565.3125,122.0938 564.4375,122.0938 C561.8125,122.0938 559.8125,124.1719 559.8125,126.8906 L559.8125,128.0156 C559.8125,130.5938 561.9219,132.4844 564.8125,132.4844 C566.0313,132.4844 567.1875,132.1875 567.9375,131.6406 C568.5156,131.2344 568.8438,130.7813 568.8438,130.3906 C568.8438,129.9375 568.4531,129.5469 567.9844,129.5469 C567.7656,129.5469 567.5625,129.625 567.375,129.8125 C566.9219,130.2969 566.9219,130.2969 566.7344,130.3906 C566.3125,130.6563 565.625,130.7813 564.8594,130.7813 C562.8125,130.7813 561.5156,129.6875 561.5156,127.9844 L561.5156,126.8906 C561.5156,125.1094 562.7656,123.7969 564.5,123.7969 C565.0781,123.7969 565.6875,123.9531 566.1563,124.2031 C566.6406,124.4844 566.8125,124.7031 566.9063,125.1094 C566.9688,125.5156 567,125.6406 567.1406,125.7656 C567.2813,125.9063 567.5156,126.0156 567.7344,126.0156 C568,126.0156 568.2656,125.875 568.4375,125.6563 C568.5469,125.5 568.5781,125.3125 568.5781,124.8906 L568.5781,123.4688 C568.5781,123.0313 568.5625,122.9063 568.4688,122.75 C568.3125,122.4844 568.0313,122.3438 567.7344,122.3438 C567.4375,122.3438 567.2344,122.4375 567.0156,122.75 L566.8438,122.6719 Z " fill="#000000"/><text fill="#000000" font-family="sans-serif" font-size="14" lengthAdjust="spacing" textLength="74" x="578.5" y="131.8467">BlockData</text></g><!--MD5=[40777125eec7f1f730e9949bb69c1889]
class UnresolvedBehavioral--><g id="elem_UnresolvedBehavioral"><rect codeLine="57" fill="#FFFFFF" height="32" id="UnresolvedBehavioral" rx="2.5" ry="2.5" style="stroke:#A9A9A9;stroke-width:0.5;" width="186" x="331.5" y="235.5"/><ellipse cx="346.5" cy="251.5" fill="#FFFFFF" rx="11" ry="11" style="stroke:#181818;stroke-width:1.0;"/><path d="M348.8438,247.1719 C347.9063,246.7344 347.3125,246.5938 346.4375,246.5938 C343.8125,246.5938 341.8125,248.6719 341.8125,251.3906 L341.8125,252.5156 C341.8125,255.0938 343.9219,256.9844 346.8125,256.9844 C348.0313,256.9844 349.1875,256.6875 349.9375,256.1406 C350.5156,255.7344 350.8438,255.2813 350.8438,254.8906 C350.8438,254.4375 350.4531,254.0469 349.9844,254.0469 C349.7656,254.0469 349.5625,254.125 349.375,254.3125 C348.9219,254.7969 348.9219,254.7969 348.7344,254.8906 C348.3125,255.1563 347.625,255.2813 346.8594,255.2813 C344.8125,255.2813 343.5156,254.1875 343.5156,252.4844 L343.5156,251.3906 C343.5156,249.6094 344.7656,248.2969 346.5,248.2969 C347.0781,248.2969 347.6875,248.4531 348.1563,248.7031 C348.6406,248.9844 348.8125,249.2031 348.9063,249.6094 C348.9688,250.0156 349,250.1406 349.1406,250.2656 C349.2813,250.4063 349.5156,250.5156 349.7344,250.5156 C350,250.5156 350.2656,250.375 350.4375,250.1563 C350.5469,250 350.5781,249.8125 350.5781,249.3906 L350.5781,247.9688 C350.5781,247.5313 350.5625,247.4063 350.4688,247.25 C350.3125,246.9844 350.0313,246.8438 349.7344,246.8438 C349.4375,246.8438 349.2344,246.9375 349.0156,247.25 L348.8438,247.1719 Z " fill="#000000"/><text fill="#000000" font-family="sans-serif" font-size="14" lengthAdjust="spacing" textLength="154" x="360.5" y="256.3467">UnresolvedBehavioral</text></g><!--MD5=[1f6362a5c8f21d8d6a0fce68f3a92a4e]
class Parameter--><g id="elem_Parameter"><rect codeLine="59" fill="#FFFFFF" height="32" id="Parameter" rx="2.5" ry="2.5" style="stroke:#A9A9A9;stroke-width:0.5;" width="108" x="1135.5" y="111"/><ellipse cx="1150.5" cy="127" fill="#FFFFFF" rx="11" ry="11" style="stroke:#181818;stroke-width:1.0;"/><path d="M1152.8438,122.6719 C1151.9063,122.2344 1151.3125,122.0938 1150.4375,122.0938 C1147.8125,122.0938 1145.8125,124.1719 1145.8125,126.8906 L1145.8125,128.0156 C1145.8125,130.5938 1147.9219,132.4844 1150.8125,132.4844 C1152.0313,132.4844 1153.1875,132.1875 1153.9375,131.6406 C1154.5156,131.2344 1154.8438,130.7813 1154.8438,130.3906 C1154.8438,129.9375 1154.4531,129.5469 1153.9844,129.5469 C1153.7656,129.5469 1153.5625,129.625 1153.375,129.8125 C1152.9219,130.2969 1152.9219,130.2969 1152.7344,130.3906 C1152.3125,130.6563 1151.625,130.7813 1150.8594,130.7813 C1148.8125,130.7813 1147.5156,129.6875 1147.5156,127.9844 L1147.5156,126.8906 C1147.5156,125.1094 1148.7656,123.7969 1150.5,123.7969 C1151.0781,123.7969 1151.6875,123.9531 1152.1563,124.2031 C1152.6406,124.4844 1152.8125,124.7031 1152.9063,125.1094 C1152.9688,125.5156 1153,125.6406 1153.1406,125.7656 C1153.2813,125.9063 1153.5156,126.0156 1153.7344,126.0156 C1154,126.0156 1154.2656,125.875 1154.4375,125.6563 C1154.5469,125.5 1154.5781,125.3125 1154.5781,124.8906 L1154.5781,123.4688 C1154.5781,123.0313 1154.5625,122.9063 1154.4688,122.75 C1154.3125,122.4844 1154.0313,122.3438 1153.7344,122.3438 C1153.4375,122.3438 1153.2344,122.4375 1153.0156,122.75 L1152.8438,122.6719 Z " fill="#000000"/><text fill="#000000" font-family="sans-serif" font-size="14" lengthAdjust="spacing" textLength="76" x="1164.5" y="131.8467">Parameter</text></g><!--MD5=[62226c7559f1b504e0cec1ffc810172e]
reverse link Entity to NamedEntity--><g id="link_Entity_NamedEntity"><path codeLine="62" d="M1172.27,47.539 C1214.33,67.041 1272.86,94.176 1308.91,110.888 " fill="none" id="Entity-backto-NamedEntity" style="stroke:#000000;stroke-width:1.0;"/><polygon fill="none" points="1169.16,53.814,1153.96,39.05,1175.05,41.112,1169.16,53.814" style="stroke:#000000;stroke-width:1.0;"/></g><!--MD5=[e6ee02d4c628c87029a9de49450bad22]
reverse link Entity to SourceAnchor--><g id="link_Entity_SourceAnchor"><path codeLine="63" d="M1179.33,39.129 C1350.76,74.229 1400.83,60.295 1564.5,99 C1578.21,102.243 1592.92,106.642 1606.13,110.948 " fill="none" id="Entity-backto-SourceAnchor" style="stroke:#000000;stroke-width:1.0;"/><polygon fill="none" points="1177.67,45.932,1159.53,34.97,1180.54,32.231,1177.67,45.932" style="stroke:#000000;stroke-width:1.0;"/></g><!--MD5=[4b9c8d9cf48f6d9986ac556982cf1136]
reverse link Entity to ExternalProcedure--><g id="link_Entity_ExternalProcedure"><path codeLine="64" d="M1063.26,26.092 C930.985,31.58 598.179,49.547 324.5,99 C318.837,100.023 313.028,101.213 307.196,102.51 " fill="none" id="Entity-backto-ExternalProcedure" style="stroke:#000000;stroke-width:1.0;"/><polygon fill="none" points="1063.18,19.09,1083.44,25.288,1063.73,33.079,1063.18,19.09" style="stroke:#000000;stroke-width:1.0;"/></g><!--MD5=[e80e6e55267df9a493f14baaea3ff5ca]
reverse link TProgramUnit to ExternalProcedure--><g id="link_TProgramUnit_ExternalProcedure"><path codeLine="65" d="M453.67,45.672 C409.258,61.239 349.092,82.329 301.552,98.992 " fill="none" id="TProgramUnit-backto-ExternalProcedure" style="stroke:#000000;stroke-width:1.0;stroke-dasharray:7.0,7.0;"/><polygon fill="none" points="451.372,39.06,472.562,39.05,456.003,52.272,451.372,39.06" style="stroke:#000000;stroke-width:1.0;"/></g><!--MD5=[7a58f3aa2c0b748e28c4ba97f487ed26]
reverse link SourceLanguage to UnknownSourceLanguage--><g id="link_SourceLanguage_UnknownSourceLanguage"><path codeLine="66" d="M2020.63,162.942 C2024.15,186.861 2028.63,217.39 2031.27,235.3562 " fill="none" id="SourceLanguage-backto-UnknownSourceLanguage" style="stroke:#000000;stroke-width:1.0;"/><polygon fill="none" points="2013.69,163.826,2017.71,143.021,2027.54,161.791,2013.69,163.826" style="stroke:#000000;stroke-width:1.0;"/></g><!--MD5=[9d4a3397ff0930e9ecd67d6a6874b2c5]
reverse link SourceAnchor to IndexedFileAnchor--><g id="link_SourceAnchor_IndexedFileAnchor"><path codeLine="67" d="M1647.35,163.31 C1646.57,187.174 1645.58,217.4821 1644.99,235.3562 " fill="none" id="SourceAnchor-backto-IndexedFileAnchor" style="stroke:#000000;stroke-width:1.0;"/><polygon fill="none" points="1640.36,162.782,1648.01,143.021,1654.35,163.239,1640.36,162.782" style="stroke:#000000;stroke-width:1.0;"/></g><!--MD5=[e2df33c050858a3399c2fafa987c0f7e]
reverse link Entity to Program--><g id="link_Entity_Program"><path codeLine="68" d="M1063.67,34.493 C998.954,46.939 891.391,69.737 801.5,99 C791.18,102.36 780.206,106.694 770.313,110.903 " fill="none" id="Entity-backto-Program" style="stroke:#000000;stroke-width:1.0;"/><polygon fill="none" points="1062.54,27.583,1083.49,30.748,1065.14,41.339,1062.54,27.583" style="stroke:#000000;stroke-width:1.0;"/></g><!--MD5=[4641a7e974fd2dba7edf3dba51861956]
reverse link TProgramUnit to Program--><g id="link_TProgramUnit_Program"><path codeLine="69" d="M566.445,47.407 C608.911,66.918 668.154,94.138 704.609,110.888 " fill="none" id="TProgramUnit-backto-Program" style="stroke:#000000;stroke-width:1.0;stroke-dasharray:7.0,7.0;"/><polygon fill="none" points="563.508,53.761,548.257,39.05,569.353,41.04,563.508,53.761" style="stroke:#000000;stroke-width:1.0;"/></g><!--MD5=[53359270d7a3f5f78815faba57a51aff]
reverse link SourcedEntity to Comment--><g id="link_SourcedEntity_Comment"><path codeLine="70" d="M1824.36,163.27 C1824.83,182.349 1825.4,205.5574 1825.83,223.2372 " fill="none" id="SourcedEntity-backto-Comment" style="stroke:#000000;stroke-width:1.0;"/><polygon fill="none" points="1817.36,163.186,1823.87,143.021,1831.36,162.843,1817.36,163.186" style="stroke:#000000;stroke-width:1.0;"/></g><!--MD5=[81705ca10af9e66d20b90faa26a08fca]
reverse link ExternalProcedure to Subroutine--><g id="link_ExternalProcedure_Subroutine"><path codeLine="71" d="M172.339,167.442 C141.759,190.5668 104.8701,218.4609 82.5727,235.3216 " fill="none" id="ExternalProcedure-backto-Subroutine" style="stroke:#000000;stroke-width:1.0;"/><polygon fill="none" points="168.372,161.666,188.547,155.187,176.816,172.833,168.372,161.666" style="stroke:#000000;stroke-width:1.0;"/></g><!--MD5=[1d7e392f04762d57e9cfb383be639afc]
reverse link TWithProgramUnits to TProgramUnit--><g id="link_TWithProgramUnits_TProgramUnit"><path codeLine="72" d="M465.756,96.787 C483.97,77.935 503.412,54.192 512.574,39.05 " fill="none" id="TWithProgramUnits-backto-TProgramUnit" style="stroke:#000000;stroke-width:1.0;stroke-dasharray:7.0,7.0;"/><polygon fill="none" points="470.516,101.923,451.316,110.888,460.735,91.907,470.516,101.923" style="stroke:#000000;stroke-width:1.0;"/></g><!--MD5=[5ef90a7b98cbc7a62ddc482edca25e30]
link TProgramUnit to TWithProgramUnits--><g id="link_TProgramUnit_TWithProgramUnits"><path codeLine="88" d="M493.303,39.05 C475.86,55.096 453.301,80.801 439.321,100.109 " fill="none" id="TProgramUnit-to-TWithProgramUnits" style="stroke:#000000;stroke-width:1.0;"/><polygon fill="none" points="432.015,110.888,438.6923,108.1651,438.747,100.9542,432.0697,103.6771,432.015,110.888" style="stroke:#000000;stroke-width:1.0;"/><text fill="#000000" font-family="sans-serif" font-size="13" lengthAdjust="spacing" textLength="94" x="375.719" y="58.9398">*programUnits</text><text fill="#000000" font-family="sans-serif" font-size="13" lengthAdjust="spacing" textLength="60" x="362.9108" y="99.8611">container</text></g><!--MD5=[41fc378e91d771102aa62ba592b85dea]
reverse link Entity to Invocation--><g id="link_Entity_Invocation"><path codeLine="73" d="M1179.03,39.501 C1288.41,67.059 1320.14,67.703 1421.5,99 C1432.85,102.505 1445.01,106.837 1456.05,110.996 " fill="none" id="Entity-backto-Invocation" style="stroke:#000000;stroke-width:1.0;"/><polygon fill="none" points="1177.27,46.277,1159.63,34.538,1180.74,32.713,1177.27,46.277" style="stroke:#000000;stroke-width:1.0;"/></g><!--MD5=[616f44b87cee700ddae0c6b9fc94530a]
reverse link Entity to SourcedEntity--><g id="link_Entity_SourcedEntity"><path codeLine="74" d="M1179.63,38.977 C1423.91,83.384 1494.47,51.796 1731.5,99 C1746.85,102.056 1763.33,106.508 1778.04,110.919 " fill="none" id="Entity-backto-SourcedEntity" style="stroke:#000000;stroke-width:1.0;"/><polygon fill="none" points="1178.16,45.824,1159.78,35.274,1180.73,32.062,1178.16,45.824" style="stroke:#000000;stroke-width:1.0;"/></g><!--MD5=[a25c8758624681996bb27fba78b4cc2c]
reverse link Entity to ProgramFile--><g id="link_Entity_ProgramFile"><path codeLine="75" d="M1075.03,48.768 C1049.8,62.715 1018.38,80.921 991.5,99 C957.863,121.627 952.056,130.843 919.5,155 C892.179,175.272 861.225,197.2391 835.856,214.9884 " fill="none" id="Entity-backto-ProgramFile" style="stroke:#000000;stroke-width:1.0;"/><polygon fill="none" points="1072.02,42.437,1092.93,39.006,1078.72,54.728,1072.02,42.437" style="stroke:#000000;stroke-width:1.0;"/></g><!--MD5=[786cd3242f851a18827163ee7882962e]
reverse link TWithProgramUnits to ProgramFile--><g id="link_TWithProgramUnits_ProgramFile"><path codeLine="76" d="M491.157,149.56 C556.41,172.014 657.984,206.9658 722.858,229.2889 " fill="none" id="TWithProgramUnits-backto-ProgramFile" style="stroke:#000000;stroke-width:1.0;stroke-dasharray:7.0,7.0;"/><polygon fill="none" points="488.787,156.148,472.153,143.021,493.342,142.909,488.787,156.148" style="stroke:#000000;stroke-width:1.0;"/></g><!--MD5=[4e9b42b12759f75c8f700ec0fc39f3b1]
reverse link Entity to SourceLanguage--><g id="link_Entity_SourceLanguage"><path codeLine="77" d="M1179.75,38.88 C1501.18,93.518 1592.3,47.021 1907.5,99 C1925.62,101.987 1945.16,106.476 1962.58,110.94 " fill="none" id="Entity-backto-SourceLanguage" style="stroke:#000000;stroke-width:1.0;"/><polygon fill="none" points="1178.27,45.726,1159.76,35.403,1180.66,31.934,1178.27,45.726" style="stroke:#000000;stroke-width:1.0;"/></g><!--MD5=[eaf8ec6d8ffee9b29de798a0bf952fae]
reverse link Entity to Module--><g id="link_Entity_Module"><path codeLine="78" d="M1064.58,46.225 C1026.37,61.145 974.911,81.246 929.5,99 C919.676,102.841 909.066,106.991 899.182,110.859 " fill="none" id="Entity-backto-Module" style="stroke:#000000;stroke-width:1.0;"/><polygon fill="none" points="1062.07,39.689,1083.25,38.935,1067.16,52.73,1062.07,39.689" style="stroke:#000000;stroke-width:1.0;"/></g><!--MD5=[da24e260afdb1d86fc91132a32049800]
reverse link TProgramUnit to Module--><g id="link_TProgramUnit_Module"><path codeLine="79" d="M601.058,42.355 C658.508,55.67 735.478,75.436 801.5,99 C811.048,102.408 821.175,106.757 830.294,110.964 " fill="none" id="TProgramUnit-backto-Module" style="stroke:#000000;stroke-width:1.0;stroke-dasharray:7.0,7.0;"/><polygon fill="none" points="599.161,49.102,581.217,37.832,602.272,35.452,599.161,49.102" style="stroke:#000000;stroke-width:1.0;"/></g><!--MD5=[c2db4280cad5a14ad0fd08b6302e2a55]
reverse link SourceAnchor to SourceTextAnchor--><g id="link_SourceAnchor_SourceTextAnchor"><path codeLine="80" d="M1606.14,153.437 C1564.96,178.166 1503.78,214.9023 1469.72,235.3562 " fill="none" id="SourceAnchor-backto-SourceTextAnchor" style="stroke:#000000;stroke-width:1.0;"/><polygon fill="none" points="1602.74,147.316,1623.49,143.021,1609.94,159.318,1602.74,147.316" style="stroke:#000000;stroke-width:1.0;"/></g><!--MD5=[55d15bf54f244cd1fe09b4c76a59e5d1]
reverse link ExternalProcedure to Function--><g id="link_ExternalProcedure_Function"><path codeLine="81" d="M224.5,175.366 C224.5,191.6369 224.5,209.2869 224.5,223.3893 " fill="none" id="ExternalProcedure-backto-Function" style="stroke:#000000;stroke-width:1.0;"/><polygon fill="none" points="217.5,175.187,224.5,155.187,231.5,175.187,217.5,175.187" style="stroke:#000000;stroke-width:1.0;"/></g><!--MD5=[32604e4b2596c50a3da98bd5e21903f3]
reverse link Entity to Variable--><g id="link_Entity_Variable"><path codeLine="82" d="M1100.49,55.982 C1088.45,74.316 1073.89,96.477 1064.43,110.888 " fill="none" id="Entity-backto-Variable" style="stroke:#000000;stroke-width:1.0;"/><polygon fill="none" points="1094.78,51.924,1111.61,39.05,1106.48,59.61,1094.78,51.924" style="stroke:#000000;stroke-width:1.0;"/></g><!--MD5=[f399f2dfe3977c0edc1891062f9e679e]
reverse link Entity to BlockData--><g id="link_Entity_BlockData"><path codeLine="83" d="M1063.37,30.015 C977.174,39.765 810.855,61.778 673.5,99 C661.79,102.173 649.327,106.553 638.164,110.862 " fill="none" id="Entity-backto-BlockData" style="stroke:#000000;stroke-width:1.0;"/><polygon fill="none" points="1062.85,23.03,1083.49,27.798,1064.38,36.946,1062.85,23.03" style="stroke:#000000;stroke-width:1.0;"/></g><!--MD5=[cd417768a4faf1e541a73cdf249b82ba]
reverse link TProgramUnit to BlockData--><g id="link_TProgramUnit_BlockData"><path codeLine="84" d="M541.558,54.551 C557.423,73.151 576.997,96.1 589.61,110.888 " fill="none" id="TProgramUnit-backto-BlockData" style="stroke:#000000;stroke-width:1.0;stroke-dasharray:7.0,7.0;"/><polygon fill="none" points="535.99,58.81,528.337,39.05,546.642,49.725,535.99,58.81" style="stroke:#000000;stroke-width:1.0;"/></g><!--MD5=[36f4d77f7dbb662d8fafc251b0585f15]
reverse link ExternalProcedure to UnresolvedBehavioral--><g id="link_ExternalProcedure_UnresolvedBehavioral"><path codeLine="85" d="M286.079,165.717 C324.487,189.2423 371.814,218.2301 399.998,235.4925 " fill="none" id="ExternalProcedure-backto-UnresolvedBehavioral" style="stroke:#000000;stroke-width:1.0;"/><polygon fill="none" points="282.285,171.602,268.886,155.187,289.598,159.664,282.285,171.602" style="stroke:#000000;stroke-width:1.0;"/></g><!--MD5=[f60ab433911b9183e3772f80b1b833d1]
reverse link Entity to Parameter--><g id="link_Entity_Parameter"><path codeLine="86" d="M1142.63,55.695 C1154.89,74.084 1169.77,96.402 1179.43,110.888 " fill="none" id="Entity-backto-Parameter" style="stroke:#000000;stroke-width:1.0;"/><polygon fill="none" points="1136.8,59.574,1131.53,39.05,1148.45,51.809,1136.8,59.574" style="stroke:#000000;stroke-width:1.0;"/></g><!--MD5=[39e1595391850f1e57c4b96d53380568]
@startuml
hide empty members
skinparam class {
  BackgroundColor white
  ArrowColor black
  BorderColor darkGray
  BackgroundColor<<External>> LightYellow
  BorderColor<<External>> LightGray
}

class NamedEntity << (C,white) >> #FFFFFF {
}
class SourceAnchor << (C,white) >> #FFFFFF {
}
class ExternalProcedure << (C,white) >> #FFFFFF {
  Boolean isEsope
}
class UnknownSourceLanguage << (C,white) >> #FFFFFF {
}
class IndexedFileAnchor << (C,white) >> #FFFFFF {
}
class Program << (C,white) >> #FFFFFF {
}
class Comment << (C,white) >> #FFFFFF {
  Boolean isEsope
}
class Subroutine << (C,white) >> #FFFFFF {
}
class TProgramUnit << (T,lightGrey) >> #FFFFFF {
}
class Invocation << (C,white) >> #FFFFFF {
}
class FamixFortranModel << (C,white) >> #FFFFFF {
}
class SourcedEntity << (C,white) >> #FFFFFF {
}
class ProgramFile << (C,white) >> #FFFFFF {
  String version
  String filename
}
class TWithProgramUnits << (T,lightGrey) >> #FFFFFF {
}
class Entity << (C,white) >> #FFFFFF {
}
class SourceLanguage << (C,white) >> #FFFFFF {
}
class Module << (C,white) >> #FFFFFF {
}
class SourceTextAnchor << (C,white) >> #FFFFFF {
}
class Function << (C,white) >> #FFFFFF {
  Boolean isIntrinsic
}
class Variable << (C,white) >> #FFFFFF {
}
class BlockData << (C,white) >> #FFFFFF {
}
class UnresolvedBehavioral << (C,white) >> #FFFFFF {
}
class Parameter << (C,white) >> #FFFFFF {
}

Entity <|- - NamedEntity
Entity <|- - SourceAnchor
Entity <|- - ExternalProcedure
TProgramUnit <|.. ExternalProcedure
SourceLanguage <|- - UnknownSourceLanguage
SourceAnchor <|- - IndexedFileAnchor
Entity <|- - Program
TProgramUnit <|.. Program
SourcedEntity <|- - Comment
ExternalProcedure <|- - Subroutine
TWithProgramUnits <|.. TProgramUnit
Entity <|- - Invocation
Entity <|- - SourcedEntity
Entity <|- - ProgramFile
TWithProgramUnits <|.. ProgramFile
Entity <|- - SourceLanguage
Entity <|- - Module
TProgramUnit <|.. Module
SourceAnchor <|- - SourceTextAnchor
ExternalProcedure <|- - Function
Entity <|- - Variable
Entity <|- - BlockData
TProgramUnit <|.. BlockData
ExternalProcedure <|- - UnresolvedBehavioral
Entity <|- - Parameter

TProgramUnit " *programUnits" - -o "container" TWithProgramUnits
@enduml

PlantUML version 1.2022.10beta1(Unknown compile time)
(GPL source distribution)
Java Runtime: Java(TM) SE Runtime Environment
JVM: Java HotSpot(TM) 64-Bit Server VM
Default Encoding: UTF-8
Language: en
Country: US
--></g></svg>
