<?xml version="1.0" encoding="UTF-8" standalone="no"?><svg xmlns="http://www.w3.org/2000/svg" xmlns:xlink="http://www.w3.org/1999/xlink" contentStyleType="text/css" height="387px" preserveAspectRatio="none" style="width:1838px;height:387px;background:#FFFFFF;" version="1.1" viewBox="0 0 1838 387" width="1838px" zoomAndPan="magnify"><defs/><g><!--MD5=[f2eb7d5497efdc0fbc0e36060879ff38]
class ProgramFile--><g id="elem_ProgramFile"><rect codeLine="10" fill="#FFFFFF" height="72.5938" id="ProgramFile" rx="2.5" ry="2.5" style="stroke:#A9A9A9;stroke-width:0.5;" width="123" x="1708" y="191"/><ellipse cx="1725.25" cy="207" fill="#FFFFFF" rx="11" ry="11" style="stroke:#181818;stroke-width:1.0;"/><path d="M1727.5938,202.6719 C1726.6563,202.2344 1726.0625,202.0938 1725.1875,202.0938 C1722.5625,202.0938 1720.5625,204.1719 1720.5625,206.8906 L1720.5625,208.0156 C1720.5625,210.5938 1722.6719,212.4844 1725.5625,212.4844 C1726.7813,212.4844 1727.9375,212.1875 1728.6875,211.6406 C1729.2656,211.2344 1729.5938,210.7813 1729.5938,210.3906 C1729.5938,209.9375 1729.2031,209.5469 1728.7344,209.5469 C1728.5156,209.5469 1728.3125,209.625 1728.125,209.8125 C1727.6719,210.2969 1727.6719,210.2969 1727.4844,210.3906 C1727.0625,210.6563 1726.375,210.7813 1725.6094,210.7813 C1723.5625,210.7813 1722.2656,209.6875 1722.2656,207.9844 L1722.2656,206.8906 C1722.2656,205.1094 1723.5156,203.7969 1725.25,203.7969 C1725.8281,203.7969 1726.4375,203.9531 1726.9063,204.2031 C1727.3906,204.4844 1727.5625,204.7031 1727.6563,205.1094 C1727.7188,205.5156 1727.75,205.6406 1727.8906,205.7656 C1728.0313,205.9063 1728.2656,206.0156 1728.4844,206.0156 C1728.75,206.0156 1729.0156,205.875 1729.1875,205.6563 C1729.2969,205.5 1729.3281,205.3125 1729.3281,204.8906 L1729.3281,203.4688 C1729.3281,203.0313 1729.3125,202.9063 1729.2188,202.75 C1729.0625,202.4844 1728.7813,202.3438 1728.4844,202.3438 C1728.1875,202.3438 1727.9844,202.4375 1727.7656,202.75 L1727.5938,202.6719 Z " fill="#000000"/><text fill="#000000" font-family="sans-serif" font-size="14" lengthAdjust="spacing" textLength="86" x="1739.75" y="211.8467">ProgramFile</text><line style="stroke:#A9A9A9;stroke-width:0.5;" x1="1709" x2="1830" y1="223" y2="223"/><text fill="#000000" font-family="sans-serif" font-size="14" lengthAdjust="spacing" textLength="100" x="1714" y="239.9951">String version</text><text fill="#000000" font-family="sans-serif" font-size="14" lengthAdjust="spacing" textLength="111" x="1714" y="256.292">String filename</text></g><!--MD5=[64f93aa6192b8fc80f735f8517c11651]
class TWithProgramUnits--><g id="elem_TWithProgramUnits"><rect codeLine="14" fill="#FFFFFF" height="32" id="TWithProgramUnits" rx="2.5" ry="2.5" style="stroke:#A9A9A9;stroke-width:0.5;" width="172" x="268.5" y="7"/><ellipse cx="283.5" cy="23" fill="#D3D3D3" rx="11" ry="11" style="stroke:#181818;stroke-width:1.0;"/><path d="M283.9375,20.5313 L285.7813,20.5313 L285.7813,22.125 C285.7813,22.5156 285.8125,22.6875 285.9063,22.8281 C286.0625,23.0781 286.3438,23.2344 286.6406,23.2344 C286.9063,23.2344 287.1563,23.1094 287.3281,22.8906 C287.4688,22.7188 287.4844,22.5938 287.4844,22.125 L287.4844,18.8438 L278.7188,18.8438 L278.7188,22.125 C278.7188,22.5156 278.75,22.6875 278.8281,22.8281 C278.9844,23.0938 279.2813,23.2344 279.5625,23.2344 C279.8438,23.2344 280.0938,23.1094 280.2656,22.8906 C280.375,22.7188 280.4063,22.5781 280.4063,22.125 L280.4063,20.5313 L282.2344,20.5313 L282.2344,27.0469 L281.125,27.0469 C280.6875,27.0469 280.5625,27.0625 280.4063,27.1719 C280.1563,27.3281 280,27.6094 280,27.9063 C280,28.1563 280.1406,28.4219 280.3594,28.5781 C280.5156,28.7031 280.7344,28.75 281.125,28.75 L285.0625,28.75 C285.3906,28.75 285.6563,28.7031 285.7656,28.625 C286.0313,28.4844 286.1719,28.1875 286.1719,27.9063 C286.1719,27.625 286.0469,27.375 285.8125,27.2031 C285.6563,27.0781 285.5156,27.0469 285.0625,27.0469 L283.9375,27.0469 L283.9375,20.5313 Z " fill="#000000"/><text fill="#000000" font-family="sans-serif" font-size="14" lengthAdjust="spacing" textLength="140" x="297.5" y="27.8467">TWithProgramUnits</text></g><!--MD5=[c4abeb57a02df4256efc2a1795ff21a0]
class BlockData--><g id="elem_BlockData"><rect codeLine="16" fill="#FFFFFF" height="32" id="BlockData" rx="2.5" ry="2.5" style="stroke:#A9A9A9;stroke-width:0.5;" width="106" x="472.5" y="211.5"/><ellipse cx="487.5" cy="227.5" fill="#FFFFFF" rx="11" ry="11" style="stroke:#181818;stroke-width:1.0;"/><path d="M489.8438,223.1719 C488.9063,222.7344 488.3125,222.5938 487.4375,222.5938 C484.8125,222.5938 482.8125,224.6719 482.8125,227.3906 L482.8125,228.5156 C482.8125,231.0938 484.9219,232.9844 487.8125,232.9844 C489.0313,232.9844 490.1875,232.6875 490.9375,232.1406 C491.5156,231.7344 491.8438,231.2813 491.8438,230.8906 C491.8438,230.4375 491.4531,230.0469 490.9844,230.0469 C490.7656,230.0469 490.5625,230.125 490.375,230.3125 C489.9219,230.7969 489.9219,230.7969 489.7344,230.8906 C489.3125,231.1563 488.625,231.2813 487.8594,231.2813 C485.8125,231.2813 484.5156,230.1875 484.5156,228.4844 L484.5156,227.3906 C484.5156,225.6094 485.7656,224.2969 487.5,224.2969 C488.0781,224.2969 488.6875,224.4531 489.1563,224.7031 C489.6406,224.9844 489.8125,225.2031 489.9063,225.6094 C489.9688,226.0156 490,226.1406 490.1406,226.2656 C490.2813,226.4063 490.5156,226.5156 490.7344,226.5156 C491,226.5156 491.2656,226.375 491.4375,226.1563 C491.5469,226 491.5781,225.8125 491.5781,225.3906 L491.5781,223.9688 C491.5781,223.5313 491.5625,223.4063 491.4688,223.25 C491.3125,222.9844 491.0313,222.8438 490.7344,222.8438 C490.4375,222.8438 490.2344,222.9375 490.0156,223.25 L489.8438,223.1719 Z " fill="#000000"/><text fill="#000000" font-family="sans-serif" font-size="14" lengthAdjust="spacing" textLength="74" x="501.5" y="232.3467">BlockData</text></g><!--MD5=[40777125eec7f1f730e9949bb69c1889]
class UnresolvedBehavioral--><g id="elem_UnresolvedBehavioral"><rect codeLine="18" fill="#FFFFFF" height="32" id="UnresolvedBehavioral" rx="2.5" ry="2.5" style="stroke:#A9A9A9;stroke-width:0.5;" width="186" x="153.5" y="336"/><ellipse cx="168.5" cy="352" fill="#FFFFFF" rx="11" ry="11" style="stroke:#181818;stroke-width:1.0;"/><path d="M170.8438,347.6719 C169.9063,347.2344 169.3125,347.0938 168.4375,347.0938 C165.8125,347.0938 163.8125,349.1719 163.8125,351.8906 L163.8125,353.0156 C163.8125,355.5938 165.9219,357.4844 168.8125,357.4844 C170.0313,357.4844 171.1875,357.1875 171.9375,356.6406 C172.5156,356.2344 172.8438,355.7813 172.8438,355.3906 C172.8438,354.9375 172.4531,354.5469 171.9844,354.5469 C171.7656,354.5469 171.5625,354.625 171.375,354.8125 C170.9219,355.2969 170.9219,355.2969 170.7344,355.3906 C170.3125,355.6563 169.625,355.7813 168.8594,355.7813 C166.8125,355.7813 165.5156,354.6875 165.5156,352.9844 L165.5156,351.8906 C165.5156,350.1094 166.7656,348.7969 168.5,348.7969 C169.0781,348.7969 169.6875,348.9531 170.1563,349.2031 C170.6406,349.4844 170.8125,349.7031 170.9063,350.1094 C170.9688,350.5156 171,350.6406 171.1406,350.7656 C171.2813,350.9063 171.5156,351.0156 171.7344,351.0156 C172,351.0156 172.2656,350.875 172.4375,350.6563 C172.5469,350.5 172.5781,350.3125 172.5781,349.8906 L172.5781,348.4688 C172.5781,348.0313 172.5625,347.9063 172.4688,347.75 C172.3125,347.4844 172.0313,347.3438 171.7344,347.3438 C171.4375,347.3438 171.2344,347.4375 171.0156,347.75 L170.8438,347.6719 Z " fill="#000000"/><text fill="#000000" font-family="sans-serif" font-size="14" lengthAdjust="spacing" textLength="154" x="182.5" y="356.8467">UnresolvedBehavioral</text></g><!--MD5=[e70f690af63d918c972dfa078c311cd0]
class SourcedEntity--><g id="elem_SourcedEntity"><rect codeLine="20" fill="#FFFFFF" height="32" id="SourcedEntity" rx="2.5" ry="2.5" style="stroke:#A9A9A9;stroke-width:0.5;" width="134" x="1396.5" y="211.5"/><ellipse cx="1411.5" cy="227.5" fill="#FFFFFF" rx="11" ry="11" style="stroke:#181818;stroke-width:1.0;"/><path d="M1413.8438,223.1719 C1412.9063,222.7344 1412.3125,222.5938 1411.4375,222.5938 C1408.8125,222.5938 1406.8125,224.6719 1406.8125,227.3906 L1406.8125,228.5156 C1406.8125,231.0938 1408.9219,232.9844 1411.8125,232.9844 C1413.0313,232.9844 1414.1875,232.6875 1414.9375,232.1406 C1415.5156,231.7344 1415.8438,231.2813 1415.8438,230.8906 C1415.8438,230.4375 1415.4531,230.0469 1414.9844,230.0469 C1414.7656,230.0469 1414.5625,230.125 1414.375,230.3125 C1413.9219,230.7969 1413.9219,230.7969 1413.7344,230.8906 C1413.3125,231.1563 1412.625,231.2813 1411.8594,231.2813 C1409.8125,231.2813 1408.5156,230.1875 1408.5156,228.4844 L1408.5156,227.3906 C1408.5156,225.6094 1409.7656,224.2969 1411.5,224.2969 C1412.0781,224.2969 1412.6875,224.4531 1413.1563,224.7031 C1413.6406,224.9844 1413.8125,225.2031 1413.9063,225.6094 C1413.9688,226.0156 1414,226.1406 1414.1406,226.2656 C1414.2813,226.4063 1414.5156,226.5156 1414.7344,226.5156 C1415,226.5156 1415.2656,226.375 1415.4375,226.1563 C1415.5469,226 1415.5781,225.8125 1415.5781,225.3906 L1415.5781,223.9688 C1415.5781,223.5313 1415.5625,223.4063 1415.4688,223.25 C1415.3125,222.9844 1415.0313,222.8438 1414.7344,222.8438 C1414.4375,222.8438 1414.2344,222.9375 1414.0156,223.25 L1413.8438,223.1719 Z " fill="#000000"/><text fill="#000000" font-family="sans-serif" font-size="14" lengthAdjust="spacing" textLength="102" x="1425.5" y="232.3467">SourcedEntity</text></g><!--MD5=[4899ead58b536ff968fbcbdca857d192]
class Function--><g id="elem_Function"><rect codeLine="22" fill="#FFFFFF" height="56.2969" id="Function" rx="2.5" ry="2.5" style="stroke:#A9A9A9;stroke-width:0.5;" width="143" x="375" y="324"/><ellipse cx="412.05" cy="340" fill="#FFFFFF" rx="11" ry="11" style="stroke:#181818;stroke-width:1.0;"/><path d="M414.3938,335.6719 C413.4563,335.2344 412.8625,335.0938 411.9875,335.0938 C409.3625,335.0938 407.3625,337.1719 407.3625,339.8906 L407.3625,341.0156 C407.3625,343.5938 409.4719,345.4844 412.3625,345.4844 C413.5813,345.4844 414.7375,345.1875 415.4875,344.6406 C416.0656,344.2344 416.3938,343.7813 416.3938,343.3906 C416.3938,342.9375 416.0031,342.5469 415.5344,342.5469 C415.3156,342.5469 415.1125,342.625 414.925,342.8125 C414.4719,343.2969 414.4719,343.2969 414.2844,343.3906 C413.8625,343.6563 413.175,343.7813 412.4094,343.7813 C410.3625,343.7813 409.0656,342.6875 409.0656,340.9844 L409.0656,339.8906 C409.0656,338.1094 410.3156,336.7969 412.05,336.7969 C412.6281,336.7969 413.2375,336.9531 413.7063,337.2031 C414.1906,337.4844 414.3625,337.7031 414.4563,338.1094 C414.5188,338.5156 414.55,338.6406 414.6906,338.7656 C414.8313,338.9063 415.0656,339.0156 415.2844,339.0156 C415.55,339.0156 415.8156,338.875 415.9875,338.6563 C416.0969,338.5 416.1281,338.3125 416.1281,337.8906 L416.1281,336.4688 C416.1281,336.0313 416.1125,335.9063 416.0188,335.75 C415.8625,335.4844 415.5813,335.3438 415.2844,335.3438 C414.9875,335.3438 414.7844,335.4375 414.5656,335.75 L414.3938,335.6719 Z " fill="#000000"/><text fill="#000000" font-family="sans-serif" font-size="14" lengthAdjust="spacing" textLength="62" x="430.95" y="344.8467">Function</text><line style="stroke:#A9A9A9;stroke-width:0.5;" x1="376" x2="517" y1="356" y2="356"/><text fill="#000000" font-family="sans-serif" font-size="14" lengthAdjust="spacing" textLength="131" x="381" y="372.9951">Boolean isIntrinsic</text></g><!--MD5=[be996cdb8e6bf2fc7cb89c555f2cd144]
class Entity--><g id="elem_Entity"><rect codeLine="25" fill="#FFFFFF" height="32" id="Entity" rx="2.5" ry="2.5" style="stroke:#A9A9A9;stroke-width:0.5;" width="76" x="891.5" y="99"/><ellipse cx="906.5" cy="115" fill="#FFFFFF" rx="11" ry="11" style="stroke:#181818;stroke-width:1.0;"/><path d="M908.8438,110.6719 C907.9063,110.2344 907.3125,110.0938 906.4375,110.0938 C903.8125,110.0938 901.8125,112.1719 901.8125,114.8906 L901.8125,116.0156 C901.8125,118.5938 903.9219,120.4844 906.8125,120.4844 C908.0313,120.4844 909.1875,120.1875 909.9375,119.6406 C910.5156,119.2344 910.8438,118.7813 910.8438,118.3906 C910.8438,117.9375 910.4531,117.5469 909.9844,117.5469 C909.7656,117.5469 909.5625,117.625 909.375,117.8125 C908.9219,118.2969 908.9219,118.2969 908.7344,118.3906 C908.3125,118.6563 907.625,118.7813 906.8594,118.7813 C904.8125,118.7813 903.5156,117.6875 903.5156,115.9844 L903.5156,114.8906 C903.5156,113.1094 904.7656,111.7969 906.5,111.7969 C907.0781,111.7969 907.6875,111.9531 908.1563,112.2031 C908.6406,112.4844 908.8125,112.7031 908.9063,113.1094 C908.9688,113.5156 909,113.6406 909.1406,113.7656 C909.2813,113.9063 909.5156,114.0156 909.7344,114.0156 C910,114.0156 910.2656,113.875 910.4375,113.6563 C910.5469,113.5 910.5781,113.3125 910.5781,112.8906 L910.5781,111.4688 C910.5781,111.0313 910.5625,110.9063 910.4688,110.75 C910.3125,110.4844 910.0313,110.3438 909.7344,110.3438 C909.4375,110.3438 909.2344,110.4375 909.0156,110.75 L908.8438,110.6719 Z " fill="#000000"/><text fill="#000000" font-family="sans-serif" font-size="14" lengthAdjust="spacing" textLength="44" x="920.5" y="119.8467">Entity</text></g><!--MD5=[042fa140da40c49659127f611bcff931]
class Comment--><g id="elem_Comment"><rect codeLine="27" fill="#FFFFFF" height="56.2969" id="Comment" rx="2.5" ry="2.5" style="stroke:#A9A9A9;stroke-width:0.5;" width="129" x="1399" y="324"/><ellipse cx="1425.25" cy="340" fill="#FFFFFF" rx="11" ry="11" style="stroke:#181818;stroke-width:1.0;"/><path d="M1427.5938,335.6719 C1426.6563,335.2344 1426.0625,335.0938 1425.1875,335.0938 C1422.5625,335.0938 1420.5625,337.1719 1420.5625,339.8906 L1420.5625,341.0156 C1420.5625,343.5938 1422.6719,345.4844 1425.5625,345.4844 C1426.7813,345.4844 1427.9375,345.1875 1428.6875,344.6406 C1429.2656,344.2344 1429.5938,343.7813 1429.5938,343.3906 C1429.5938,342.9375 1429.2031,342.5469 1428.7344,342.5469 C1428.5156,342.5469 1428.3125,342.625 1428.125,342.8125 C1427.6719,343.2969 1427.6719,343.2969 1427.4844,343.3906 C1427.0625,343.6563 1426.375,343.7813 1425.6094,343.7813 C1423.5625,343.7813 1422.2656,342.6875 1422.2656,340.9844 L1422.2656,339.8906 C1422.2656,338.1094 1423.5156,336.7969 1425.25,336.7969 C1425.8281,336.7969 1426.4375,336.9531 1426.9063,337.2031 C1427.3906,337.4844 1427.5625,337.7031 1427.6563,338.1094 C1427.7188,338.5156 1427.75,338.6406 1427.8906,338.7656 C1428.0313,338.9063 1428.2656,339.0156 1428.4844,339.0156 C1428.75,339.0156 1429.0156,338.875 1429.1875,338.6563 C1429.2969,338.5 1429.3281,338.3125 1429.3281,337.8906 L1429.3281,336.4688 C1429.3281,336.0313 1429.3125,335.9063 1429.2188,335.75 C1429.0625,335.4844 1428.7813,335.3438 1428.4844,335.3438 C1428.1875,335.3438 1427.9844,335.4375 1427.7656,335.75 L1427.5938,335.6719 Z " fill="#000000"/><text fill="#000000" font-family="sans-serif" font-size="14" lengthAdjust="spacing" textLength="72" x="1441.75" y="344.8467">Comment</text><line style="stroke:#A9A9A9;stroke-width:0.5;" x1="1400" x2="1527" y1="356" y2="356"/><text fill="#000000" font-family="sans-serif" font-size="14" lengthAdjust="spacing" textLength="117" x="1405" y="372.9951">Boolean isEsope</text></g><!--MD5=[4397798ffee2fc24b8912d5839554624]
class Invocation--><g id="elem_Invocation"><rect codeLine="30" fill="#FFFFFF" height="32" id="Invocation" rx="2.5" ry="2.5" style="stroke:#A9A9A9;stroke-width:0.5;" width="107" x="1566" y="211.5"/><ellipse cx="1581" cy="227.5" fill="#FFFFFF" rx="11" ry="11" style="stroke:#181818;stroke-width:1.0;"/><path d="M1583.3438,223.1719 C1582.4063,222.7344 1581.8125,222.5938 1580.9375,222.5938 C1578.3125,222.5938 1576.3125,224.6719 1576.3125,227.3906 L1576.3125,228.5156 C1576.3125,231.0938 1578.4219,232.9844 1581.3125,232.9844 C1582.5313,232.9844 1583.6875,232.6875 1584.4375,232.1406 C1585.0156,231.7344 1585.3438,231.2813 1585.3438,230.8906 C1585.3438,230.4375 1584.9531,230.0469 1584.4844,230.0469 C1584.2656,230.0469 1584.0625,230.125 1583.875,230.3125 C1583.4219,230.7969 1583.4219,230.7969 1583.2344,230.8906 C1582.8125,231.1563 1582.125,231.2813 1581.3594,231.2813 C1579.3125,231.2813 1578.0156,230.1875 1578.0156,228.4844 L1578.0156,227.3906 C1578.0156,225.6094 1579.2656,224.2969 1581,224.2969 C1581.5781,224.2969 1582.1875,224.4531 1582.6563,224.7031 C1583.1406,224.9844 1583.3125,225.2031 1583.4063,225.6094 C1583.4688,226.0156 1583.5,226.1406 1583.6406,226.2656 C1583.7813,226.4063 1584.0156,226.5156 1584.2344,226.5156 C1584.5,226.5156 1584.7656,226.375 1584.9375,226.1563 C1585.0469,226 1585.0781,225.8125 1585.0781,225.3906 L1585.0781,223.9688 C1585.0781,223.5313 1585.0625,223.4063 1584.9688,223.25 C1584.8125,222.9844 1584.5313,222.8438 1584.2344,222.8438 C1583.9375,222.8438 1583.7344,222.9375 1583.5156,223.25 L1583.3438,223.1719 Z " fill="#000000"/><text fill="#000000" font-family="sans-serif" font-size="14" lengthAdjust="spacing" textLength="75" x="1595" y="232.3467">Invocation</text></g><!--MD5=[1181f0a6408256c5fa7891f849ae1980]
class SourceAnchor--><g id="elem_SourceAnchor"><rect codeLine="32" fill="#FFFFFF" height="32" id="SourceAnchor" rx="2.5" ry="2.5" style="stroke:#A9A9A9;stroke-width:0.5;" width="132" x="613.5" y="211.5"/><ellipse cx="628.5" cy="227.5" fill="#FFFFFF" rx="11" ry="11" style="stroke:#181818;stroke-width:1.0;"/><path d="M630.8438,223.1719 C629.9063,222.7344 629.3125,222.5938 628.4375,222.5938 C625.8125,222.5938 623.8125,224.6719 623.8125,227.3906 L623.8125,228.5156 C623.8125,231.0938 625.9219,232.9844 628.8125,232.9844 C630.0313,232.9844 631.1875,232.6875 631.9375,232.1406 C632.5156,231.7344 632.8438,231.2813 632.8438,230.8906 C632.8438,230.4375 632.4531,230.0469 631.9844,230.0469 C631.7656,230.0469 631.5625,230.125 631.375,230.3125 C630.9219,230.7969 630.9219,230.7969 630.7344,230.8906 C630.3125,231.1563 629.625,231.2813 628.8594,231.2813 C626.8125,231.2813 625.5156,230.1875 625.5156,228.4844 L625.5156,227.3906 C625.5156,225.6094 626.7656,224.2969 628.5,224.2969 C629.0781,224.2969 629.6875,224.4531 630.1563,224.7031 C630.6406,224.9844 630.8125,225.2031 630.9063,225.6094 C630.9688,226.0156 631,226.1406 631.1406,226.2656 C631.2813,226.4063 631.5156,226.5156 631.7344,226.5156 C632,226.5156 632.2656,226.375 632.4375,226.1563 C632.5469,226 632.5781,225.8125 632.5781,225.3906 L632.5781,223.9688 C632.5781,223.5313 632.5625,223.4063 632.4688,223.25 C632.3125,222.9844 632.0313,222.8438 631.7344,222.8438 C631.4375,222.8438 631.2344,222.9375 631.0156,223.25 L630.8438,223.1719 Z " fill="#000000"/><text fill="#000000" font-family="sans-serif" font-size="14" lengthAdjust="spacing" textLength="100" x="642.5" y="232.3467">SourceAnchor</text></g><!--MD5=[5196bd4850b08227d6a94d1deeb28ab8]
class SourceTextAnchor--><g id="elem_SourceTextAnchor"><rect codeLine="34" fill="#FFFFFF" height="32" id="SourceTextAnchor" rx="2.5" ry="2.5" style="stroke:#A9A9A9;stroke-width:0.5;" width="165" x="553" y="336"/><ellipse cx="568" cy="352" fill="#FFFFFF" rx="11" ry="11" style="stroke:#181818;stroke-width:1.0;"/><path d="M570.3438,347.6719 C569.4063,347.2344 568.8125,347.0938 567.9375,347.0938 C565.3125,347.0938 563.3125,349.1719 563.3125,351.8906 L563.3125,353.0156 C563.3125,355.5938 565.4219,357.4844 568.3125,357.4844 C569.5313,357.4844 570.6875,357.1875 571.4375,356.6406 C572.0156,356.2344 572.3438,355.7813 572.3438,355.3906 C572.3438,354.9375 571.9531,354.5469 571.4844,354.5469 C571.2656,354.5469 571.0625,354.625 570.875,354.8125 C570.4219,355.2969 570.4219,355.2969 570.2344,355.3906 C569.8125,355.6563 569.125,355.7813 568.3594,355.7813 C566.3125,355.7813 565.0156,354.6875 565.0156,352.9844 L565.0156,351.8906 C565.0156,350.1094 566.2656,348.7969 568,348.7969 C568.5781,348.7969 569.1875,348.9531 569.6563,349.2031 C570.1406,349.4844 570.3125,349.7031 570.4063,350.1094 C570.4688,350.5156 570.5,350.6406 570.6406,350.7656 C570.7813,350.9063 571.0156,351.0156 571.2344,351.0156 C571.5,351.0156 571.7656,350.875 571.9375,350.6563 C572.0469,350.5 572.0781,350.3125 572.0781,349.8906 L572.0781,348.4688 C572.0781,348.0313 572.0625,347.9063 571.9688,347.75 C571.8125,347.4844 571.5313,347.3438 571.2344,347.3438 C570.9375,347.3438 570.7344,347.4375 570.5156,347.75 L570.3438,347.6719 Z " fill="#000000"/><text fill="#000000" font-family="sans-serif" font-size="14" lengthAdjust="spacing" textLength="133" x="582" y="356.8467">SourceTextAnchor</text></g><!--MD5=[3005aed9f497994e92e750d9a1cd63b4]
class ExternalProcedure--><g id="elem_ExternalProcedure"><rect codeLine="36" fill="#FFFFFF" height="32" id="ExternalProcedure" rx="2.5" ry="2.5" style="stroke:#A9A9A9;stroke-width:0.5;" width="165" x="272" y="211.5"/><ellipse cx="287" cy="227.5" fill="#FFFFFF" rx="11" ry="11" style="stroke:#181818;stroke-width:1.0;"/><path d="M289.3438,223.1719 C288.4063,222.7344 287.8125,222.5938 286.9375,222.5938 C284.3125,222.5938 282.3125,224.6719 282.3125,227.3906 L282.3125,228.5156 C282.3125,231.0938 284.4219,232.9844 287.3125,232.9844 C288.5313,232.9844 289.6875,232.6875 290.4375,232.1406 C291.0156,231.7344 291.3438,231.2813 291.3438,230.8906 C291.3438,230.4375 290.9531,230.0469 290.4844,230.0469 C290.2656,230.0469 290.0625,230.125 289.875,230.3125 C289.4219,230.7969 289.4219,230.7969 289.2344,230.8906 C288.8125,231.1563 288.125,231.2813 287.3594,231.2813 C285.3125,231.2813 284.0156,230.1875 284.0156,228.4844 L284.0156,227.3906 C284.0156,225.6094 285.2656,224.2969 287,224.2969 C287.5781,224.2969 288.1875,224.4531 288.6563,224.7031 C289.1406,224.9844 289.3125,225.2031 289.4063,225.6094 C289.4688,226.0156 289.5,226.1406 289.6406,226.2656 C289.7813,226.4063 290.0156,226.5156 290.2344,226.5156 C290.5,226.5156 290.7656,226.375 290.9375,226.1563 C291.0469,226 291.0781,225.8125 291.0781,225.3906 L291.0781,223.9688 C291.0781,223.5313 291.0625,223.4063 290.9688,223.25 C290.8125,222.9844 290.5313,222.8438 290.2344,222.8438 C289.9375,222.8438 289.7344,222.9375 289.5156,223.25 L289.3438,223.1719 Z " fill="#000000"/><text fill="#000000" font-family="sans-serif" font-size="14" lengthAdjust="spacing" textLength="133" x="301" y="232.3467">ExternalProcedure</text></g><!--MD5=[41551846f6188bda91d8f13198577e1a]
class Subroutine--><g id="elem_Subroutine"><rect codeLine="38" fill="#FFFFFF" height="32" id="Subroutine" rx="2.5" ry="2.5" style="stroke:#A9A9A9;stroke-width:0.5;" width="111" x="7" y="336"/><ellipse cx="22" cy="352" fill="#FFFFFF" rx="11" ry="11" style="stroke:#181818;stroke-width:1.0;"/><path d="M24.3438,347.6719 C23.4063,347.2344 22.8125,347.0938 21.9375,347.0938 C19.3125,347.0938 17.3125,349.1719 17.3125,351.8906 L17.3125,353.0156 C17.3125,355.5938 19.4219,357.4844 22.3125,357.4844 C23.5313,357.4844 24.6875,357.1875 25.4375,356.6406 C26.0156,356.2344 26.3438,355.7813 26.3438,355.3906 C26.3438,354.9375 25.9531,354.5469 25.4844,354.5469 C25.2656,354.5469 25.0625,354.625 24.875,354.8125 C24.4219,355.2969 24.4219,355.2969 24.2344,355.3906 C23.8125,355.6563 23.125,355.7813 22.3594,355.7813 C20.3125,355.7813 19.0156,354.6875 19.0156,352.9844 L19.0156,351.8906 C19.0156,350.1094 20.2656,348.7969 22,348.7969 C22.5781,348.7969 23.1875,348.9531 23.6563,349.2031 C24.1406,349.4844 24.3125,349.7031 24.4063,350.1094 C24.4688,350.5156 24.5,350.6406 24.6406,350.7656 C24.7813,350.9063 25.0156,351.0156 25.2344,351.0156 C25.5,351.0156 25.7656,350.875 25.9375,350.6563 C26.0469,350.5 26.0781,350.3125 26.0781,349.8906 L26.0781,348.4688 C26.0781,348.0313 26.0625,347.9063 25.9688,347.75 C25.8125,347.4844 25.5313,347.3438 25.2344,347.3438 C24.9375,347.3438 24.7344,347.4375 24.5156,347.75 L24.3438,347.6719 Z " fill="#000000"/><text fill="#000000" font-family="sans-serif" font-size="14" lengthAdjust="spacing" textLength="79" x="36" y="356.8467">Subroutine</text></g><!--MD5=[5be90d4f9395f84e21f1be6d65f296df]
class NamedEntity--><g id="elem_NamedEntity"><rect codeLine="40" fill="#FFFFFF" height="32" id="NamedEntity" rx="2.5" ry="2.5" style="stroke:#A9A9A9;stroke-width:0.5;" width="126" x="780.5" y="211.5"/><ellipse cx="795.5" cy="227.5" fill="#FFFFFF" rx="11" ry="11" style="stroke:#181818;stroke-width:1.0;"/><path d="M797.8438,223.1719 C796.9063,222.7344 796.3125,222.5938 795.4375,222.5938 C792.8125,222.5938 790.8125,224.6719 790.8125,227.3906 L790.8125,228.5156 C790.8125,231.0938 792.9219,232.9844 795.8125,232.9844 C797.0313,232.9844 798.1875,232.6875 798.9375,232.1406 C799.5156,231.7344 799.8438,231.2813 799.8438,230.8906 C799.8438,230.4375 799.4531,230.0469 798.9844,230.0469 C798.7656,230.0469 798.5625,230.125 798.375,230.3125 C797.9219,230.7969 797.9219,230.7969 797.7344,230.8906 C797.3125,231.1563 796.625,231.2813 795.8594,231.2813 C793.8125,231.2813 792.5156,230.1875 792.5156,228.4844 L792.5156,227.3906 C792.5156,225.6094 793.7656,224.2969 795.5,224.2969 C796.0781,224.2969 796.6875,224.4531 797.1563,224.7031 C797.6406,224.9844 797.8125,225.2031 797.9063,225.6094 C797.9688,226.0156 798,226.1406 798.1406,226.2656 C798.2813,226.4063 798.5156,226.5156 798.7344,226.5156 C799,226.5156 799.2656,226.375 799.4375,226.1563 C799.5469,226 799.5781,225.8125 799.5781,225.3906 L799.5781,223.9688 C799.5781,223.5313 799.5625,223.4063 799.4688,223.25 C799.3125,222.9844 799.0313,222.8438 798.7344,222.8438 C798.4375,222.8438 798.2344,222.9375 798.0156,223.25 L797.8438,223.1719 Z " fill="#000000"/><text fill="#000000" font-family="sans-serif" font-size="14" lengthAdjust="spacing" textLength="94" x="809.5" y="232.3467">NamedEntity</text></g><!--MD5=[bc0d98783e068ca382c0a3845b6ed918]
class SourceLanguage--><g id="elem_SourceLanguage"><rect codeLine="42" fill="#FFFFFF" height="32" id="SourceLanguage" rx="2.5" ry="2.5" style="stroke:#A9A9A9;stroke-width:0.5;" width="149" x="942" y="211.5"/><ellipse cx="957" cy="227.5" fill="#FFFFFF" rx="11" ry="11" style="stroke:#181818;stroke-width:1.0;"/><path d="M959.3438,223.1719 C958.4063,222.7344 957.8125,222.5938 956.9375,222.5938 C954.3125,222.5938 952.3125,224.6719 952.3125,227.3906 L952.3125,228.5156 C952.3125,231.0938 954.4219,232.9844 957.3125,232.9844 C958.5313,232.9844 959.6875,232.6875 960.4375,232.1406 C961.0156,231.7344 961.3438,231.2813 961.3438,230.8906 C961.3438,230.4375 960.9531,230.0469 960.4844,230.0469 C960.2656,230.0469 960.0625,230.125 959.875,230.3125 C959.4219,230.7969 959.4219,230.7969 959.2344,230.8906 C958.8125,231.1563 958.125,231.2813 957.3594,231.2813 C955.3125,231.2813 954.0156,230.1875 954.0156,228.4844 L954.0156,227.3906 C954.0156,225.6094 955.2656,224.2969 957,224.2969 C957.5781,224.2969 958.1875,224.4531 958.6563,224.7031 C959.1406,224.9844 959.3125,225.2031 959.4063,225.6094 C959.4688,226.0156 959.5,226.1406 959.6406,226.2656 C959.7813,226.4063 960.0156,226.5156 960.2344,226.5156 C960.5,226.5156 960.7656,226.375 960.9375,226.1563 C961.0469,226 961.0781,225.8125 961.0781,225.3906 L961.0781,223.9688 C961.0781,223.5313 961.0625,223.4063 960.9688,223.25 C960.8125,222.9844 960.5313,222.8438 960.2344,222.8438 C959.9375,222.8438 959.7344,222.9375 959.5156,223.25 L959.3438,223.1719 Z " fill="#000000"/><text fill="#000000" font-family="sans-serif" font-size="14" lengthAdjust="spacing" textLength="117" x="971" y="232.3467">SourceLanguage</text></g><!--MD5=[47ec50b211b666ba6bfe161eedd27c35]
class UnknownSourceLanguage--><g id="elem_UnknownSourceLanguage"><rect codeLine="44" fill="#FFFFFF" height="32" id="UnknownSourceLanguage" rx="2.5" ry="2.5" style="stroke:#A9A9A9;stroke-width:0.5;" width="214" x="953.5" y="336"/><ellipse cx="968.5" cy="352" fill="#FFFFFF" rx="11" ry="11" style="stroke:#181818;stroke-width:1.0;"/><path d="M970.8438,347.6719 C969.9063,347.2344 969.3125,347.0938 968.4375,347.0938 C965.8125,347.0938 963.8125,349.1719 963.8125,351.8906 L963.8125,353.0156 C963.8125,355.5938 965.9219,357.4844 968.8125,357.4844 C970.0313,357.4844 971.1875,357.1875 971.9375,356.6406 C972.5156,356.2344 972.8438,355.7813 972.8438,355.3906 C972.8438,354.9375 972.4531,354.5469 971.9844,354.5469 C971.7656,354.5469 971.5625,354.625 971.375,354.8125 C970.9219,355.2969 970.9219,355.2969 970.7344,355.3906 C970.3125,355.6563 969.625,355.7813 968.8594,355.7813 C966.8125,355.7813 965.5156,354.6875 965.5156,352.9844 L965.5156,351.8906 C965.5156,350.1094 966.7656,348.7969 968.5,348.7969 C969.0781,348.7969 969.6875,348.9531 970.1563,349.2031 C970.6406,349.4844 970.8125,349.7031 970.9063,350.1094 C970.9688,350.5156 971,350.6406 971.1406,350.7656 C971.2813,350.9063 971.5156,351.0156 971.7344,351.0156 C972,351.0156 972.2656,350.875 972.4375,350.6563 C972.5469,350.5 972.5781,350.3125 972.5781,349.8906 L972.5781,348.4688 C972.5781,348.0313 972.5625,347.9063 972.4688,347.75 C972.3125,347.4844 972.0313,347.3438 971.7344,347.3438 C971.4375,347.3438 971.2344,347.4375 971.0156,347.75 L970.8438,347.6719 Z " fill="#000000"/><text fill="#000000" font-family="sans-serif" font-size="14" lengthAdjust="spacing" textLength="182" x="982.5" y="356.8467">UnknownSourceLanguage</text></g><!--MD5=[1f6362a5c8f21d8d6a0fce68f3a92a4e]
class Parameter--><g id="elem_Parameter"><rect codeLine="46" fill="#FFFFFF" height="32" id="Parameter" rx="2.5" ry="2.5" style="stroke:#A9A9A9;stroke-width:0.5;" width="108" x="1126.5" y="211.5"/><ellipse cx="1141.5" cy="227.5" fill="#FFFFFF" rx="11" ry="11" style="stroke:#181818;stroke-width:1.0;"/><path d="M1143.8438,223.1719 C1142.9063,222.7344 1142.3125,222.5938 1141.4375,222.5938 C1138.8125,222.5938 1136.8125,224.6719 1136.8125,227.3906 L1136.8125,228.5156 C1136.8125,231.0938 1138.9219,232.9844 1141.8125,232.9844 C1143.0313,232.9844 1144.1875,232.6875 1144.9375,232.1406 C1145.5156,231.7344 1145.8438,231.2813 1145.8438,230.8906 C1145.8438,230.4375 1145.4531,230.0469 1144.9844,230.0469 C1144.7656,230.0469 1144.5625,230.125 1144.375,230.3125 C1143.9219,230.7969 1143.9219,230.7969 1143.7344,230.8906 C1143.3125,231.1563 1142.625,231.2813 1141.8594,231.2813 C1139.8125,231.2813 1138.5156,230.1875 1138.5156,228.4844 L1138.5156,227.3906 C1138.5156,225.6094 1139.7656,224.2969 1141.5,224.2969 C1142.0781,224.2969 1142.6875,224.4531 1143.1563,224.7031 C1143.6406,224.9844 1143.8125,225.2031 1143.9063,225.6094 C1143.9688,226.0156 1144,226.1406 1144.1406,226.2656 C1144.2813,226.4063 1144.5156,226.5156 1144.7344,226.5156 C1145,226.5156 1145.2656,226.375 1145.4375,226.1563 C1145.5469,226 1145.5781,225.8125 1145.5781,225.3906 L1145.5781,223.9688 C1145.5781,223.5313 1145.5625,223.4063 1145.4688,223.25 C1145.3125,222.9844 1145.0313,222.8438 1144.7344,222.8438 C1144.4375,222.8438 1144.2344,222.9375 1144.0156,223.25 L1143.8438,223.1719 Z " fill="#000000"/><text fill="#000000" font-family="sans-serif" font-size="14" lengthAdjust="spacing" textLength="76" x="1155.5" y="232.3467">Parameter</text></g><!--MD5=[1e667c6ad6db7468aaf1f24fbbf1ec5d]
class Variable--><g id="elem_Variable"><rect codeLine="48" fill="#FFFFFF" height="32" id="Variable" rx="2.5" ry="2.5" style="stroke:#A9A9A9;stroke-width:0.5;" width="91" x="1270" y="211.5"/><ellipse cx="1285" cy="227.5" fill="#FFFFFF" rx="11" ry="11" style="stroke:#181818;stroke-width:1.0;"/><path d="M1287.3438,223.1719 C1286.4063,222.7344 1285.8125,222.5938 1284.9375,222.5938 C1282.3125,222.5938 1280.3125,224.6719 1280.3125,227.3906 L1280.3125,228.5156 C1280.3125,231.0938 1282.4219,232.9844 1285.3125,232.9844 C1286.5313,232.9844 1287.6875,232.6875 1288.4375,232.1406 C1289.0156,231.7344 1289.3438,231.2813 1289.3438,230.8906 C1289.3438,230.4375 1288.9531,230.0469 1288.4844,230.0469 C1288.2656,230.0469 1288.0625,230.125 1287.875,230.3125 C1287.4219,230.7969 1287.4219,230.7969 1287.2344,230.8906 C1286.8125,231.1563 1286.125,231.2813 1285.3594,231.2813 C1283.3125,231.2813 1282.0156,230.1875 1282.0156,228.4844 L1282.0156,227.3906 C1282.0156,225.6094 1283.2656,224.2969 1285,224.2969 C1285.5781,224.2969 1286.1875,224.4531 1286.6563,224.7031 C1287.1406,224.9844 1287.3125,225.2031 1287.4063,225.6094 C1287.4688,226.0156 1287.5,226.1406 1287.6406,226.2656 C1287.7813,226.4063 1288.0156,226.5156 1288.2344,226.5156 C1288.5,226.5156 1288.7656,226.375 1288.9375,226.1563 C1289.0469,226 1289.0781,225.8125 1289.0781,225.3906 L1289.0781,223.9688 C1289.0781,223.5313 1289.0625,223.4063 1288.9688,223.25 C1288.8125,222.9844 1288.5313,222.8438 1288.2344,222.8438 C1287.9375,222.8438 1287.7344,222.9375 1287.5156,223.25 L1287.3438,223.1719 Z " fill="#000000"/><text fill="#000000" font-family="sans-serif" font-size="14" lengthAdjust="spacing" textLength="59" x="1299" y="232.3467">Variable</text></g><!--MD5=[2b7409a316d9d2e410653e6983353aed]
class Module--><g id="elem_Module"><rect codeLine="50" fill="#FFFFFF" height="32" id="Module" rx="2.5" ry="2.5" style="stroke:#A9A9A9;stroke-width:0.5;" width="83" x="26" y="211.5"/><ellipse cx="41" cy="227.5" fill="#FFFFFF" rx="11" ry="11" style="stroke:#181818;stroke-width:1.0;"/><path d="M43.3438,223.1719 C42.4063,222.7344 41.8125,222.5938 40.9375,222.5938 C38.3125,222.5938 36.3125,224.6719 36.3125,227.3906 L36.3125,228.5156 C36.3125,231.0938 38.4219,232.9844 41.3125,232.9844 C42.5313,232.9844 43.6875,232.6875 44.4375,232.1406 C45.0156,231.7344 45.3438,231.2813 45.3438,230.8906 C45.3438,230.4375 44.9531,230.0469 44.4844,230.0469 C44.2656,230.0469 44.0625,230.125 43.875,230.3125 C43.4219,230.7969 43.4219,230.7969 43.2344,230.8906 C42.8125,231.1563 42.125,231.2813 41.3594,231.2813 C39.3125,231.2813 38.0156,230.1875 38.0156,228.4844 L38.0156,227.3906 C38.0156,225.6094 39.2656,224.2969 41,224.2969 C41.5781,224.2969 42.1875,224.4531 42.6563,224.7031 C43.1406,224.9844 43.3125,225.2031 43.4063,225.6094 C43.4688,226.0156 43.5,226.1406 43.6406,226.2656 C43.7813,226.4063 44.0156,226.5156 44.2344,226.5156 C44.5,226.5156 44.7656,226.375 44.9375,226.1563 C45.0469,226 45.0781,225.8125 45.0781,225.3906 L45.0781,223.9688 C45.0781,223.5313 45.0625,223.4063 44.9688,223.25 C44.8125,222.9844 44.5313,222.8438 44.2344,222.8438 C43.9375,222.8438 43.7344,222.9375 43.5156,223.25 L43.3438,223.1719 Z " fill="#000000"/><text fill="#000000" font-family="sans-serif" font-size="14" lengthAdjust="spacing" textLength="51" x="55" y="232.3467">Module</text></g><!--MD5=[175f95e045c1a44aed0b30df3abe0e5c]
class Program--><g id="elem_Program"><rect codeLine="52" fill="#FFFFFF" height="32" id="Program" rx="2.5" ry="2.5" style="stroke:#A9A9A9;stroke-width:0.5;" width="93" x="144" y="211.5"/><ellipse cx="159" cy="227.5" fill="#FFFFFF" rx="11" ry="11" style="stroke:#181818;stroke-width:1.0;"/><path d="M161.3438,223.1719 C160.4063,222.7344 159.8125,222.5938 158.9375,222.5938 C156.3125,222.5938 154.3125,224.6719 154.3125,227.3906 L154.3125,228.5156 C154.3125,231.0938 156.4219,232.9844 159.3125,232.9844 C160.5313,232.9844 161.6875,232.6875 162.4375,232.1406 C163.0156,231.7344 163.3438,231.2813 163.3438,230.8906 C163.3438,230.4375 162.9531,230.0469 162.4844,230.0469 C162.2656,230.0469 162.0625,230.125 161.875,230.3125 C161.4219,230.7969 161.4219,230.7969 161.2344,230.8906 C160.8125,231.1563 160.125,231.2813 159.3594,231.2813 C157.3125,231.2813 156.0156,230.1875 156.0156,228.4844 L156.0156,227.3906 C156.0156,225.6094 157.2656,224.2969 159,224.2969 C159.5781,224.2969 160.1875,224.4531 160.6563,224.7031 C161.1406,224.9844 161.3125,225.2031 161.4063,225.6094 C161.4688,226.0156 161.5,226.1406 161.6406,226.2656 C161.7813,226.4063 162.0156,226.5156 162.2344,226.5156 C162.5,226.5156 162.7656,226.375 162.9375,226.1563 C163.0469,226 163.0781,225.8125 163.0781,225.3906 L163.0781,223.9688 C163.0781,223.5313 163.0625,223.4063 162.9688,223.25 C162.8125,222.9844 162.5313,222.8438 162.2344,222.8438 C161.9375,222.8438 161.7344,222.9375 161.5156,223.25 L161.3438,223.1719 Z " fill="#000000"/><text fill="#000000" font-family="sans-serif" font-size="14" lengthAdjust="spacing" textLength="61" x="173" y="232.3467">Program</text></g><!--MD5=[c797393b219d76159f484d3cb9debb30]
class FamixFortranModel--><g id="elem_FamixFortranModel"><rect codeLine="54" fill="#FFFFFF" height="32" id="FamixFortranModel" rx="2.5" ry="2.5" style="stroke:#A9A9A9;stroke-width:0.5;" width="170" x="475.5" y="7"/><ellipse cx="490.5" cy="23" fill="#FFFFFF" rx="11" ry="11" style="stroke:#181818;stroke-width:1.0;"/><path d="M492.8438,18.6719 C491.9063,18.2344 491.3125,18.0938 490.4375,18.0938 C487.8125,18.0938 485.8125,20.1719 485.8125,22.8906 L485.8125,24.0156 C485.8125,26.5938 487.9219,28.4844 490.8125,28.4844 C492.0313,28.4844 493.1875,28.1875 493.9375,27.6406 C494.5156,27.2344 494.8438,26.7813 494.8438,26.3906 C494.8438,25.9375 494.4531,25.5469 493.9844,25.5469 C493.7656,25.5469 493.5625,25.625 493.375,25.8125 C492.9219,26.2969 492.9219,26.2969 492.7344,26.3906 C492.3125,26.6563 491.625,26.7813 490.8594,26.7813 C488.8125,26.7813 487.5156,25.6875 487.5156,23.9844 L487.5156,22.8906 C487.5156,21.1094 488.7656,19.7969 490.5,19.7969 C491.0781,19.7969 491.6875,19.9531 492.1563,20.2031 C492.6406,20.4844 492.8125,20.7031 492.9063,21.1094 C492.9688,21.5156 493,21.6406 493.1406,21.7656 C493.2813,21.9063 493.5156,22.0156 493.7344,22.0156 C494,22.0156 494.2656,21.875 494.4375,21.6563 C494.5469,21.5 494.5781,21.3125 494.5781,20.8906 L494.5781,19.4688 C494.5781,19.0313 494.5625,18.9063 494.4688,18.75 C494.3125,18.4844 494.0313,18.3438 493.7344,18.3438 C493.4375,18.3438 493.2344,18.4375 493.0156,18.75 L492.8438,18.6719 Z " fill="#000000"/><text fill="#000000" font-family="sans-serif" font-size="14" lengthAdjust="spacing" textLength="138" x="504.5" y="27.8467">FamixFortranModel</text></g><!--MD5=[578a1097caabeea152e8061bdd841823]
class TProgramUnit--><g id="elem_TProgramUnit"><rect codeLine="56" fill="#FFFFFF" height="32" id="TProgramUnit" rx="2.5" ry="2.5" style="stroke:#A9A9A9;stroke-width:0.5;" width="131" x="289" y="99"/><ellipse cx="304" cy="115" fill="#D3D3D3" rx="11" ry="11" style="stroke:#181818;stroke-width:1.0;"/><path d="M304.4375,112.5313 L306.2813,112.5313 L306.2813,114.125 C306.2813,114.5156 306.3125,114.6875 306.4063,114.8281 C306.5625,115.0781 306.8438,115.2344 307.1406,115.2344 C307.4063,115.2344 307.6563,115.1094 307.8281,114.8906 C307.9688,114.7188 307.9844,114.5938 307.9844,114.125 L307.9844,110.8438 L299.2188,110.8438 L299.2188,114.125 C299.2188,114.5156 299.25,114.6875 299.3281,114.8281 C299.4844,115.0938 299.7813,115.2344 300.0625,115.2344 C300.3438,115.2344 300.5938,115.1094 300.7656,114.8906 C300.875,114.7188 300.9063,114.5781 300.9063,114.125 L300.9063,112.5313 L302.7344,112.5313 L302.7344,119.0469 L301.625,119.0469 C301.1875,119.0469 301.0625,119.0625 300.9063,119.1719 C300.6563,119.3281 300.5,119.6094 300.5,119.9063 C300.5,120.1563 300.6406,120.4219 300.8594,120.5781 C301.0156,120.7031 301.2344,120.75 301.625,120.75 L305.5625,120.75 C305.8906,120.75 306.1563,120.7031 306.2656,120.625 C306.5313,120.4844 306.6719,120.1875 306.6719,119.9063 C306.6719,119.625 306.5469,119.375 306.3125,119.2031 C306.1563,119.0781 306.0156,119.0469 305.5625,119.0469 L304.4375,119.0469 L304.4375,112.5313 Z " fill="#000000"/><text fill="#000000" font-family="sans-serif" font-size="14" lengthAdjust="spacing" textLength="99" x="318" y="119.8467">TProgramUnit</text></g><!--MD5=[6f6ce3678c8ec35773613c45c4058feb]
class IndexedFileAnchor--><g id="elem_IndexedFileAnchor"><rect codeLine="58" fill="#FFFFFF" height="32" id="IndexedFileAnchor" rx="2.5" ry="2.5" style="stroke:#A9A9A9;stroke-width:0.5;" width="165" x="753" y="336"/><ellipse cx="768" cy="352" fill="#FFFFFF" rx="11" ry="11" style="stroke:#181818;stroke-width:1.0;"/><path d="M770.3438,347.6719 C769.4063,347.2344 768.8125,347.0938 767.9375,347.0938 C765.3125,347.0938 763.3125,349.1719 763.3125,351.8906 L763.3125,353.0156 C763.3125,355.5938 765.4219,357.4844 768.3125,357.4844 C769.5313,357.4844 770.6875,357.1875 771.4375,356.6406 C772.0156,356.2344 772.3438,355.7813 772.3438,355.3906 C772.3438,354.9375 771.9531,354.5469 771.4844,354.5469 C771.2656,354.5469 771.0625,354.625 770.875,354.8125 C770.4219,355.2969 770.4219,355.2969 770.2344,355.3906 C769.8125,355.6563 769.125,355.7813 768.3594,355.7813 C766.3125,355.7813 765.0156,354.6875 765.0156,352.9844 L765.0156,351.8906 C765.0156,350.1094 766.2656,348.7969 768,348.7969 C768.5781,348.7969 769.1875,348.9531 769.6563,349.2031 C770.1406,349.4844 770.3125,349.7031 770.4063,350.1094 C770.4688,350.5156 770.5,350.6406 770.6406,350.7656 C770.7813,350.9063 771.0156,351.0156 771.2344,351.0156 C771.5,351.0156 771.7656,350.875 771.9375,350.6563 C772.0469,350.5 772.0781,350.3125 772.0781,349.8906 L772.0781,348.4688 C772.0781,348.0313 772.0625,347.9063 771.9688,347.75 C771.8125,347.4844 771.5313,347.3438 771.2344,347.3438 C770.9375,347.3438 770.7344,347.4375 770.5156,347.75 L770.3438,347.6719 Z " fill="#000000"/><text fill="#000000" font-family="sans-serif" font-size="14" lengthAdjust="spacing" textLength="133" x="782" y="356.8467">IndexedFileAnchor</text></g><!--MD5=[a25c8758624681996bb27fba78b4cc2c]
reverse link Entity to ProgramFile--><g id="link_Entity_ProgramFile"><path codeLine="61" d="M987.996,115.387 C1117.11,115.407 1435.26,123.025 1690.5,191 C1696.17,192.509 1701.94,194.382 1707.66,196.474 " fill="none" id="Entity-backto-ProgramFile" style="stroke:#000000;stroke-width:1.0;"/><polygon fill="none" points="987.905,122.387,967.884,115.447,987.863,108.387,987.905,122.387" style="stroke:#000000;stroke-width:1.0;"/></g><!--MD5=[786cd3242f851a18827163ee7882962e]
reverse link TWithProgramUnits to ProgramFile--><g id="link_TWithProgramUnits_ProgramFile"><path codeLine="62" d="M460.833,39.198 C1009.41,107.973 1166.03,42.429 1690.5,191 C1696.14,192.598 1701.9,194.534 1707.6,196.666 " fill="none" id="TWithProgramUnits-backto-ProgramFile" style="stroke:#000000;stroke-width:1.0;stroke-dasharray:7.0,7.0;"/><polygon fill="none" points="459.69,46.109,440.733,36.64,461.457,32.221,459.69,46.109" style="stroke:#000000;stroke-width:1.0;"/></g><!--MD5=[f399f2dfe3977c0edc1891062f9e679e]
reverse link Entity to BlockData--><g id="link_Entity_BlockData"><path codeLine="63" d="M871.278,124.716 C803.85,135.809 690.055,157.633 596.5,191 C581.183,196.463 564.902,204.432 551.799,211.436 " fill="none" id="Entity-backto-BlockData" style="stroke:#000000;stroke-width:1.0;"/><polygon fill="none" points="870.603,117.735,891.457,121.49,872.813,131.559,870.603,117.735" style="stroke:#000000;stroke-width:1.0;"/></g><!--MD5=[cd417768a4faf1e541a73cdf249b82ba]
reverse link TProgramUnit to BlockData--><g id="link_TProgramUnit_BlockData"><path codeLine="64" d="M394.945,142.136 C428.329,163.708 474.542,193.571 502.091,211.373 " fill="none" id="TProgramUnit-backto-BlockData" style="stroke:#000000;stroke-width:1.0;stroke-dasharray:7.0,7.0;"/><polygon fill="none" points="390.917,147.867,377.918,131.133,398.515,136.108,390.917,147.867" style="stroke:#000000;stroke-width:1.0;"/></g><!--MD5=[36f4d77f7dbb662d8fafc251b0585f15]
reverse link ExternalProcedure to UnresolvedBehavioral--><g id="link_ExternalProcedure_UnresolvedBehavioral"><path codeLine="65" d="M327.829,258.751 C306.244,283.2349 276.747,316.6922 259.851,335.8562 " fill="none" id="ExternalProcedure-backto-UnresolvedBehavioral" style="stroke:#000000;stroke-width:1.0;"/><polygon fill="none" points="322.78,253.894,341.257,243.521,333.281,263.152,322.78,253.894" style="stroke:#000000;stroke-width:1.0;"/></g><!--MD5=[616f44b87cee700ddae0c6b9fc94530a]
reverse link Entity to SourcedEntity--><g id="link_Entity_SourcedEntity"><path codeLine="66" d="M987.644,121.393 C1074.16,130.381 1241.31,151.467 1378.5,191 C1396.79,196.27 1416.44,204.311 1432.24,211.409 " fill="none" id="Entity-backto-SourcedEntity" style="stroke:#000000;stroke-width:1.0;"/><polygon fill="none" points="986.902,128.354,967.702,119.389,988.302,114.424,986.902,128.354" style="stroke:#000000;stroke-width:1.0;"/></g><!--MD5=[55d15bf54f244cd1fe09b4c76a59e5d1]
reverse link ExternalProcedure to Function--><g id="link_ExternalProcedure_Function"><path codeLine="67" d="M377.984,259.77 C392.82,279.524 411.804,304.8015 426.025,323.7372 " fill="none" id="ExternalProcedure-backto-Function" style="stroke:#000000;stroke-width:1.0;"/><polygon fill="none" points="372.194,263.717,365.781,243.521,383.389,255.309,372.194,263.717" style="stroke:#000000;stroke-width:1.0;"/></g><!--MD5=[53359270d7a3f5f78815faba57a51aff]
reverse link SourcedEntity to Comment--><g id="link_SourcedEntity_Comment"><path codeLine="68" d="M1463.5,263.77 C1463.5,282.8495 1463.5,306.0574 1463.5,323.7372 " fill="none" id="SourcedEntity-backto-Comment" style="stroke:#000000;stroke-width:1.0;"/><polygon fill="none" points="1456.5,263.521,1463.5,243.521,1470.5,263.521,1456.5,263.521" style="stroke:#000000;stroke-width:1.0;"/></g><!--MD5=[41fc378e91d771102aa62ba592b85dea]
reverse link Entity to Invocation--><g id="link_Entity_Invocation"><path codeLine="69" d="M987.815,116.473 C1099.18,118.807 1348.82,130.953 1548.5,191 C1564.6,195.842 1581.48,204.131 1594.74,211.483 " fill="none" id="Entity-backto-Invocation" style="stroke:#000000;stroke-width:1.0;"/><polygon fill="none" points="987.626,123.471,967.749,116.13,987.866,109.473,987.626,123.471" style="stroke:#000000;stroke-width:1.0;"/></g><!--MD5=[e6ee02d4c628c87029a9de49450bad22]
reverse link Entity to SourceAnchor--><g id="link_Entity_SourceAnchor"><path codeLine="70" d="M876.977,139.215 C827.862,160.924 755.941,192.713 713.803,211.338 " fill="none" id="Entity-backto-SourceAnchor" style="stroke:#000000;stroke-width:1.0;"/><polygon fill="none" points="874.401,132.701,895.524,131.018,880.061,145.505,874.401,132.701" style="stroke:#000000;stroke-width:1.0;"/></g><!--MD5=[c2db4280cad5a14ad0fd08b6302e2a55]
reverse link SourceAnchor to SourceTextAnchor--><g id="link_SourceAnchor_SourceTextAnchor"><path codeLine="71" d="M667.213,262.708 C658.583,286.7337 647.459,317.7057 640.939,335.8562 " fill="none" id="SourceAnchor-backto-SourceTextAnchor" style="stroke:#000000;stroke-width:1.0;"/><polygon fill="none" points="660.756,259.977,674.105,243.521,673.932,264.71,660.756,259.977" style="stroke:#000000;stroke-width:1.0;"/></g><!--MD5=[4b9c8d9cf48f6d9986ac556982cf1136]
reverse link Entity to ExternalProcedure--><g id="link_Entity_ExternalProcedure"><path codeLine="72" d="M871.338,121.769 C781.259,131.471 603.008,153.734 455.5,191 C434.236,196.372 411.116,204.334 392.369,211.357 " fill="none" id="Entity-backto-ExternalProcedure" style="stroke:#000000;stroke-width:1.0;"/><polygon fill="none" points="870.618,114.806,891.241,119.677,872.082,128.73,870.618,114.806" style="stroke:#000000;stroke-width:1.0;"/></g><!--MD5=[e80e6e55267df9a493f14baaea3ff5ca]
reverse link TProgramUnit to ExternalProcedure--><g id="link_TProgramUnit_ExternalProcedure"><path codeLine="73" d="M354.5,151.408 C354.5,171.611 354.5,195.895 354.5,211.266 " fill="none" id="TProgramUnit-backto-ExternalProcedure" style="stroke:#000000;stroke-width:1.0;stroke-dasharray:7.0,7.0;"/><polygon fill="none" points="347.5,151.365,354.5,131.365,361.5,151.365,347.5,151.365" style="stroke:#000000;stroke-width:1.0;"/></g><!--MD5=[81705ca10af9e66d20b90faa26a08fca]
reverse link ExternalProcedure to Subroutine--><g id="link_ExternalProcedure_Subroutine"><path codeLine="74" d="M300.125,251.311 C241.281,275.998 149.11,314.6652 98.5978,335.8562 " fill="none" id="ExternalProcedure-backto-Subroutine" style="stroke:#000000;stroke-width:1.0;"/><polygon fill="none" points="297.544,244.803,318.695,243.521,302.96,257.713,297.544,244.803" style="stroke:#000000;stroke-width:1.0;"/></g><!--MD5=[62226c7559f1b504e0cec1ffc810172e]
reverse link Entity to NamedEntity--><g id="link_Entity_NamedEntity"><path codeLine="75" d="M905.172,147.258 C888.881,168.191 868.151,194.826 855.356,211.266 " fill="none" id="Entity-backto-NamedEntity" style="stroke:#000000;stroke-width:1.0;"/><polygon fill="none" points="899.734,142.848,917.542,131.365,910.782,151.447,899.734,142.848" style="stroke:#000000;stroke-width:1.0;"/></g><!--MD5=[4e9b42b12759f75c8f700ec0fc39f3b1]
reverse link Entity to SourceLanguage--><g id="link_Entity_SourceLanguage"><path codeLine="76" d="M954.11,147.258 C970.592,168.191 991.562,194.826 1004.506,211.266 " fill="none" id="Entity-backto-SourceLanguage" style="stroke:#000000;stroke-width:1.0;"/><polygon fill="none" points="948.469,151.409,941.597,131.365,959.469,142.748,948.469,151.409" style="stroke:#000000;stroke-width:1.0;"/></g><!--MD5=[7a58f3aa2c0b748e28c4ba97f487ed26]
reverse link SourceLanguage to UnknownSourceLanguage--><g id="link_SourceLanguage_UnknownSourceLanguage"><path codeLine="77" d="M1028.79,262.708 C1037.42,286.7337 1048.54,317.7057 1055.06,335.8562 " fill="none" id="SourceLanguage-backto-UnknownSourceLanguage" style="stroke:#000000;stroke-width:1.0;"/><polygon fill="none" points="1022.07,264.71,1021.9,243.521,1035.24,259.977,1022.07,264.71" style="stroke:#000000;stroke-width:1.0;"/></g><!--MD5=[f60ab433911b9183e3772f80b1b833d1]
reverse link Entity to Parameter--><g id="link_Entity_Parameter"><path codeLine="78" d="M986.434,138.813 C1021.8,153.242 1068.07,172.584 1108.5,191 C1122.58,197.413 1137.98,204.939 1150.92,211.407 " fill="none" id="Entity-backto-Parameter" style="stroke:#000000;stroke-width:1.0;"/><polygon fill="none" points="983.408,145.14,967.506,131.136,988.671,132.167,983.408,145.14" style="stroke:#000000;stroke-width:1.0;"/></g><!--MD5=[32604e4b2596c50a3da98bd5e21903f3]
reverse link Entity to Variable--><g id="link_Entity_Variable"><path codeLine="79" d="M988.022,124.433 C1053.9,135.095 1163.36,156.36 1252.5,191 C1266.31,196.366 1280.77,204.328 1292.35,211.352 " fill="none" id="Entity-backto-Variable" style="stroke:#000000;stroke-width:1.0;"/><polygon fill="none" points="986.525,131.284,967.846,121.28,988.687,117.452,986.525,131.284" style="stroke:#000000;stroke-width:1.0;"/></g><!--MD5=[eaf8ec6d8ffee9b29de798a0bf952fae]
reverse link Entity to Module--><g id="link_Entity_Module"><path codeLine="80" d="M870.961,118.09 C710.277,124.361 265.123,145.462 126.5,191 C112.531,195.589 98.3648,203.963 87.4161,211.426 " fill="none" id="Entity-backto-Module" style="stroke:#000000;stroke-width:1.0;"/><polygon fill="none" points="871.006,111.083,891.258,117.319,871.538,125.073,871.006,111.083" style="stroke:#000000;stroke-width:1.0;"/></g><!--MD5=[da24e260afdb1d86fc91132a32049800]
reverse link TProgramUnit to Module--><g id="link_TProgramUnit_Module"><path codeLine="81" d="M277.531,136.638 C232.552,149.843 175.228,168.668 126.5,191 C113.894,196.777 100.598,204.608 89.8258,211.445 " fill="none" id="TProgramUnit-backto-Module" style="stroke:#000000;stroke-width:1.0;stroke-dasharray:7.0,7.0;"/><polygon fill="none" points="275.781,129.858,296.936,131.064,279.646,143.314,275.781,129.858" style="stroke:#000000;stroke-width:1.0;"/></g><!--MD5=[e2df33c050858a3399c2fafa987c0f7e]
reverse link Entity to Program--><g id="link_Entity_Program"><path codeLine="82" d="M871.005,119.534 C728.936,128.591 368.969,154.516 254.5,191 C239.731,195.707 224.503,203.99 212.609,211.372 " fill="none" id="Entity-backto-Program" style="stroke:#000000;stroke-width:1.0;"/><polygon fill="none" points="870.7,112.539,891.099,118.273,871.577,126.512,870.7,112.539" style="stroke:#000000;stroke-width:1.0;"/></g><!--MD5=[4641a7e974fd2dba7edf3dba51861956]
reverse link TProgramUnit to Program--><g id="link_TProgramUnit_Program"><path codeLine="83" d="M315.265,142.436 C283.283,163.985 239.249,193.654 212.951,211.373 " fill="none" id="TProgramUnit-backto-Program" style="stroke:#000000;stroke-width:1.0;stroke-dasharray:7.0,7.0;"/><polygon fill="none" points="311.543,136.503,332.04,131.133,319.365,148.114,311.543,136.503" style="stroke:#000000;stroke-width:1.0;"/></g><!--MD5=[1d7e392f04762d57e9cfb383be639afc]
reverse link TWithProgramUnits to TProgramUnit--><g id="link_TWithProgramUnits_TProgramUnit"><path codeLine="84" d="M342.027,59.12 C341.24,72.95 342.13,88.09 344.699,98.958 " fill="none" id="TWithProgramUnits-backto-TProgramUnit" style="stroke:#000000;stroke-width:1.0;stroke-dasharray:7.0,7.0;"/><polygon fill="none" points="335.09,58.18,344.646,39.267,348.97,60.011,335.09,58.18" style="stroke:#000000;stroke-width:1.0;"/></g><!--MD5=[5ef90a7b98cbc7a62ddc482edca25e30]
link TProgramUnit to TWithProgramUnits--><g id="link_TProgramUnit_TWithProgramUnits"><path codeLine="87" d="M364.878,98.958 C368.051,86.279 368.805,67.785 367.142,52.34 " fill="none" id="TProgramUnit-to-TWithProgramUnits" style="stroke:#000000;stroke-width:1.0;"/><polygon fill="none" points="364.934,39.267,361.9887,45.8492,366.9318,51.0995,369.8771,44.5173,364.934,39.267" style="stroke:#000000;stroke-width:1.0;"/><text fill="#000000" font-family="sans-serif" font-size="13" lengthAdjust="spacing" textLength="94" x="257.6017" y="87.9552">*programUnits</text><text fill="#000000" font-family="sans-serif" font-size="13" lengthAdjust="spacing" textLength="60" x="298.6973" y="58.9308">container</text></g><!--MD5=[9d4a3397ff0930e9ecd67d6a6874b2c5]
reverse link SourceAnchor to IndexedFileAnchor--><g id="link_SourceAnchor_IndexedFileAnchor"><path codeLine="85" d="M714.479,255.968 C745.899,280.6402 790.871,315.9551 816.215,335.8562 " fill="none" id="SourceAnchor-backto-IndexedFileAnchor" style="stroke:#000000;stroke-width:1.0;"/><polygon fill="none" points="710.035,261.378,698.629,243.521,718.682,250.367,710.035,261.378" style="stroke:#000000;stroke-width:1.0;"/></g><!--MD5=[00f37421fd30cca9e0ba1e950a22eda1]
@startuml
hide empty members
skinparam class {
  BackgroundColor white
  ArrowColor black
  BorderColor darkGray
  BackgroundColor<<External>> LightYellow
  BorderColor<<External>> LightGray
}

class ProgramFile << (C,white) >> #FFFFFF {
  String version
  String filename
}
class TWithProgramUnits << (T,lightGrey) >> #FFFFFF {
}
class BlockData << (C,white) >> #FFFFFF {
}
class UnresolvedBehavioral << (C,white) >> #FFFFFF {
}
class SourcedEntity << (C,white) >> #FFFFFF {
}
class Function << (C,white) >> #FFFFFF {
  Boolean isIntrinsic
}
class Entity << (C,white) >> #FFFFFF {
}
class Comment << (C,white) >> #FFFFFF {
  Boolean isEsope
}
class Invocation << (C,white) >> #FFFFFF {
}
class SourceAnchor << (C,white) >> #FFFFFF {
}
class SourceTextAnchor << (C,white) >> #FFFFFF {
}
class ExternalProcedure << (C,white) >> #FFFFFF {
}
class Subroutine << (C,white) >> #FFFFFF {
}
class NamedEntity << (C,white) >> #FFFFFF {
}
class SourceLanguage << (C,white) >> #FFFFFF {
}
class UnknownSourceLanguage << (C,white) >> #FFFFFF {
}
class Parameter << (C,white) >> #FFFFFF {
}
class Variable << (C,white) >> #FFFFFF {
}
class Module << (C,white) >> #FFFFFF {
}
class Program << (C,white) >> #FFFFFF {
}
class FamixFortranModel << (C,white) >> #FFFFFF {
}
class TProgramUnit << (T,lightGrey) >> #FFFFFF {
}
class IndexedFileAnchor << (C,white) >> #FFFFFF {
}

Entity <|- - ProgramFile
TWithProgramUnits <|.. ProgramFile
Entity <|- - BlockData
TProgramUnit <|.. BlockData
ExternalProcedure <|- - UnresolvedBehavioral
Entity <|- - SourcedEntity
ExternalProcedure <|- - Function
SourcedEntity <|- - Comment
Entity <|- - Invocation
Entity <|- - SourceAnchor
SourceAnchor <|- - SourceTextAnchor
Entity <|- - ExternalProcedure
TProgramUnit <|.. ExternalProcedure
ExternalProcedure <|- - Subroutine
Entity <|- - NamedEntity
Entity <|- - SourceLanguage
SourceLanguage <|- - UnknownSourceLanguage
Entity <|- - Parameter
Entity <|- - Variable
Entity <|- - Module
TProgramUnit <|.. Module
Entity <|- - Program
TProgramUnit <|.. Program
TWithProgramUnits <|.. TProgramUnit
SourceAnchor <|- - IndexedFileAnchor

TProgramUnit " *programUnits" - -o "container" TWithProgramUnits
@enduml

PlantUML version 1.2022.10beta1(Unknown compile time)
(GPL source distribution)
Java Runtime: Java(TM) SE Runtime Environment
JVM: Java HotSpot(TM) 64-Bit Server VM
Default Encoding: UTF-8
Language: en
Country: US
--></g></svg>
